<?xml version="1.0" encoding="utf-8"?>
<!-- Generator: Adobe Illustrator 24.0.3, SVG Export Plug-In . SVG Version: 6.00 Build 0)  -->
<svg version="1.1" id="Layer_1" xmlns="http://www.w3.org/2000/svg" xmlns:xlink="http://www.w3.org/1999/xlink" x="0px" y="0px"
	 viewBox="0 0 200 200" style="enable-background:new 0 0 200 200;" xml:space="preserve">
<style type="text/css">
	.st0{display:none;}
	.st1{fill:#F79523;}
	.st2{fill:#FFFFFF;}
</style>
<g id="Grid" class="st0">
</g>
<g id="Layer_1_1_">
</g>
<g id="Desktop">
</g>
<g id="Guides">
</g>
<g id="Page_1">
</g>
<g id="Layer_1_2_">
	<circle class="st1" cx="101.7" cy="103.3" r="91.3"/>
	<g>
		<path class="st2" d="M65.7,80.6l-12.8-7.4l1.7-3l12.8,7.4L65.7,80.6L65.7,80.6z M157.1,101.1h-14.8v-3.4h14.8V101.1L157.1,101.1z
			 M61.1,101.1H46.3v-3.4h14.8L61.1,101.1L61.1,101.1z M150.5,73.2l-12.8,7.4l-1.7-3l12.8-7.4L150.5,73.2L150.5,73.2z M130.9,52.3
			l-7.4,12.8l-3-1.7l7.4-12.8L130.9,52.3L130.9,52.3z M103.4,44v14.8H100V44H103.4L103.4,44z M79.9,65.1l-7.4-12.8l3-1.7l7.4,12.8
			L79.9,65.1L79.9,65.1z M67.4,121.1l-12.8,7.4l-1.7-3l12.8-7.4L67.4,121.1L67.4,121.1z M148.8,128.5l-12.8-7.4l1.7-3l12.8,7.4
			L148.8,128.5L148.8,128.5z"/>
		<g>
			<path class="st2" d="M104,157.4c1.4,0,2.5,1.1,2.5,2.5c0,3.7-9.6,3.7-9.6,0c0-1.4,1.1-2.5,2.5-2.5H104L104,157.4z"/>
			<path class="st2" d="M101.7,142.7H88.6h-0.8l-0.6-0.5c-3.5-3.2-3.7-6.1-3.9-10.2c-0.1-1.9-0.2-4-0.8-6.5
				c-0.9-4.2-2.9-7.5-4.8-10.8c-0.6-1-1.2-2.1-1.7-2.9c-3.6-6.5-4.6-13.8-2.9-20.4c1.6-6.3,5.6-12,12.2-16.1c2.4-1.5,5-2.6,7.8-3.4
				c2.7-0.8,5.6-1.2,8.5-1.2l0,0c3,0,5.8,0.4,8.5,1.2c2.8,0.8,5.4,1.9,7.8,3.4c6.8,4,10.8,9.8,12.4,16l0,0
				c1.7,6.6,0.6,13.9-2.9,20.4c-0.5,0.8-1.1,1.9-1.7,2.9c-1.9,3.3-3.9,6.6-4.8,10.8c-0.6,2.5-0.7,4.7-0.8,6.5
				c-0.2,4.1-0.4,7-3.9,10.2l-0.6,0.5h-0.8L101.7,142.7L101.7,142.7z"/>
			<path class="st1" d="M89.4,138.7h12.3H114c1.8-2,1.9-4.1,2.1-7c0.1-2,0.2-4.3,0.9-7.2c1.1-4.8,3.2-8.4,5.3-11.9
				c0.5-0.9,1-1.7,1.6-2.8c3.1-5.6,4-11.8,2.6-17.5l0,0c-1.3-5.3-4.8-10.2-10.5-13.7c-2.1-1.3-4.3-2.3-6.8-3c-2.4-0.7-4.9-1-7.5-1.1
				c-2.6,0-5.1,0.4-7.5,1.1s-4.7,1.7-6.8,3c-5.7,3.5-9.1,8.4-10.5,13.7c-1.4,5.7-0.5,11.9,2.6,17.5c0.6,1.1,1.1,1.9,1.6,2.8
				c2.1,3.6,4.2,7.2,5.3,11.9c0.6,2.8,0.8,5.2,0.9,7.2C87.4,134.6,87.5,136.8,89.4,138.7L89.4,138.7z"/>
			<path class="st2" d="M98.6,136.9c-1.8-16.5-0.6-19.4-8.2-34.8l11.3,3.2c3.8-1.1,7.5-2.1,11.3-3.1c-7.6,15.3-6.4,18.3-8.2,34.8
				C101,136.6,102.4,136.6,98.6,136.9L98.6,136.9z M101.2,130.7c0.2,1.8,0.3,3.6,0.5,5.5c1.2-11.2,1-18.7,5.6-29.3
				c-7.5,2.1-3.6,2-11.1,0C99.9,115.5,100.3,121.4,101.2,130.7L101.2,130.7z"/>
			<path class="st2" d="M91.1,139.2c1.5-1,3.2-1.7,5.1-2.3c1.8-0.5,3.6-0.8,5.5-0.8l0,0c1.9,0,3.8,0.3,5.5,0.8
				c1.8,0.5,3.5,1.3,5.1,2.3l-1.3,2.1H92.4L91.1,139.2L91.1,139.2z"/>
			<path class="st2" d="M115.5,142.5v10.8c0,1.7-0.6,3.3-1.5,4.4c-1,1.3-2.5,2.1-4.2,2.1H93.6c-1.7,0-3.1-0.8-4.2-2.1
				c-0.9-1.2-1.5-2.7-1.5-4.4v-10.8H115.5L115.5,142.5z"/>
			<path class="st1" d="M92.4,143.9v9.4c0,0.7,0.2,1.3,0.5,1.7c0.2,0.3,0.5,0.4,0.7,0.4h16.3c0.2,0,0.5-0.2,0.7-0.4
				c0.3-0.4,0.5-1,0.5-1.7v-9.4H92.4L92.4,143.9z"/>
			<path class="st2" d="M87.9,144.4c-1.2,0-2.2-1-2.2-2.2c0-1.2,1-2.2,2.2-2.2h27.6c1.2,0,2.2,1,2.2,2.2c0,1.2-1,2.2-2.2,2.2H87.9
				L87.9,144.4z"/>
		</g>
	</g>
</g>
</svg>
