<?xml version="1.0" encoding="utf-8"?>
<!-- Generator: Adobe Illustrator 24.0.3, SVG Export Plug-In . SVG Version: 6.00 Build 0)  -->
<svg version="1.1" id="Layer_1" xmlns="http://www.w3.org/2000/svg" xmlns:xlink="http://www.w3.org/1999/xlink" x="0px" y="0px"
	 viewBox="0 0 200 200" style="enable-background:new 0 0 200 200;" xml:space="preserve">
<style type="text/css">
	.st0{display:none;}
	.st1{fill:#20759C;}
	.st2{fill:#FFFFFF;}
</style>
<g id="Grid" class="st0">
</g>
<g id="Layer_1_1_">
</g>
<g id="Desktop">
</g>
<g id="Guides">
</g>
<g id="Page_1">
</g>
<g id="Layer_1_2_">
	<circle class="st1" cx="100" cy="100" r="91.3"/>
	<g>
		<path class="st2" d="M64,77.3l-12.8-7.4l1.7-3l12.8,7.4L64,77.3L64,77.3z M155.4,97.8h-14.8v-3.4h14.8V97.8L155.4,97.8z
			 M59.4,97.8H44.6v-3.4h14.8V97.8L59.4,97.8z M148.8,69.9L136,77.3l-1.7-3l12.8-7.4L148.8,69.9L148.8,69.9z M129.2,49l-7.4,12.8
			l-3-1.7l7.4-12.8L129.2,49L129.2,49z M101.7,40.7v14.8h-3.4V40.7H101.7L101.7,40.7z M78.2,61.8L70.8,49l3-1.7l7.4,12.8L78.2,61.8
			L78.2,61.8z M65.7,117.8l-12.8,7.4l-1.7-3l12.8-7.4L65.7,117.8L65.7,117.8z M147.1,125.2l-12.8-7.4l1.7-3l12.8,7.4L147.1,125.2
			L147.1,125.2z"/>
		<g>
			<path class="st2" d="M102.3,154.1c1.4,0,2.5,1.1,2.5,2.5c0,3.7-9.6,3.7-9.6,0c0-1.4,1.1-2.5,2.5-2.5H102.3L102.3,154.1z"/>
			<path class="st2" d="M100,139.4H86.9h-0.8l-0.6-0.5c-3.5-3.2-3.7-6.1-3.9-10.2c-0.1-1.9-0.2-4-0.8-6.5c-0.9-4.2-2.9-7.5-4.8-10.8
				c-0.6-1-1.2-2.1-1.7-2.9c-3.6-6.5-4.6-13.8-2.9-20.4c1.6-6.3,5.6-12,12.2-16.1c2.4-1.5,5-2.6,7.8-3.4c2.7-0.8,5.6-1.2,8.5-1.2h0
				c3,0,5.8,0.4,8.5,1.2c2.8,0.8,5.4,1.9,7.8,3.4C123,76,127,81.8,128.6,88l0,0c1.7,6.6,0.6,13.9-2.9,20.4c-0.5,0.8-1.1,1.9-1.7,2.9
				c-1.9,3.3-3.9,6.6-4.8,10.8c-0.6,2.5-0.7,4.7-0.8,6.5c-0.2,4.1-0.4,7-3.9,10.2l-0.6,0.5h-0.8H100L100,139.4z"/>
			<path class="st1" d="M87.7,135.4H100h12.3c1.8-2,1.9-4.1,2.1-7c0.1-2,0.2-4.3,0.9-7.2c1.1-4.8,3.2-8.4,5.3-11.9
				c0.5-0.9,1-1.7,1.6-2.8c3.1-5.6,4-11.8,2.6-17.5v0c-1.3-5.3-4.8-10.2-10.5-13.7c-2.1-1.3-4.3-2.3-6.8-3c-2.4-0.7-4.9-1-7.5-1.1
				c-2.6,0-5.1,0.4-7.5,1.1c-2.4,0.7-4.7,1.7-6.8,3c-5.7,3.5-9.1,8.4-10.5,13.7c-1.4,5.7-0.5,11.9,2.6,17.5c0.6,1.1,1.1,1.9,1.6,2.8
				c2.1,3.6,4.2,7.2,5.3,11.9c0.6,2.8,0.8,5.2,0.9,7.2C85.7,131.3,85.8,133.5,87.7,135.4L87.7,135.4z"/>
			<path class="st2" d="M96.9,133.6c-1.8-16.5-0.6-19.4-8.2-34.8L100,102c3.8-1.1,7.5-2.1,11.3-3.1c-7.6,15.3-6.4,18.3-8.2,34.8
				C99.3,133.3,100.7,133.3,96.9,133.6L96.9,133.6z M99.5,127.4c0.2,1.8,0.3,3.6,0.5,5.5c1.2-11.2,1-18.7,5.6-29.3
				c-7.5,2.1-3.6,2-11.1,0C98.2,112.2,98.6,118.1,99.5,127.4L99.5,127.4z"/>
			<path class="st2" d="M89.4,135.9c1.5-1,3.2-1.7,5.1-2.3c1.8-0.5,3.6-0.8,5.5-0.8h0c1.9,0,3.8,0.3,5.5,0.8
				c1.8,0.5,3.5,1.3,5.1,2.3l-1.3,2.1H90.7L89.4,135.9L89.4,135.9z"/>
			<path class="st2" d="M113.8,139.2V150c0,1.7-0.6,3.3-1.5,4.4c-1,1.3-2.5,2.1-4.2,2.1H91.9c-1.7,0-3.1-0.8-4.2-2.1
				c-0.9-1.2-1.5-2.7-1.5-4.4v-10.8L113.8,139.2L113.8,139.2z"/>
			<path class="st1" d="M90.7,140.6v9.4c0,0.7,0.2,1.3,0.5,1.7c0.2,0.3,0.5,0.4,0.7,0.4h16.3c0.2,0,0.5-0.2,0.7-0.4
				c0.3-0.4,0.5-1,0.5-1.7v-9.4H90.7L90.7,140.6z"/>
			<path class="st2" d="M86.2,141.1c-1.2,0-2.2-1-2.2-2.2c0-1.2,1-2.2,2.2-2.2h27.6c1.2,0,2.2,1,2.2,2.2c0,1.2-1,2.2-2.2,2.2H86.2
				L86.2,141.1z"/>
		</g>
	</g>
</g>
</svg>
