<?xml version="1.0" encoding="utf-8"?>
<!-- Generator: Adobe Illustrator 16.0.4, SVG Export Plug-In . SVG Version: 6.00 Build 0)  -->
<!DOCTYPE svg PUBLIC "-//W3C//DTD SVG 1.1//EN" "http://www.w3.org/Graphics/SVG/1.1/DTD/svg11.dtd">
<svg version="1.1" id="Layer_1" xmlns="http://www.w3.org/2000/svg" xmlns:xlink="http://www.w3.org/1999/xlink" x="0px" y="0px"
	 width="53.5px" height="53.5px" viewBox="0 0 53.5 53.5" enable-background="new 0 0 53.5 53.5" xml:space="preserve">
<path fill="#1E7DA9" d="M53.631,15.083c0-0.016-0.004-0.031-0.004-0.046V7.549c-0.004-2.316-1.883-4.195-4.198-4.198h-4.181V1.675
	C45.249,0.75,44.499,0,43.573,0s-1.677,0.75-1.677,1.675v1.677H11.729V1.675C11.729,0.75,10.981,0,10.053,0
	C9.129,0,8.379,0.75,8.379,1.675v1.677H4.197C1.88,3.354,0.003,5.233,0,7.549v7.529c0,0.001,0,0.003,0,0.005
	c0,0.001,0,0.004,0,0.005V49.43c0.003,2.318,1.879,4.194,4.196,4.196h45.235c2.316-0.002,4.194-1.88,4.196-4.196V15.129
	C53.627,15.113,53.631,15.099,53.631,15.083 M4.197,6.704h4.182v1.675c0,0.925,0.75,1.676,1.676,1.676
	c0.926-0.001,1.674-0.751,1.674-1.676V6.704h30.167V8.38c0,0.925,0.751,1.675,1.677,1.675h0.002
	c0.926-0.001,1.674-0.751,1.674-1.676V6.704h4.181c0.468,0.001,0.845,0.379,0.848,0.846v5.858H3.351V7.549
	C3.353,7.083,3.73,6.705,4.197,6.704 M49.431,50.276H4.196c-0.467,0-0.845-0.378-0.845-0.846V16.759h46.926V49.43
	C50.277,49.898,49.897,50.276,49.431,50.276"/>
<path fill="#1E7DA9" d="M10.053,28.49c-0.924,0-1.674,0.751-1.674,1.674c0,0.926,0.75,1.677,1.674,1.677
	c0.926,0,1.676-0.751,1.676-1.677C11.729,29.241,10.979,28.49,10.053,28.49"/>
<path fill="#1E7DA9" d="M10.053,35.191c-0.924,0-1.674,0.751-1.674,1.677s0.75,1.675,1.674,1.675c0.926,0,1.676-0.749,1.676-1.675
	S10.979,35.191,10.053,35.191"/>
<path fill="#1E7DA9" d="M10.053,41.895c-0.924,0-1.674,0.751-1.674,1.677c0,0.924,0.75,1.674,1.674,1.674
	c0.926,0,1.676-0.75,1.676-1.674C11.729,42.646,10.979,41.895,10.053,41.895"/>
<path fill="#1E7DA9" d="M36.867,21.786c-0.924,0-1.675,0.75-1.675,1.675c0,0.926,0.751,1.675,1.675,1.675
	c0.926,0,1.677-0.75,1.677-1.675C38.543,22.536,37.792,21.786,36.867,21.786"/>
<path fill="#1E7DA9" d="M36.867,28.49c-0.924,0-1.675,0.751-1.675,1.674c0,0.926,0.751,1.677,1.675,1.677
	c0.926,0,1.677-0.751,1.677-1.677C38.543,29.241,37.792,28.49,36.867,28.49"/>
<path fill="#1E7DA9" d="M36.867,35.191c-0.924,0-1.675,0.751-1.675,1.677s0.751,1.675,1.675,1.675c0.926,0,1.677-0.749,1.677-1.675
	S37.792,35.191,36.867,35.191"/>
<path fill="#1E7DA9" d="M36.867,41.895c-0.924,0-1.675,0.751-1.675,1.677c0,0.924,0.751,1.674,1.675,1.674
	c0.926,0,1.677-0.75,1.677-1.674C38.543,42.646,37.792,41.895,36.867,41.895"/>
<path fill="#1E7DA9" d="M43.571,21.786c-0.926,0-1.675,0.75-1.675,1.675c0,0.926,0.749,1.675,1.675,1.675s1.676-0.75,1.676-1.675
	C45.247,22.536,44.497,21.786,43.571,21.786"/>
<path fill="#1E7DA9" d="M43.571,28.49c-0.926,0-1.675,0.751-1.675,1.674c0,0.926,0.749,1.677,1.675,1.677s1.676-0.751,1.676-1.677
	C45.247,29.241,44.497,28.49,43.571,28.49"/>
<path fill="#1E7DA9" d="M43.571,35.191c-0.926,0-1.675,0.751-1.675,1.677s0.749,1.675,1.675,1.675s1.676-0.749,1.676-1.675
	S44.497,35.191,43.571,35.191"/>
<path fill="#1E7DA9" d="M23.461,21.786c-0.926,0-1.674,0.75-1.674,1.675c0,0.926,0.749,1.675,1.674,1.675
	c0.926,0,1.676-0.75,1.676-1.675C25.137,22.536,24.387,21.786,23.461,21.786"/>
<path fill="#1E7DA9" d="M23.461,28.49c-0.926,0-1.674,0.751-1.674,1.674c0,0.926,0.749,1.677,1.674,1.677
	c0.926,0,1.676-0.751,1.676-1.677C25.137,29.241,24.387,28.49,23.461,28.49"/>
<path fill="#1E7DA9" d="M23.461,35.191c-0.926,0-1.674,0.751-1.674,1.677s0.749,1.675,1.674,1.675c0.926,0,1.676-0.749,1.676-1.675
	S24.387,35.191,23.461,35.191"/>
<path fill="#1E7DA9" d="M23.461,41.895c-0.926,0-1.674,0.751-1.674,1.677c0,0.924,0.749,1.674,1.674,1.674
	c0.926,0,1.676-0.75,1.676-1.674C25.137,42.646,24.387,41.895,23.461,41.895"/>
<path fill="#1E7DA9" d="M16.757,21.786c-0.926,0-1.675,0.75-1.675,1.675c0,0.926,0.749,1.675,1.675,1.675
	c0.926,0,1.676-0.75,1.676-1.675C18.434,22.536,17.683,21.786,16.757,21.786"/>
<path fill="#1E7DA9" d="M16.757,28.49c-0.926,0-1.675,0.751-1.675,1.674c0,0.926,0.749,1.677,1.675,1.677
	c0.926,0,1.676-0.751,1.676-1.677C18.434,29.241,17.683,28.49,16.757,28.49"/>
<path fill="#1E7DA9" d="M16.757,35.191c-0.926,0-1.675,0.751-1.675,1.677s0.749,1.675,1.675,1.675c0.926,0,1.676-0.749,1.676-1.675
	S17.683,35.191,16.757,35.191"/>
<path fill="#1E7DA9" d="M16.757,41.895c-0.926,0-1.675,0.751-1.675,1.677c0,0.924,0.749,1.674,1.675,1.674
	c0.926,0,1.676-0.75,1.676-1.674C18.434,42.646,17.683,41.895,16.757,41.895"/>
<path fill="#1E7DA9" d="M30.165,21.786c-0.926,0-1.674,0.75-1.674,1.675c0,0.926,0.748,1.675,1.674,1.675
	c0.927,0,1.675-0.75,1.675-1.675C31.839,22.536,31.091,21.786,30.165,21.786"/>
<path fill="#1E7DA9" d="M30.165,28.49c-0.926,0-1.674,0.751-1.674,1.674c0,0.926,0.748,1.677,1.674,1.677
	c0.927,0,1.675-0.751,1.675-1.677C31.839,29.241,31.091,28.49,30.165,28.49"/>
<path fill="#1E7DA9" d="M30.165,35.191c-0.926,0-1.674,0.751-1.674,1.677s0.748,1.675,1.674,1.675c0.927,0,1.675-0.749,1.675-1.675
	S31.091,35.191,30.165,35.191"/>
<path fill="#1E7DA9" d="M30.165,41.895c-0.926,0-1.674,0.751-1.674,1.677c0,0.924,0.748,1.674,1.674,1.674
	c0.927,0,1.675-0.75,1.675-1.674C31.839,42.646,31.091,41.895,30.165,41.895"/>
</svg>
