<?xml version="1.0" encoding="utf-8"?>
<!-- Generator: Adobe Illustrator 16.0.4, SVG Export Plug-In . SVG Version: 6.00 Build 0)  -->
<!DOCTYPE svg PUBLIC "-//W3C//DTD SVG 1.1//EN" "http://www.w3.org/Graphics/SVG/1.1/DTD/svg11.dtd">
<svg version="1.1" id="Layer_1" xmlns="http://www.w3.org/2000/svg" xmlns:xlink="http://www.w3.org/1999/xlink" x="0px" y="0px"
	 width="53.5px" height="53.5px" viewBox="0 0 53.5 53.5" enable-background="new 0 0 53.5 53.5" xml:space="preserve">
<path fill="#1E7DA9" d="M27.443,16.067l-3.753,1.396c-0.502,0.189-0.839,0.676-0.841,1.212c0,0.347,0.133,0.672,0.378,0.918
	c0.246,0.246,0.571,0.381,0.917,0.382h0.006c0.155-0.002,0.307-0.03,0.447-0.083l3.753-1.393c0.669-0.25,1.012-0.999,0.763-1.669
	C28.862,16.16,28.114,15.82,27.443,16.067"/>
<path fill="#1E7DA9" d="M53.178,1.446c-0.042-0.431-0.288-0.821-0.619-1.016c-0.348-0.26-0.804-0.341-1.262-0.207L18.254,13.33
	H6.412c-2.492,0-5.375,1.238-5.994,4.71l0.464,0.082l-0.041,6.15H0.43v1.653h0.4l-0.042,6.16l-0.467,0.057
	c0.258,2.166,1.862,3.926,3.962,4.408v10.391c-0.062,3.258,2.334,5.99,5.578,6.357c0.237,0.023,0.511,0.057,0.723,0.035
	c0.054,0,0.108,0.002,0.162,0.002c1.258,0,2.465-0.457,3.424-1.305c2.019-1.91,2.077-5.201,2.077-5.57v-9.59h2.01l33.071,12.68
	c0.154,0.041,0.314,0.051,0.429,0.033c0.271-0.008,0.538-0.088,0.777-0.234c0.368-0.236,0.602-0.619,0.646-1.098L53.178,1.446z
	 M29.888,16.256c0.182,0.5,0.662,0.838,1.195,0.84c0.171,0,0.338-0.026,0.527-0.087l18.977-7.263v36.614L19.558,34.537V15.632
	L50.587,3.403v3.565l-19.908,7.618C30.002,14.833,29.653,15.564,29.888,16.256 M12.339,50.158c-0.608,0.504-1.405,0.711-2.214,0.572
	c-3.147-0.316-3.24-3.756-3.241-3.787V36.871h6.573l0.001,9.709C13.46,46.681,13.494,49.066,12.339,50.158 M6.31,34.675
	l-0.036-0.473c-0.035-0.004-0.079-0.008-0.134-0.014l-0.352-0.051c-1.375-0.061-2.542-1.086-2.767-2.363L3.015,18.476
	c0.232-1.562,1.593-2.677,3.229-2.593c0.215-0.014,0.433-0.016,0.674-0.005l10.046,0.042v18.354h-2.255l0.045,0.471h-0.045
	L6.31,34.675z"/>
</svg>
