<?xml version="1.0" encoding="utf-8"?>
<!-- Generator: Adobe Illustrator 16.0.4, SVG Export Plug-In . SVG Version: 6.00 Build 0)  -->
<!DOCTYPE svg PUBLIC "-//W3C//DTD SVG 1.1//EN" "http://www.w3.org/Graphics/SVG/1.1/DTD/svg11.dtd">
<svg version="1.1" id="Layer_1" xmlns="http://www.w3.org/2000/svg" xmlns:xlink="http://www.w3.org/1999/xlink" x="0px" y="0px"
	 width="53.5px" height="53.5px" viewBox="0 0 53.5 53.5" enable-background="new 0 0 53.5 53.5" xml:space="preserve">
<path fill="#1E7DA9" d="M36.11,26.747H22.736V25.41c0.002-2.217,1.801-4.014,4.018-4.012c0.756,0.001,1.497,0.215,2.137,0.618
	c0.615,0.408,1.445,0.24,1.854-0.375c0.407-0.616,0.239-1.445-0.375-1.853c-0.017-0.011-0.033-0.022-0.051-0.032
	c-3.123-1.972-7.254-1.038-9.225,2.085c-0.675,1.069-1.033,2.306-1.033,3.569v1.337h-2.675c-0.739,0.001-1.337,0.599-1.337,1.338
	v8.024c0.001,0.738,0.599,1.336,1.337,1.338H36.11c0.739,0,1.338-0.599,1.339-1.338v-8.024C37.449,27.346,36.85,26.747,36.11,26.747
	L36.11,26.747z M34.773,34.771H18.724v-5.348h16.048L34.773,34.771z"/>
<path fill="#1E7DA9" d="M46.808,0H6.687C2.995,0.004,0.004,2.995,0,6.687v40.121c0.001,3.693,2.994,6.688,6.687,6.691h40.121
	c3.695,0,6.69-2.996,6.692-6.691V6.687C53.496,2.994,50.502,0.001,46.808,0 M50.82,46.808c-0.003,2.215-1.797,4.009-4.012,4.012
	H6.687c-2.215-0.003-4.009-1.797-4.012-4.012V6.687c0.003-2.215,1.797-4.009,4.012-4.012h40.121
	c2.215,0.003,4.009,1.797,4.012,4.012V46.808z"/>
<path fill="#1E7DA9" d="M12.037,5.35h-5.35c-0.739,0-1.337,0.599-1.337,1.337c0,0.739,0.598,1.338,1.337,1.338h5.35
	c0.739,0,1.337-0.599,1.337-1.338C13.374,5.949,12.776,5.35,12.037,5.35"/>
<path fill="#1E7DA9" d="M17.386,8.025h5.35c0.739,0,1.337-0.599,1.337-1.338c0-0.738-0.598-1.337-1.337-1.337h-5.35
	c-0.739,0-1.338,0.599-1.338,1.337C16.048,7.426,16.647,8.025,17.386,8.025"/>
</svg>
