<?xml version="1.0" encoding="utf-8"?>
<!-- Generator: Adobe Illustrator 16.0.4, SVG Export Plug-In . SVG Version: 6.00 Build 0)  -->
<!DOCTYPE svg PUBLIC "-//W3C//DTD SVG 1.1//EN" "http://www.w3.org/Graphics/SVG/1.1/DTD/svg11.dtd">
<svg version="1.1" id="Layer_1" xmlns="http://www.w3.org/2000/svg" xmlns:xlink="http://www.w3.org/1999/xlink" x="0px" y="0px"
	 width="53.5px" height="38.593px" viewBox="0 0 53.5 38.593" enable-background="new 0 0 53.5 38.593" xml:space="preserve">
<path fill="#1E7DA9" d="M50.544,0l-20.64,0.006h-0.01c-1.66,0-3.015,1.35-3.019,3.015v2.367H3.838C1.726,5.403,0.004,7.133,0,9.245
	v17.369c0.005,2.122,1.735,3.85,3.856,3.856h3.52v7.188c0.009,0.365,0.221,0.693,0.553,0.857c0.122,0.053,0.252,0.077,0.38,0.077
	c0.231,0,0.459-0.084,0.637-0.243l8.673-7.877h15.088c2.122-0.007,3.854-1.736,3.857-3.857v-8.167h3.98l6.123,5.564
	c0.175,0.15,0.398,0.234,0.629,0.236h0.01c0.129,0,0.26-0.029,0.381-0.085c0.328-0.161,0.537-0.489,0.549-0.857v-4.858h2.244
	c0.019,0,0.037,0,0.057,0c1.646,0,2.998-1.322,3.027-2.979V3.021C53.566,1.355,52.21,0,50.544,0 M34.697,26.611
	c0,1.087-0.885,1.97-1.973,1.97H17.277c-0.234,0-0.457,0.09-0.627,0.248l-7.38,6.698v-6.012c0.016-0.248-0.064-0.486-0.229-0.674
	c-0.164-0.186-0.39-0.298-0.638-0.314c-0.021,0-0.042-0.002-0.062-0.002s-0.038,0-0.055,0.002H3.839
	c-1.087,0-1.972-0.885-1.972-1.971V9.245c0-1.087,0.885-1.971,1.972-1.971h28.913c1.073,0.014,1.945,0.898,1.945,1.971V26.611z
	 M51.6,15.428c-0.013,0.593-0.486,1.08-1.072,1.11h-3.185c-0.542,0-0.981,0.44-0.981,0.982v3.677l-4.818-4.382
	c-0.175-0.153-0.396-0.241-0.632-0.246h-4.354V9.245c-0.005-2.123-1.733-3.853-3.854-3.858h-3.938V3.026
	c0-0.63,0.514-1.144,1.144-1.144h20.624c0.625,0,1.135,0.509,1.135,1.147L51.6,15.428z"/>
</svg>
