<svg xmlns="http://www.w3.org/2000/svg" viewBox="0 0 51.92 51.92"><g id="Layer_2" data-name="Layer 2"><g id="Layer_1-2" data-name="Layer 1"><path d="M51.92,14.6V7.31a4.07,4.07,0,0,0-4.07-4.06h-4V1.62a1.63,1.63,0,0,0-3.25,0V3.25H11.36V1.62a1.63,1.63,0,0,0-3.25,0V3.25h-4A4.06,4.06,0,0,0,0,7.31V14.6H0V47.86a4.06,4.06,0,0,0,4.06,4.06h43.8a4.06,4.06,0,0,0,4.06-4.06V14.6ZM4.06,6.49H8.11V8.11a1.63,1.63,0,1,0,3.25,0V6.49h29.2V8.11a1.63,1.63,0,0,0,1.62,1.63h0a1.63,1.63,0,0,0,1.62-1.63V6.49h4a.82.82,0,0,1,.81.82V13H3.25V7.31A.82.82,0,0,1,4.06,6.49Zm43.8,42.18H4.06a.81.81,0,0,1-.81-.81V16.23H48.67V47.86A.81.81,0,0,1,47.86,48.67Z"/><path d="M9.73,27.58a1.63,1.63,0,1,0,1.63,1.62A1.63,1.63,0,0,0,9.73,27.58Z"/><path d="M9.73,34.07a1.63,1.63,0,1,0,1.63,1.62A1.63,1.63,0,0,0,9.73,34.07Z"/><path d="M9.73,40.56a1.63,1.63,0,1,0,1.63,1.62A1.63,1.63,0,0,0,9.73,40.56Z"/><path d="M35.69,21.09a1.63,1.63,0,1,0,1.63,1.62A1.63,1.63,0,0,0,35.69,21.09Z"/><path d="M35.69,27.58a1.63,1.63,0,1,0,1.63,1.62A1.63,1.63,0,0,0,35.69,27.58Z"/><path d="M35.69,34.07a1.63,1.63,0,1,0,1.63,1.62A1.63,1.63,0,0,0,35.69,34.07Z"/><path d="M35.69,40.56a1.63,1.63,0,1,0,1.63,1.62A1.63,1.63,0,0,0,35.69,40.56Z"/><path d="M42.18,21.09a1.63,1.63,0,1,0,1.63,1.62A1.63,1.63,0,0,0,42.18,21.09Z"/><path d="M42.18,27.58a1.63,1.63,0,1,0,1.63,1.62A1.63,1.63,0,0,0,42.18,27.58Z"/><path d="M42.18,34.07a1.63,1.63,0,1,0,1.63,1.62A1.63,1.63,0,0,0,42.18,34.07Z"/><path d="M22.71,21.09a1.63,1.63,0,1,0,1.63,1.62A1.63,1.63,0,0,0,22.71,21.09Z"/><path d="M22.71,27.58a1.63,1.63,0,1,0,1.63,1.62A1.63,1.63,0,0,0,22.71,27.58Z"/><path d="M22.71,34.07a1.63,1.63,0,1,0,1.63,1.62A1.63,1.63,0,0,0,22.71,34.07Z"/><path d="M22.71,40.56a1.63,1.63,0,1,0,1.63,1.62A1.63,1.63,0,0,0,22.71,40.56Z"/><path d="M16.22,21.09a1.63,1.63,0,1,0,1.63,1.62A1.63,1.63,0,0,0,16.22,21.09Z"/><path d="M16.22,27.58a1.63,1.63,0,1,0,1.63,1.62A1.63,1.63,0,0,0,16.22,27.58Z"/><path d="M16.22,34.07a1.63,1.63,0,1,0,1.63,1.62A1.63,1.63,0,0,0,16.22,34.07Z"/><path d="M16.22,40.56a1.63,1.63,0,1,0,1.63,1.62A1.63,1.63,0,0,0,16.22,40.56Z"/><path d="M29.2,21.09a1.63,1.63,0,1,0,1.63,1.62A1.63,1.63,0,0,0,29.2,21.09Z"/><path d="M29.2,27.58a1.63,1.63,0,1,0,1.63,1.62A1.63,1.63,0,0,0,29.2,27.58Z"/><path d="M29.2,34.07a1.63,1.63,0,1,0,1.63,1.62A1.63,1.63,0,0,0,29.2,34.07Z"/><path d="M29.2,40.56a1.63,1.63,0,1,0,1.63,1.62A1.63,1.63,0,0,0,29.2,40.56Z"/></g></g></svg>