<svg xmlns="http://www.w3.org/2000/svg" viewBox="0 0 56.15 56.49"><g id="Layer_2" data-name="Layer 2"><g id="Layer_1-2" data-name="Layer 1"><path d="M28.38,16.9l-4,1.48a1.39,1.39,0,0,0-.89,1.29,1.35,1.35,0,0,0,.4,1,1.34,1.34,0,0,0,1,.41h0a1.23,1.23,0,0,0,.47-.09l4-1.48a1.38,1.38,0,1,0-1-2.58Z"/><path d="M56.15,1.37A1.44,1.44,0,0,0,55.49.29,1.5,1.5,0,0,0,54.15.07L19.05,14H6.47C3.82,14,.76,15.31.1,19l.5.09,0,6.54H.12v1.75H.54l0,6.55h0L0,34a5.47,5.47,0,0,0,4.21,4.69v11a6.64,6.64,0,0,0,5.92,6.75,4.09,4.09,0,0,0,.77,0h.17a5.48,5.48,0,0,0,3.64-1.39c2.15-2,2.21-5.52,2.21-5.92V39h2.13L54.18,52.47a1.25,1.25,0,0,0,.46,0,1.61,1.61,0,0,0,.82-.25,1.51,1.51,0,0,0,.69-1.16ZM31.41,17.1a1.35,1.35,0,0,0,1.27.89,1.92,1.92,0,0,0,.56-.09L53.4,10.19V49.08l-33-12.56V16.44l33-13V7.23L32.25,15.32A1.4,1.4,0,0,0,31.41,17.1Zm-18.64,36a2.88,2.88,0,0,1-2.36.61c-3.34-.34-3.44-4-3.44-4V39h7V49.31C14,49.42,14,52,12.77,53.11ZM6.36,36.67l0-.51H6.18l-.37-.06a3.13,3.13,0,0,1-2.94-2.5V19.46A3.24,3.24,0,0,1,6.29,16.7H7l10.67,0v19.5h-2.4l.05.5h-.05Z"/></g></g></svg>