<svg xmlns="http://www.w3.org/2000/svg" viewBox="0 0 48.42 61.71"><g id="Layer_2" data-name="Layer 2"><g id="Layer_1-2" data-name="Layer 1"><g id="Group_1446" data-name="Group 1446"><path id="Path_2115" data-name="Path 2115" d="M12.69,61.66a1.22,1.22,0,0,0,1.53-.83h0L17.16,51H31.22l2.94,9.81a1.23,1.23,0,0,0,2.36-.7l-9.4-31.38a5.39,5.39,0,1,0-5.86,0l-9.4,31.38A1.23,1.23,0,0,0,12.69,61.66ZM17.9,48.55l2.46-8.22H28l2.47,8.22Zm6.89-19,2.48,8.29H21.1l2.48-8.29a3.51,3.51,0,0,0,1.21,0Zm-.6-8.27a2.93,2.93,0,1,1-2.93,2.93,2.92,2.92,0,0,1,2.93-2.93Z"/><path id="Path_2116" data-name="Path 2116" d="M43.78,36.32a1.24,1.24,0,0,0,1.68-.49h0a24.23,24.23,0,1,0-42.55,0,1.24,1.24,0,0,0,2.17-1.18h0a21.76,21.76,0,1,1,38.21,0,1.22,1.22,0,0,0,.49,1.67Z"/><path id="Path_2117" data-name="Path 2117" d="M38.29,33.33A1.22,1.22,0,0,0,40,32.84a18,18,0,1,0-31.54,0,1.23,1.23,0,1,0,2.2-1.11.25.25,0,0,0,0-.07,15.5,15.5,0,1,1,27.22,0,1.22,1.22,0,0,0,.49,1.67Z"/><path id="Path_2118" data-name="Path 2118" d="M32.78,30.33a1.24,1.24,0,0,0,1.68-.48h0a11.71,11.71,0,1,0-20.55,0,1.23,1.23,0,0,0,1.67.5,1.25,1.25,0,0,0,.5-1.68h0a9.24,9.24,0,1,1,16.22,0,1.23,1.23,0,0,0,.48,1.67Z"/></g></g></g></svg>