<svg xmlns="http://www.w3.org/2000/svg" viewBox="0 0 53.5 53.5"><g id="Layer_2" data-name="Layer 2"><g id="Layer_1-2" data-name="Layer 1"><g id="Group_1445" data-name="Group 1445"><g id="Group_1444" data-name="Group 1444"><path id="Path_2111" data-name="Path 2111" d="M36.11,26.75H22.74V25.41a4,4,0,0,1,4-4,4,4,0,0,1,2.14.62,1.34,1.34,0,0,0,1.48-2.23l-.05,0a6.68,6.68,0,0,0-10.26,5.65v1.34H17.39a1.34,1.34,0,0,0-1.34,1.33v8a1.34,1.34,0,0,0,1.34,1.34H36.11a1.34,1.34,0,0,0,1.34-1.34h0v-8a1.34,1.34,0,0,0-1.34-1.33Zm-1.34,8H18.72V29.42H34.77Z"/><path id="Path_2112" data-name="Path 2112" d="M46.81,0H6.69A6.7,6.7,0,0,0,0,6.69V46.81A6.69,6.69,0,0,0,6.69,53.5H46.81a6.7,6.7,0,0,0,6.69-6.69V6.69A6.69,6.69,0,0,0,46.81,0Zm4,46.81a4,4,0,0,1-4,4H6.69a4,4,0,0,1-4-4V6.69a4,4,0,0,1,4-4H46.81a4,4,0,0,1,4,4Z"/><path id="Path_2113" data-name="Path 2113" d="M12,5.35H6.69A1.34,1.34,0,1,0,6.69,8H12a1.34,1.34,0,0,0,0-2.67Z"/><path id="Path_2114" data-name="Path 2114" d="M17.39,8h5.35a1.34,1.34,0,0,0,0-2.67H17.39a1.34,1.34,0,1,0,0,2.67Z"/></g></g></g></g></svg>