<svg xmlns="http://www.w3.org/2000/svg" viewBox="0 0 71.86 51.77"><g id="Layer_2" data-name="Layer 2"><g id="Layer_1-2" data-name="Layer 1"><path d="M67.8,0H40.11a4.07,4.07,0,0,0-4.06,4V7.23H5.15A5.21,5.21,0,0,0,0,12.4V35.7a5.2,5.2,0,0,0,5.17,5.18H9.89v9.64a1.33,1.33,0,0,0,.75,1.15A1.29,1.29,0,0,0,12,51.44L23.64,40.88H43.88a5.2,5.2,0,0,0,5.17-5.18v-11h5.34l8.22,7.46a1.29,1.29,0,0,0,.84.32h0a1.3,1.3,0,0,0,.51-.11,1.34,1.34,0,0,0,.74-1.15V24.75h3.08a4.08,4.08,0,0,0,4.07-4V4.05A4.06,4.06,0,0,0,67.8,0ZM46.54,35.7a2.64,2.64,0,0,1-2.64,2.64H23.18a1.26,1.26,0,0,0-.85.33l-9.89,9V39.6a1.25,1.25,0,0,0-.31-.91,1.23,1.23,0,0,0-.86-.42H5.15A2.65,2.65,0,0,1,2.5,35.63V12.4A2.65,2.65,0,0,1,5.15,9.76H43.94a2.65,2.65,0,0,1,2.6,2.64Zm22.68-15a1.52,1.52,0,0,1-1.44,1.48H63.51a1.33,1.33,0,0,0-1.32,1.32v4.94l-6.46-5.88a1.29,1.29,0,0,0-.85-.33H49V12.4a5.2,5.2,0,0,0-5.17-5.17H38.58V4.06a1.53,1.53,0,0,1,1.54-1.53H67.78A1.52,1.52,0,0,1,69.3,4.06Z"/></g></g></svg>