<?xml version="1.0" encoding="utf-8"?>
<!-- Generator: Adobe Illustrator 16.0.4, SVG Export Plug-In . SVG Version: 6.00 Build 0)  -->
<!DOCTYPE svg PUBLIC "-//W3C//DTD SVG 1.1//EN" "http://www.w3.org/Graphics/SVG/1.1/DTD/svg11.dtd">
<svg version="1.1" id="Layer_1" xmlns="http://www.w3.org/2000/svg" xmlns:xlink="http://www.w3.org/1999/xlink" x="0px" y="0px"
	 width="53.5px" height="45.035px" viewBox="0 0 53.5 45.035" enable-background="new 0 0 53.5 45.035" xml:space="preserve">
<polygon fill="#167CAB" points="34.494,43.051 18.398,43.051 20.009,37.175 17.953,37.175 15.8,45.035 37.168,45.035 34.785,37.175 
	32.713,37.175 "/>
<path d="M48.542,0H5.055C2.264,0.003,0.003,2.265,0,5.056v27.063c0.001,2.793,2.264,5.055,5.055,5.058h43.487
	c2.791-0.003,5.052-2.264,5.056-5.055V5.058C53.596,2.266,51.334,0.003,48.542,0 M51.615,32.119
	c-0.002,1.697-1.377,3.07-3.072,3.072H5.055c-1.695-0.002-3.07-1.377-3.072-3.072V5.056C1.985,3.36,3.36,1.985,5.055,1.983h43.487
	c1.694,0.001,3.071,1.376,3.071,3.072v27.064H51.615z"/>
<path d="M48.193,30.006H5.38c-0.894-0.001-1.619-0.727-1.62-1.62V5.12C3.761,4.225,4.485,3.5,5.38,3.5h42.813
	c0.895,0.001,1.619,0.726,1.619,1.62v23.267C49.812,29.281,49.087,30.005,48.193,30.006 M5.673,28.09H47.9V5.416H5.675L5.673,28.09z
	"/>
<path fill="#167CAB" d="M26.368,31.113L26.368,31.113c0.786,0,1.422,0.638,1.422,1.422c0,0.785-0.636,1.423-1.422,1.423
	c-0.786,0-1.422-0.638-1.422-1.423S25.582,31.113,26.368,31.113"/>
</svg>
