<?xml version="1.0" encoding="utf-8"?>
<!-- Generator: Adobe Illustrator 25.3.0, SVG Export Plug-In . SVG Version: 6.00 Build 0)  -->
<svg version="1.1" id="Layer_1" xmlns="http://www.w3.org/2000/svg" xmlns:xlink="http://www.w3.org/1999/xlink" x="0px" y="0px"
	 viewBox="0 0 390 371" style="enable-background:new 0 0 390 371;" xml:space="preserve">
<style type="text/css">
	.st0{fill:#58595B;}
	.st1{fill:#417994;}
	.st2{clip-path:url(#SVGID_2_);fill:#417994;}
	.st3{clip-path:url(#SVGID_2_);fill:#FFFFFF;}
	.st4{fill:#FFFFFF;}
	.st5{clip-path:url(#SVGID_4_);fill:#417994;}
</style>
<path class="st0" d="M0,255.5c0-4.4,0.8-8.8,2.4-13.1c1.6-4.4,3.9-8.3,7-11.8c3.1-3.5,6.8-6.3,11.2-8.4c4.4-2.1,9.4-3.2,14.9-3.2
	c6.7,0,12.4,1.5,17.1,4.4c4.7,3,8.3,6.8,10.7,11.5l-9.1,6.1c-1-2.2-2.3-4.1-3.7-5.6c-1.4-1.5-3-2.7-4.7-3.6
	c-1.7-0.9-3.5-1.5-5.4-1.9c-1.9-0.4-3.6-0.6-5.4-0.6c-3.9,0-7.2,0.8-10.1,2.3c-2.9,1.5-5.3,3.6-7.3,6.1c-2,2.5-3.4,5.4-4.4,8.6
	c-1,3.2-1.5,6.3-1.5,9.5c0,3.6,0.6,7,1.8,10.2c1.2,3.2,2.8,6.1,4.9,8.6c2.1,2.5,4.6,4.5,7.5,5.9c2.9,1.5,6,2.2,9.5,2.2
	c1.8,0,3.6-0.2,5.5-0.7c1.9-0.4,3.7-1.2,5.5-2.2c1.8-1,3.4-2.2,4.8-3.8c1.5-1.5,2.7-3.3,3.7-5.5l9.6,5.5c-1.2,2.7-2.8,5.2-4.9,7.3
	c-2.1,2.1-4.5,3.9-7.2,5.3c-2.7,1.4-5.5,2.5-8.5,3.3c-3,0.8-5.9,1.1-8.8,1.1c-5.2,0-9.9-1.1-14.1-3.3c-4.3-2.2-7.9-5.1-11-8.6
	c-3.1-3.5-5.5-7.6-7.2-12.1C0.9,264.8,0,260.2,0,255.5"/>
<polyline class="st0" points="85.5,292.7 85.5,219.5 97,219.5 97,282.4 136.3,282.4 136.3,292.7 85.5,292.7 "/>
<path class="st0" d="M181.8,293.2c-5.2,0-10-1-14.3-3.1c-4.3-2.1-8-4.9-11.1-8.4c-3.1-3.5-5.5-7.4-7.2-11.9c-1.7-4.5-2.5-9-2.5-13.7
	c0-4.9,0.9-9.6,2.7-14c1.8-4.5,4.2-8.4,7.4-11.9c3.1-3.4,6.8-6.2,11.1-8.2c4.3-2,9-3,14.1-3c5.2,0,10,1.1,14.3,3.2
	c4.3,2.2,8,5,11,8.5s5.4,7.5,7.1,11.9c1.7,4.4,2.5,9,2.5,13.6c0,4.9-0.9,9.6-2.6,14c-1.8,4.5-4.2,8.4-7.4,11.8
	c-3.2,3.4-6.9,6.1-11.2,8.1C191.4,292.2,186.8,293.2,181.8,293.2 M158.5,256.1c0,3.4,0.6,6.8,1.6,10c1.1,3.2,2.7,6.1,4.7,8.6
	c2,2.5,4.5,4.5,7.4,5.9c2.9,1.5,6.1,2.2,9.7,2.2c3.7,0,7-0.8,9.8-2.3c2.9-1.5,5.3-3.6,7.3-6.1c2-2.5,3.5-5.4,4.5-8.6
	c1-3.2,1.5-6.4,1.5-9.7c0-3.5-0.6-6.9-1.6-10.1c-1.1-3.2-2.7-6-4.7-8.5c-2-2.4-4.5-4.4-7.3-5.9c-2.9-1.5-6-2.2-9.5-2.2
	c-3.7,0-7,0.8-9.9,2.3c-2.9,1.5-5.3,3.6-7.3,6c-2,2.5-3.5,5.3-4.6,8.5C159,249.5,158.5,252.8,158.5,256.1z"/>
<path class="st0" d="M269.7,282.8c3.8,0,7-0.8,9.6-2.3c2.5-1.5,4.6-3.5,6.1-5.9c1.5-2.4,2.6-5.2,3.3-8.4c0.7-3.1,1-6.3,1-9.6v-37.1
	h11.6v37.1c0,5-0.6,9.7-1.8,14.2c-1.2,4.4-3,8.3-5.6,11.7c-2.5,3.3-5.8,6-9.8,7.9c-4,1.9-8.9,2.9-14.5,2.9c-5.8,0-10.8-1-14.8-3
	c-4-2-7.3-4.7-9.7-8.1c-2.5-3.4-4.3-7.3-5.4-11.7c-1.1-4.4-1.7-9-1.7-13.7v-37.1h11.5v37.1c0,3.4,0.3,6.6,1,9.7
	c0.7,3.1,1.8,5.9,3.3,8.4c1.5,2.4,3.6,4.4,6.2,5.9C262.8,282,265.9,282.8,269.7,282.8"/>
<path class="st0" d="M327,292.7v-73.2h26c5.9,0,11.1,1,15.5,2.9c4.4,1.9,8.1,4.5,11.1,7.8c3,3.3,5.2,7.2,6.8,11.6
	c1.5,4.4,2.3,9.2,2.3,14.2c0,5.6-0.8,10.6-2.5,15.1c-1.7,4.5-4.1,8.4-7.2,11.5c-3.1,3.2-6.8,5.7-11.2,7.4c-4.4,1.8-9.3,2.6-14.7,2.6
	H327 M376.9,256c0-3.8-0.5-7.4-1.6-10.6c-1.1-3.2-2.6-6-4.7-8.3c-2.1-2.3-4.6-4.1-7.5-5.4c-3-1.3-6.3-2-10.1-2h-14.4v52.8H353
	c3.8,0,7.3-0.7,10.3-2c3-1.3,5.5-3.2,7.5-5.6c2-2.4,3.6-5.2,4.6-8.4C376.4,263.2,376.9,259.7,376.9,256z"/>
<polyline class="st1" points="173,370.6 173,317.3 181.4,317.3 181.4,363.2 210,363.2 210,370.6 173,370.6 "/>
<polyline class="st0" points="250.3,324.8 232.6,324.8 232.6,370.6 224.1,370.6 224.1,324.8 206.3,324.8 206.3,317.3 250.3,317.3 
	250.3,324.8 "/>
<rect x="260.6" y="317.3" class="st0" width="8.4" height="53.3"/>
<polyline class="st0" points="328.9,370.6 328.9,332.3 313.1,361.3 308.5,361.3 292.5,332.3 292.5,370.6 284.1,370.6 284.1,317.3 
	293.1,317.3 310.8,349.9 328.4,317.3 337.4,317.3 337.4,370.6 328.9,370.6 "/>
<polyline class="st0" points="389.1,363.2 389.1,370.6 352.6,370.6 352.6,317.3 388.5,317.3 388.5,324.8 361,324.8 361,339.9 
	384.8,339.9 384.8,346.9 361,346.9 361,363.2 389.1,363.2 "/>
<g>
	<defs>
		<rect id="SVGID_1_" y="0.9" width="389.1" height="370"/>
	</defs>
	<clipPath id="SVGID_2_">
		<use xlink:href="#SVGID_1_"  style="overflow:visible;"/>
	</clipPath>
	<path class="st2" d="M306.2,94.6C304,69.9,283.3,50.5,258,50.5c-26.7,0-48.4,21.7-48.4,48.4c0,11,3.7,21.1,9.8,29.2h-39.2
		c6.2-8.1,9.8-18.2,9.8-29.2c0-26.7-21.7-48.4-48.4-48.4c-24.9,0-45.4,18.8-48.1,43C73.1,99.1,58,117.9,58,140.2
		c0,26.7,21.7,48.4,48.4,48.4H290c26.7,0,48.4-21.7,48.4-48.4C338.4,119.2,324.9,101.3,306.2,94.6"/>
	<path class="st3" d="M190.8,168.5c-5.9,0-10.7-4.8-10.7-10.7v-3.2c-5-1.5-9.9-3.5-14.5-6l-2.3,2.3c-2,2-4.7,3.1-7.6,3.1
		c-2.9,0-5.6-1.1-7.6-3.1l-13.7-13.7c-2-2-3.1-4.7-3.1-7.6s1.1-5.6,3.1-7.6l2.3-2.3c-2.5-4.6-4.5-9.4-6-14.5h-3.3
		c-5.9,0-10.7-4.8-10.7-10.7V75c0-5.9,4.8-10.7,10.7-10.7h3.4c1.5-5,3.5-9.8,6-14.4l-2.4-2.4c-2-2-3.1-4.7-3.1-7.6
		c0-2.9,1.1-5.6,3.1-7.6l13.7-13.7c2-2,4.7-3.1,7.6-3.1c2.9,0,5.6,1.1,7.6,3.1l2.5,2.5c4.6-2.5,9.3-4.5,14.3-5.9v-3.5
		c0-5.9,4.8-10.7,10.7-10.7h19.4c5.9,0,10.7,4.8,10.7,10.7v3.5c5,1.5,9.8,3.4,14.3,5.9l2.5-2.5c2-2,4.7-3.1,7.6-3.1
		c2.9,0,5.6,1.1,7.6,3.1l13.7,13.7c2,2,3.1,4.7,3.1,7.6c0,2.9-1.1,5.6-3.1,7.6l-2.4,2.4c2.5,4.6,4.5,9.4,6,14.4h3.4
		c5.9,0,10.7,4.8,10.7,10.7v19.4c0,5.9-4.8,10.7-10.7,10.7h-3.3c-1.5,5-3.5,9.9-6,14.5l2.3,2.3c2,2,3.1,4.7,3.1,7.6
		s-1.1,5.6-3.1,7.6l-13.7,13.7c-2,2-4.7,3.1-7.6,3.1c-2.9,0-5.6-1.1-7.6-3.1l-2.3-2.3c-4.6,2.5-9.5,4.6-14.5,6v3.2
		c0,5.9-4.8,10.7-10.7,10.7H190.8 M200.5,45.3c-21.8,0-39.6,17.8-39.6,39.6c0,21.8,17.8,39.6,39.6,39.6s39.6-17.8,39.6-39.6
		C240.1,63.1,222.4,45.3,200.5,45.3z"/>
</g>
<path class="st4" d="M273.6,70.2h-7.9c-1.7-7.6-4.8-14.8-8.9-21.2l5.7-5.7c1.9-1.9,1.9-5,0-6.8l-13.7-13.7c-1.9-1.9-5-1.9-6.8,0
	l-5.7,5.7c-6.4-4.1-13.5-7.1-21.2-8.8v-8c0-2.7-2.2-4.8-4.8-4.8h-19.4c-2.7,0-4.8,2.2-4.8,4.8v8c-7.6,1.7-14.8,4.7-21.2,8.8
	l-5.7-5.7c-1.9-1.9-5-1.9-6.8,0l-13.7,13.7c-1.9,1.9-1.9,5,0,6.8l5.7,5.7c-4.1,6.4-7.1,13.6-8.9,21.2h-7.9c-2.7,0-4.8,2.2-4.8,4.8
	v19.4c0,2.7,2.2,4.8,4.8,4.8h7.8c1.7,7.7,4.7,14.9,8.8,21.3l-5.5,5.5c-1.9,1.9-1.9,5,0,6.8l13.7,13.7c1.9,1.9,5,1.9,6.8,0l5.5-5.5
	c6.5,4.1,13.7,7.2,21.4,8.9v7.7c0,2.7,2.2,4.8,4.8,4.8h19.4c2.7,0,4.8-2.2,4.8-4.8V150c7.7-1.7,14.9-4.8,21.4-8.9l5.5,5.5
	c1.9,1.9,5,1.9,6.8,0l13.7-13.7c1.9-1.9,1.9-5,0-6.8l-5.5-5.5c4.1-6.4,7.1-13.6,8.8-21.3h7.8c2.7,0,4.8-2.2,4.8-4.8V75
	C278.4,72.4,276.2,70.2,273.6,70.2 M200.5,130.4c-25.1,0-45.5-20.4-45.5-45.5c0-25.1,20.4-45.5,45.5-45.5S246,59.8,246,84.9
	C246,110,225.6,130.4,200.5,130.4z"/>
<path class="st0" d="M273.6,70.2h-7.9c-1.7-7.6-4.8-14.8-8.9-21.2l5.7-5.7c1.9-1.9,1.9-5,0-6.8l-13.7-13.7c-1.9-1.9-5-1.9-6.8,0
	l-5.7,5.7c-6.4-4.1-13.5-7.1-21.2-8.8v-8c0-2.7-2.2-4.8-4.8-4.8h-19.4c-2.7,0-4.8,2.2-4.8,4.8v8c-7.6,1.7-14.8,4.7-21.2,8.8
	l-5.7-5.7c-1.9-1.9-5-1.9-6.8,0l-13.7,13.7c-1.9,1.9-1.9,5,0,6.8l5.7,5.7c-4.1,6.4-7.1,13.6-8.9,21.2h-7.9c-2.7,0-4.8,2.2-4.8,4.8
	v19.4c0,2.7,2.2,4.8,4.8,4.8h7.8c1.7,7.7,4.7,14.9,8.8,21.3l-5.5,5.5c-1.9,1.9-1.9,5,0,6.8l13.7,13.7c1.9,1.9,5,1.9,6.8,0l5.5-5.5
	c6.5,4.1,13.7,7.2,21.4,8.9v7.7c0,2.7,2.2,4.8,4.8,4.8h19.4c2.7,0,4.8-2.2,4.8-4.8V150c7.7-1.7,14.9-4.8,21.4-8.9l5.5,5.5
	c1.9,1.9,5,1.9,6.8,0l13.7-13.7c1.9-1.9,1.9-5,0-6.8l-5.5-5.5c4.1-6.4,7.1-13.6,8.8-21.3h7.8c2.7,0,4.8-2.2,4.8-4.8V75
	C278.4,72.4,276.2,70.2,273.6,70.2 M200.5,130.4c-25.1,0-45.5-20.4-45.5-45.5c0-25.1,20.4-45.5,45.5-45.5S246,59.8,246,84.9
	C246,110,225.6,130.4,200.5,130.4z"/>
<path class="st1" d="M240.1,84.9c0-21.9-17.7-39.6-39.6-39.6S160.9,63,160.9,84.9c0,21.9,17.7,39.6,39.6,39.6
	S240.1,106.8,240.1,84.9"/>
<g>
	<defs>
		<polyline id="SVGID_3_" points="389.6,370.5 0.4,370.5 0.4,0.5 		"/>
	</defs>
	<clipPath id="SVGID_4_">
		<use xlink:href="#SVGID_3_"  style="overflow:visible;"/>
	</clipPath>
	<polyline class="st5" points="46.5,324.3 28.7,324.3 28.7,370.2 20.3,370.2 20.3,324.3 2.5,324.3 2.5,316.9 46.5,316.9 46.5,324.3 
			"/>
	<path class="st5" d="M76.4,370.6c-3.8,0-7.3-0.8-10.4-2.3c-3.1-1.5-5.8-3.6-8.1-6.1c-2.3-2.5-4-5.4-5.2-8.7
		c-1.2-3.3-1.8-6.6-1.8-10c0-3.6,0.6-7,2-10.2c1.3-3.3,3.1-6.1,5.4-8.6c2.3-2.5,5-4.5,8.1-6c3.1-1.5,6.5-2.2,10.2-2.2
		c3.8,0,7.3,0.8,10.4,2.4c3.1,1.6,5.8,3.6,8,6.2c2.2,2.6,4,5.4,5.2,8.7c1.2,3.2,1.8,6.5,1.8,9.9c0,3.6-0.6,7-1.9,10.2
		c-1.3,3.3-3.1,6.1-5.4,8.6c-2.3,2.5-5,4.5-8.1,5.9C83.4,369.8,80.1,370.6,76.4,370.6 M92.2,350.6c0.8-2.3,1.1-4.7,1.1-7.1
		c0-2.6-0.4-5-1.2-7.3c-0.8-2.3-1.9-4.4-3.4-6.2c-1.5-1.8-3.3-3.2-5.3-4.3c-2.1-1.1-4.4-1.6-6.9-1.6c-2.7,0-5.1,0.6-7.2,1.7
		c-2.1,1.1-3.9,2.6-5.3,4.4c-1.5,1.8-2.6,3.9-3.3,6.2c-0.8,2.3-1.2,4.7-1.2,7.1c0,2.5,0.4,4.9,1.2,7.3c0.8,2.4,1.9,4.4,3.4,6.2
		c1.5,1.8,3.3,3.2,5.4,4.3c2.1,1.1,4.5,1.6,7.1,1.6c2.7,0,5.1-0.6,7.2-1.7"/>
	<path class="st5" d="M136,370.6c-3.8,0-7.3-0.8-10.4-2.3c-3.1-1.5-5.8-3.6-8.1-6.1c-2.3-2.5-4-5.4-5.2-8.7c-1.2-3.3-1.8-6.6-1.8-10
		c0-3.6,0.7-7,2-10.2c1.3-3.3,3.1-6.1,5.4-8.6c2.3-2.5,5-4.5,8.1-6c3.1-1.5,6.5-2.2,10.2-2.2c3.8,0,7.3,0.8,10.4,2.4
		c3.1,1.6,5.8,3.6,8,6.2c2.2,2.6,4,5.4,5.2,8.7c1.2,3.2,1.8,6.5,1.8,9.9c0,3.6-0.6,7-1.9,10.2c-1.3,3.3-3.1,6.1-5.4,8.6
		c-2.3,2.5-5,4.5-8.1,5.9C143.1,369.8,139.7,370.6,136,370.6 M119,343.5c0,2.5,0.4,4.9,1.2,7.3c0.8,2.4,1.9,4.4,3.4,6.2
		c1.5,1.8,3.3,3.2,5.4,4.3c2.1,1.1,4.5,1.6,7.1,1.6c2.7,0,5.1-0.6,7.2-1.7c2.1-1.1,3.8-2.6,5.3-4.5c1.4-1.9,2.6-3.9,3.3-6.2
		c0.8-2.3,1.1-4.7,1.1-7.1c0-2.6-0.4-5-1.2-7.3c-0.8-2.3-1.9-4.4-3.4-6.2c-1.5-1.8-3.3-3.2-5.3-4.3c-2.1-1.1-4.4-1.6-6.9-1.6
		c-2.7,0-5.1,0.6-7.2,1.7c-2.1,1.1-3.9,2.6-5.3,4.4c-1.5,1.8-2.6,3.9-3.3,6.2C119.4,338.8,119,341.1,119,343.5z"/>
</g>
</svg>
