<?xml version="1.0" encoding="utf-8"?>
<!-- Generator: Adobe Illustrator 16.0.4, SVG Export Plug-In . SVG Version: 6.00 Build 0)  -->
<!DOCTYPE svg PUBLIC "-//W3C//DTD SVG 1.1//EN" "http://www.w3.org/Graphics/SVG/1.1/DTD/svg11.dtd">
<svg version="1.1" id="Layer_1" xmlns="http://www.w3.org/2000/svg" xmlns:xlink="http://www.w3.org/1999/xlink" x="0px" y="0px"
	 width="53.5px" height="53.5px" viewBox="0 0 53.5 53.5" enable-background="new 0 0 53.5 53.5" xml:space="preserve">
<path d="M49.154,29.806V10.531c-0.005-3.715-3.015-6.725-6.729-6.73h-1.616v2.363h1.616c2.407,0.005,4.357,1.955,4.362,4.363v3.571
	H2.473v-3.571C2.477,8.12,4.428,6.169,6.835,6.165h4.231v1.979H9.976c-0.653,0.017-1.167,0.56-1.15,1.212
	c0.016,0.629,0.522,1.135,1.15,1.151h4.548c0.653,0.017,1.196-0.499,1.213-1.151c0.017-0.652-0.499-1.195-1.151-1.212
	c-0.02-0.001-0.041-0.001-0.062,0h-1.093V1.182C13.431,0.529,12.902,0,12.249,0c-0.653,0-1.182,0.529-1.182,1.182v2.617H6.839
	c-3.715,0.005-6.725,3.016-6.73,6.73v31.784c0.004,3.716,3.015,6.726,6.73,6.73h23.075c5.172,5.452,13.784,5.678,19.235,0.505
	c5.451-5.171,5.678-13.784,0.506-19.234c-0.066-0.07-0.134-0.141-0.202-0.209C49.355,30.003,49.255,29.905,49.154,29.806
	 M46.791,27.964c-6.403-3.935-14.783-1.932-18.718,4.47c-2.685,4.371-2.685,9.878,0,14.248H6.839
	c-2.407-0.005-4.357-1.955-4.363-4.362V16.466h44.317 M39.677,50.818c-6.215,0-11.251-5.037-11.251-11.251
	c0-6.216,5.036-11.253,11.251-11.253s11.252,5.037,11.252,11.253C50.929,45.781,45.892,50.818,39.677,50.818h-0.004H39.677z
	 M35.834,8.143V6.165H16.05V3.801h19.782V1.182c0.017-0.653,0.56-1.167,1.213-1.151c0.628,0.017,1.135,0.522,1.15,1.151v6.96h1.092
	c0.653-0.017,1.196,0.499,1.214,1.151c0.016,0.653-0.499,1.196-1.152,1.212c-0.021,0.001-0.041,0.001-0.062,0h-4.548
	c-0.653-0.017-1.167-0.56-1.15-1.212c0.017-0.629,0.522-1.135,1.15-1.151L35.834,8.143z"/>
<polygon fill="#167CAB" points="44.772,34.209 46.447,35.88 37.397,44.924 32.903,40.43 34.574,38.758 37.397,41.582 "/>
</svg>
