<?xml version="1.0" encoding="utf-8"?>
<!-- Generator: Adobe Illustrator 16.0.4, SVG Export Plug-In . SVG Version: 6.00 Build 0)  -->
<!DOCTYPE svg PUBLIC "-//W3C//DTD SVG 1.1//EN" "http://www.w3.org/Graphics/SVG/1.1/DTD/svg11.dtd">
<svg version="1.1" id="Layer_1" xmlns="http://www.w3.org/2000/svg" xmlns:xlink="http://www.w3.org/1999/xlink" x="0px" y="0px"
	 width="53.5px" height="53.5px" viewBox="0 0 53.5 53.5" enable-background="new 0 0 53.5 53.5" xml:space="preserve">
<path d="M10.689,50.868c-4.02-0.003-7.278-3.262-7.283-7.282V28.351h8.157v-2.585H0.819v17.82c0.006,5.447,4.421,9.862,9.869,9.868
	h0.875v-2.586H10.689z"/>
<path d="M11.564,0.081v25.685h2.586V2.667h35.942v41.601c-0.004,3.644-2.956,6.597-6.601,6.6H24.793v2.586h18.699
	c5.073-0.004,9.185-4.114,9.188-9.188V0.081H11.564z"/>
<rect x="11.565" y="28.351" width="2.586" height="22.517"/>
<polygon points="22.208,50.868 11.564,50.868 11.564,53.454 24.793,53.454 24.793,50.868 "/>
<rect x="11.565" y="25.766" width="2.586" height="2.585"/>
<rect x="17.416" y="7.342" fill="#167CAB" width="29.673" height="2.586"/>
<rect x="17.416" y="30.862" fill="#167CAB" width="29.673" height="2.586"/>
<rect x="17.416" y="36.729" fill="#167CAB" width="29.673" height="2.586"/>
<rect x="17.416" y="43.016" fill="#167CAB" width="29.673" height="2.586"/>
<rect x="17.416" y="13.046" fill="#167CAB" width="11.07" height="2.413"/>
<rect x="17.416" y="19.063" fill="#167CAB" width="11.07" height="2.413"/>
<rect x="17.416" y="25.08" fill="#167CAB" width="11.07" height="2.412"/>
<path fill="#167CAB" d="M46.933,27.629H31.556V13.16h15.377V27.629z M34.241,24.942h10.006v-9.095H34.241V24.942z"/>
</svg>
