<?xml version="1.0" encoding="utf-8"?>
<!-- Generator: Adobe Illustrator 16.0.4, SVG Export Plug-In . SVG Version: 6.00 Build 0)  -->
<!DOCTYPE svg PUBLIC "-//W3C//DTD SVG 1.1//EN" "http://www.w3.org/Graphics/SVG/1.1/DTD/svg11.dtd">
<svg version="1.1" id="Layer_1" xmlns="http://www.w3.org/2000/svg" xmlns:xlink="http://www.w3.org/1999/xlink" x="0px" y="0px"
	 width="53.5px" height="36.977px" viewBox="0 0 53.5 36.977" enable-background="new 0 0 53.5 36.977" xml:space="preserve">
<path d="M48.284,36.977H5.029C2.253,36.973,0.003,34.723,0,31.947V5.028C0.003,2.252,2.253,0.003,5.029,0h43.254
	c2.775,0.003,5.025,2.252,5.029,5.028v26.919C53.311,34.725,51.059,36.973,48.284,36.977 M5.029,1.973
	C3.342,1.974,1.975,3.341,1.974,5.028v26.919c0.001,1.688,1.369,3.055,3.056,3.057h43.254c1.688-0.002,3.055-1.369,3.056-3.057
	V5.028c-0.001-1.687-1.367-3.054-3.056-3.056L5.029,1.973L5.029,1.973z"/>
<rect x="10.313" y="0.986" width="1.973" height="35.003"/>
<rect x="0.987" y="11.266" width="10.312" height="1.973"/>
<rect x="0.987" y="23.224" width="10.312" height="1.973"/>
<rect x="41.027" y="0.986" width="1.975" height="35.003"/>
<rect x="42.016" y="11.266" width="10.311" height="1.973"/>
<rect x="42.016" y="23.224" width="10.311" height="1.973"/>
<polygon fill="#167CAB" points="22.985,11.871 22.985,24.21 33.102,18.04 "/>
</svg>
