<?xml version="1.0" encoding="UTF-8"?>
<svg width="300px" height="92px" viewBox="0 0 300 92" version="1.1" xmlns="http://www.w3.org/2000/svg" xmlns:xlink="http://www.w3.org/1999/xlink" xmlns:sketch="http://www.bohemiancoding.com/sketch/ns">
    <!-- Generator: Sketch 3.3.3 (12072) - http://www.bohemiancoding.com/sketch -->
    <title>Imported Layers</title>
    <desc>Created with Sketch.</desc>
    <defs></defs>
    <g id="Page-1" stroke="none" stroke-width="1" fill="none" fill-rule="evenodd" sketch:type="MSPage">
        <path d="M181.378,2.28168812 L201.479,2.28168812 L201.479,10.2846881 C206.602,3.71168812 214.505,-0.0853118839 222.837,0.0246881161 C232.044,-0.122311884 240.607,4.73268812 245.21,12.7066881 C252.388,2.44668812 263.27,0.0246881161 270.854,0.0246881161 C281.318,0.0246881161 290.552,4.94568812 295.485,13.5696881 C297.121,16.4486881 300,22.8026881 300,35.3206881 L300,88.6776881 L279.884,88.6776881 L279.884,41.0656881 C279.884,31.4276881 278.857,27.5206881 278.033,25.6816881 C276.764,22.3966881 273.721,18.0726881 266.542,18.0726881 C261.787,18.1586881 257.36,20.5156881 254.634,24.4136881 C251.145,29.3346881 250.739,36.7286881 250.739,44.1096881 L250.739,88.6776881 L230.625,88.6776881 L230.625,41.0656881 C230.625,31.4276881 229.597,27.5206881 228.772,25.6816881 C227.505,22.3966881 224.461,18.0726881 217.282,18.0726881 C212.53,18.1606881 208.108,20.5176881 205.385,24.4136881 C201.898,29.3346881 201.479,36.7286881 201.479,44.1096881 L201.479,88.6776881 L181.378,88.6776881 L181.378,2.28168812 L181.378,2.28168812 Z M111.748,2.28168812 L131.863,2.28168812 L131.863,10.0816881 C134.266,7.25668812 137.105,4.83268812 140.272,2.90368812 C144.031,0.822688116 148.295,-0.173311884 152.587,0.0246881161 C158.135,-0.102311884 163.607,1.32068812 168.389,4.13368812 L160.134,22.3966881 C157.099,20.3646881 153.524,19.2906881 149.873,19.3146881 C145.561,19.3146881 141.249,19.9236881 137.355,24.0336881 C131.813,29.9816881 131.813,38.1866881 131.813,43.9326881 L131.813,88.6776881 L111.761,88.6776881 L111.748,2.28168812 L111.748,2.28168812 Z M20.495,45.7846881 C20.495,60.7626881 29.931,73.2806881 44.504,73.2806881 C57.187,73.2806881 68.918,64.0476881 68.918,45.9866881 C68.918,27.1016881 57.225,18.0846881 44.504,18.0846881 C29.931,18.0846881 20.495,30.3996881 20.495,45.7846881 L20.495,45.7846881 Z M67.688,2.28168812 L87.841,2.28168812 L87.841,88.6776881 L67.701,88.6776881 L67.701,79.6476881 C61.27,87.2176881 51.785,91.5086881 41.853,91.3406881 C15.219,91.3406881 0,69.1846881 0,45.3786881 C0,17.2606881 19.29,0.0246881161 42.069,0.0246881161 C52.094,-0.189311884 61.622,4.38368812 67.726,12.3396881 L67.688,2.28168812 L67.688,2.28168812 Z" id="Imported-Layers" fill="#000000" sketch:type="MSShapeGroup"></path>
    </g>
</svg>