<?xml version="1.0" encoding="utf-8"?>
<!-- Generator: Adobe Illustrator 24.0.3, SVG Export Plug-In . SVG Version: 6.00 Build 0)  -->
<svg version="1.1" id="Layer_1" xmlns="http://www.w3.org/2000/svg" xmlns:xlink="http://www.w3.org/1999/xlink" x="0px" y="0px"
	 viewBox="0 0 268.5 223" style="enable-background:new 0 0 268.5 223;" xml:space="preserve">
<style type="text/css">
	.st0{fill:none;}
</style>
<g>
	<rect x="-63.4" y="-64.6" class="st0" width="395.2" height="352.4"/>
	<g>
		<g>
			<path d="M245.5,148.8c-4.3,0-7.2-3-7.2-7.4s3-7.4,7.2-7.4c4.3,0,7.2,3,7.2,7.4C252.7,145.8,249.7,148.8,245.5,148.8z
				 M245.5,134.8c-3.4,0-6.2,2.3-6.2,6.5c0,4.2,2.8,6.5,6.2,6.5c3.5,0,6.2-2.3,6.2-6.5C251.7,137.2,248.9,134.8,245.5,134.8z
				 M247.7,145.3l-2.5-3.5h-0.8v3.4H243V137h2.5c1.7,0,2.9,0.8,2.9,2.4c0,1.2-0.7,1.9-1.7,2.2l2.3,3.3L247.7,145.3z M245.5,138.3
				h-1.1v2.4h1c0.9,0,1.5-0.4,1.5-1.2C246.9,138.7,246.4,138.3,245.5,138.3z"/>
		</g>
	</g>
</g>
<g>
	<g>
		<g>
			<path d="M12,182.7v-8.1h5.8v8.1h4.7v4.7h-4.7v13.8c0,1.3,0.6,1.7,2.1,1.7c0.9,0,1.8-0.3,2.6-0.5v4.8c-1.6,0.2-3,0.4-4.6,0.4
				c-4.3,0-5.9-2.2-5.9-5.6v-14.5H8.6v-4.7H12z"/>
			<path d="M31,195.8c0.1,5,2.3,7,5,7c2.7,0,3.9-1.2,5.4-2.9l4.2,2.6c-2.2,3.5-5.5,5-10.1,5c-6.3,0-10.2-4.9-10.2-12.6
				c0-7.7,3.9-12.6,10.5-12.6c6.3,0,9.9,5.3,9.9,11.2v2.4H31z M40.3,191.8c-0.1-3.4-1.9-5.3-4.6-5.3c-2.8,0-4.5,2-4.6,5.3H40.3z"/>
			<path d="M64.3,190.5c-0.9-2.1-1.9-3.7-4.8-3.7c-3.2,0-4.7,2.5-4.7,8c0,5.4,1.5,7.9,4.9,7.9c2.5,0,3.9-1.7,5.1-3.9l4.4,2.5
				c-2.3,4.3-5.3,6.1-9.7,6.1c-6.5,0-10.5-4.9-10.5-12.6c0-7.7,3.9-12.6,10.5-12.6c4.6,0,8.2,2.4,9.5,6.5L64.3,190.5z"/>
			<path d="M73.5,207v-33.8h5.8v12.1c1.8-1.5,4.1-3.1,6.9-3.1c4.8,0,7.2,3.2,7.2,8.1V207h-5.8v-15.8c0-3.3-1-4.3-3-4.3
				c-2.5,0-4.4,1.5-5.4,2.6V207H73.5z"/>
			<path d="M99.3,207v-24.3h5.3v2.6c2.1-1.5,4.6-3.1,7.4-3.1c4.8,0,7.1,3.2,7.1,8.1V207h-5.7v-15.8c0-3.3-1-4.3-3-4.3
				c-2.5,0-4.4,1.5-5.4,2.6V207H99.3z"/>
			<path d="M133.8,182.2c6.6,0,10.5,4.9,10.5,12.6c0,7.7-3.9,12.6-10.5,12.6c-6.6,0-10.5-4.9-10.5-12.6
				C123.3,187.1,127.2,182.2,133.8,182.2z M133.8,186.8c-3.2,0-4.7,2.5-4.7,8c0,5.4,1.5,7.9,4.7,7.9c3.2,0,4.7-2.5,4.7-7.9
				C138.5,189.4,137,186.8,133.8,186.8z"/>
			<path d="M149,207v-33.8h5.7v25.3v8.5H149z"/>
			<path d="M169.9,182.2c6.6,0,10.5,4.9,10.5,12.6c0,7.7-3.9,12.6-10.5,12.6c-6.6,0-10.5-4.9-10.5-12.6
				C159.4,187.1,163.3,182.2,169.9,182.2z M169.9,186.8c-3.2,0-4.7,2.5-4.7,8c0,5.4,1.5,7.9,4.7,7.9c3.2,0,4.7-2.5,4.7-7.9
				C174.6,189.4,173.1,186.8,169.9,186.8z"/>
			<path d="M204.1,186.1c-1.3,0-2.8,0-3.7,0.6c0.8,1,1.3,2.4,1.3,4.3c0,4.6-3.1,7.9-9.1,7.9c-2.5,0-4.5,0.1-4.5,1.5
				c0,3.9,15.9-1.4,15.9,8.3c0,3.5-3.5,7.2-11.2,7.2c-6.5,0-10.8-2-10.8-5.8c0-3,2.3-4.5,4.3-4.5v-0.1c-1.1-0.7-3.6-1.3-3.6-3.9
				c0-2.3,2.7-4.1,3.8-4.4c-2-1.6-3.6-3.5-3.6-6.4c0-4.3,3.2-8.5,9.5-8.5c2,0,4.5,0.9,5.9,2.2c1.1-1.5,2.9-2.3,5.7-2.2V186.1z
				 M187.3,209.3c0,1.8,1.6,2.7,6.4,2.7c3.7,0,5-1.9,5-2.7c0-1.1-1.7-2.8-7.3-2.8C188.3,206.5,187.3,208.3,187.3,209.3z
				 M192.5,186.5c-2.5,0-4.2,1.8-4.2,4c0,2.2,1.7,4,4.2,4c2.2,0,3.9-1.8,3.9-4C196.4,188.3,194.7,186.5,192.5,186.5z"/>
			<path d="M208.3,178.2v-5.4h5.7v2.4v3H208.3z M214,199.8v7.2h-5.7v-24.3h5.7V199.8z"/>
			<path d="M224.5,195.8c0.1,5,2.3,7,5,7c2.7,0,3.9-1.2,5.4-2.9l4.2,2.6c-2.2,3.5-5.5,5-10.1,5c-6.3,0-10.2-4.9-10.2-12.6
				c0-7.7,3.9-12.6,10.5-12.6c6.3,0,9.9,5.3,9.9,11.2v2.4H224.5z M233.8,191.8c-0.1-3.4-1.9-5.3-4.7-5.3c-2.8,0-4.6,2-4.6,5.3H233.8
				z"/>
			<path d="M255.5,189c-1.2-1.3-2.7-2.6-4.5-2.6c-2.2,0-3.2,0.9-3.2,2.4c0,4.2,12.1,2.4,12.1,11.3c0,5-3.8,7.3-8.9,7.3
				c-3.8,0-7-1.7-9.1-4.9l3.9-2.9c1.3,1.9,3.1,3.5,5.6,3.5c2,0,3.4-1.1,3.4-2.8c0-4.1-12.1-2.6-12.1-11.1c0-4.5,3.8-7.1,8-7.1
				c3.2,0,6.4,1.2,8.5,3.7L255.5,189z"/>
		</g>
		<g>
			<g>
				<g>
					<g>
						<path d="M183,113.8c-4.6,7.1-12,11.5-20.2,11.5c-11.2,0-20.5-5.1-20.5-17.2c0-17.9,26.1-24.2,46.1-25.4v5.3
							C188.5,99.5,188.3,105.8,183,113.8z M145.9,49.5c3-8.1,11.1-11.6,22.1-11.6c15.7,0,20.2,11,20.4,20.1l0.1,4.4
							c-43.4,2.1-84.2,10.2-83.4,49.9c0.6,27.8,25.7,39.2,43,39.1c20.1,0,31.3-5.4,42.4-19.1c0.2,5.8,0.9,11.9,1.9,16.4h38.9
							c-2.2-6.8-2.7-13.6-2.7-20.7V55.9c0-17.5-3.3-27.3-12.7-35.8c-8.9-8.1-23.4-12.6-43.1-12.6c-18,0-33.5,4.1-44.9,11.9l0,0
							C137.2,26.8,143.4,37.1,145.9,49.5L145.9,49.5z"/>
						<g>
							<path d="M102.8,110.8c0,0.8,0,1.6,0,2.5c0,0.4,0,0.8,0,1.1c0.6,14.2,7.5,23,13.9,28.3l0,0c-10.8,6.2-23.6,8.8-35.1,8.8
								c-42,0-66.8-29.7-66.8-70.6c0-42.6,25.6-73.4,69.3-73.4c31.7,0,57.7,16.8,60.5,49.7h-38.1c0-12.5-8.8-19.2-21.1-19.2
								c-19.7,0-25.8,13.9-25.8,39.5c0,26,5.7,41.2,25.9,41.2C93,118.7,99.3,116.1,102.8,110.8L102.8,110.8z"/>
						</g>
					</g>
				</g>
			</g>
		</g>
	</g>
</g>
</svg>
