<?xml version="1.0" encoding="utf-8"?>
<!-- Generator: Adobe Illustrator 24.0.3, SVG Export Plug-In . SVG Version: 6.00 Build 0)  -->
<svg version="1.1" id="Layer_1" xmlns="http://www.w3.org/2000/svg" xmlns:xlink="http://www.w3.org/1999/xlink" x="0px" y="0px"
	 viewBox="0 0 163.6 72" style="enable-background:new 0 0 163.6 72;" xml:space="preserve">
<style type="text/css">
	.st0{fill:#2870B8;}
</style>
<g>
	<path class="st0" d="M71.7,4.3c0.8,0.1,1.5,0.2,2.3,0.3c2.8,0.6,5.2,1.9,7.3,3.6c0,0,0.1,0.1,0.2,0.2c-0.3,0-0.4,0-0.6,0
		c-14,0-27.9,0-41.9,0c-0.7,0-0.7,0-0.7-0.7c0-1.2,0-2.3,0-3.5C49.5,4.3,60.6,4.3,71.7,4.3z"/>
	<path class="st0" d="M38.4,67c0-1.2,0-2.4,0-3.6c0-0.4,0.1-0.6,0.6-0.6c14,0,28,0,42.1,0c0.1,0,0.3,0,0.4,0c0,0.1,0.1,0.1,0.1,0.2
		c-0.1,0.1-0.3,0.1-0.4,0.2c-2.2,1.7-4.7,3-7.4,3.5c-0.7,0.1-1.3,0.2-2,0.3C60.6,67,49.5,67,38.4,67z"/>
	<path class="st0" d="M34,4.3c0,1.2,0,2.3,0,3.5c0,0.7,0,0.7-0.7,0.7c-9.6,0-19.3,0-28.9,0c-0.3,0-0.5,0-0.8,0c0-1.4,0-2.8,0-4.2
		C13.7,4.3,23.8,4.3,34,4.3z"/>
	<path class="st0" d="M3.8,67c0-1.2,0-2.4,0-3.6c0-0.4,0.1-0.6,0.6-0.6c9.7,0,19.5,0,29.2,0c0.4,0,0.6,0.1,0.6,0.6
		c0,1.2,0,2.4,0,3.6C24.1,67,13.9,67,3.8,67z"/>
	<path class="st0" d="M3.5,12.7c0.3,0,0.5,0,0.8,0c9.6,0,19.3,0,28.9,0c0.7,0,0.7,0,0.7,0.7c0,1,0,1.9,0,2.9c0,0.4-0.1,0.5-0.5,0.5
		c-0.1,0-0.1,0-0.2,0c-9.8,0-19.6,0-29.4,0c-0.1,0-0.3,0-0.4,0C3.5,15.4,3.5,14.1,3.5,12.7z"/>
	<path class="st0" d="M115.1,4.3c0.1,0.2,0.1,0.5,0.2,0.7c0.4,1.1,0.8,2.2,1.2,3.4c-0.2,0-0.4,0-0.6,0c-8.3,0-16.6,0-24.8,0
		c-0.7,0-0.7,0-0.7-0.7c0-1.2,0-2.3,0-3.5C98.7,4.3,106.9,4.3,115.1,4.3z"/>
	<path class="st0" d="M160,4.3c0,1.2,0,2.4,0,3.6c0,0.4-0.1,0.6-0.6,0.6c-8.2,0-16.5,0-24.7,0c-0.1,0-0.3,0-0.5,0
		c0.5-1.4,1-2.8,1.4-4.2C143.8,4.3,151.9,4.3,160,4.3z"/>
	<path class="st0" d="M138.4,67c0-1.2,0-2.3,0-3.5c0-0.7,0-0.7,0.7-0.7c6.9,0,13.7,0,20.6,0c0.2,0,0.4,0,0.6,0c0,1.4,0,2.8,0,4.2
		C153,67,145.7,67,138.4,67z"/>
	<path class="st0" d="M160.3,58.5c-1.5,0-2.9,0-4.4,0c-5.6,0-11.2,0-16.9,0c-0.7,0-0.7,0-0.7-0.6c0-1,0-2,0-2.9
		c0-0.4,0.1-0.6,0.6-0.6c2.8,0,5.5,0,8.3,0c4.2,0,8.3,0,12.5,0c0.2,0,0.4,0,0.6,0C160.3,55.7,160.3,57.1,160.3,58.5z"/>
	<path class="st0" d="M90.6,67c0-1.2,0-2.4,0-3.6c0-0.4,0.1-0.6,0.6-0.6c6.8,0,13.6,0,20.5,0c0.4,0,0.6,0.1,0.6,0.6
		c0,1.2,0,2.4,0,3.6C105.1,67,97.9,67,90.6,67z"/>
	<path class="st0" d="M138.2,31.3c-0.2,0.5-0.4,1-0.6,1.6c-0.1,0.5-0.4,0.7-0.9,0.7c-7.6,0-15.2,0-22.8,0c-0.5,0-0.7-0.1-0.8-0.6
		c-0.2-0.6-0.4-1.1-0.6-1.7c0,0-0.1,0-0.1,0c0,0.1,0,0.3,0,0.4c0,0.4,0,0.9,0,1.3c0,0.4-0.1,0.5-0.5,0.5c-4,0-8.1,0-12.1,0
		c-0.4,0-0.5-0.1-0.5-0.5c0-1.1,0-2.1,0-3.2c0-0.4,0.1-0.5,0.5-0.5c8,0,16,0,24,0c0.3,0,0.5,0.1,0.6,0.4c0.3,0.9,0.6,1.8,1,2.7
		c0,0.1,0.1,0.3,0.2,0.5c0.1-0.3,0.2-0.4,0.2-0.6c0.3-0.9,0.6-1.7,0.9-2.6c0.1-0.3,0.3-0.5,0.6-0.5c7.9,0,15.8,0,23.8,0
		c0.3,0,0.5,0.1,0.5,0.5c0,1.1,0,2.2,0,3.2c0,0.3-0.1,0.5-0.4,0.5c-4,0-8.1,0-12.1,0c-0.4,0-0.5-0.1-0.5-0.5c0-0.6,0-1.1,0-1.7
		C138.3,31.3,138.3,31.3,138.2,31.3z"/>
	<path class="st0" d="M62.6,54.4c7.8,0,15.7,0,23.5,0c0.7,0,0.7,0,0.5,0.7c-0.3,1-0.6,2-1,3c-0.1,0.4-0.4,0.5-0.9,0.5
		c-15.3,0-30.5,0-45.8,0c-0.5,0-0.6-0.1-0.6-0.6c0-1,0-2,0-2.9c0-0.5,0.1-0.6,0.6-0.6C46.9,54.4,54.8,54.4,62.6,54.4z"/>
	<path class="st0" d="M62.6,16.8c-7.8,0-15.6,0-23.4,0c-0.8,0-0.8,0-0.8-0.7c0-1,0-1.9,0-2.9c0-0.4,0.1-0.5,0.5-0.5
		c0.1,0,0.2,0,0.3,0c15.1,0,30.3,0,45.4,0c0.6,0,1,0.2,1.2,0.8c0.3,1,0.6,2,0.9,3c0.1,0.3,0,0.4-0.3,0.4c-0.2,0-0.3,0-0.5,0
		C78.2,16.8,70.4,16.8,62.6,16.8z"/>
	<path class="st0" d="M84.5,41.8c-0.2,0-0.4,0-0.6,0c-12,0-23.9,0-35.9,0c-0.7,0-0.7,0-0.7-0.8c0-0.9,0-1.9,0-2.8
		c0-0.4,0.1-0.5,0.5-0.5c10.9,0,21.9,0,32.8,0c0.2,0,0.4,0,0.5,0.1c1.3,1.1,2.5,2.2,3.4,3.7C84.4,41.6,84.4,41.7,84.5,41.8z"/>
	<path class="st0" d="M84.6,29.4c-0.5,0.6-0.8,1.2-1.2,1.7c-0.7,0.8-1.4,1.5-2.2,2.2c-0.2,0.2-0.5,0.3-0.7,0.3
		c-10.9,0-21.8,0-32.7,0c-0.4,0-0.6-0.1-0.6-0.6c0-1,0-2,0-3c0-0.5,0.2-0.6,0.6-0.6c10.1,0,20.3,0,30.4,0c1.9,0,3.8,0,5.7,0
		C84.1,29.4,84.2,29.4,84.6,29.4z"/>
	<path class="st0" d="M19,58.5c-4.8,0-9.7,0-14.5,0c-0.7,0-0.7,0-0.7-0.7c0-1,0-2,0-2.9c0-0.4,0.1-0.5,0.6-0.5c5.8,0,11.7,0,17.5,0
		c3.9,0,7.8,0,11.7,0c0.5,0,0.6,0.1,0.6,0.6c0,1,0,2,0,3c0,0.5-0.2,0.6-0.6,0.6C28.7,58.5,23.9,58.5,19,58.5z"/>
	<path class="st0" d="M119.5,16.8c-0.2,0-0.4,0-0.6,0c-9.3,0-18.6,0-27.9,0c-0.4,0-0.6-0.1-0.6-0.6c0-1,0-2.1,0-3.1
		c0-0.3,0.1-0.5,0.5-0.5c1,0,2,0,3,0c7.8,0,15.6,0,23.4,0c0.6,0,0.8,0.2,1,0.7c0.3,1,0.7,1.9,1,2.9
		C119.4,16.4,119.4,16.5,119.5,16.8z"/>
	<path class="st0" d="M131.2,16.8c0.5-1.4,0.9-2.6,1.4-3.9c0-0.1,0.2-0.2,0.3-0.2c0.1,0,0.3,0,0.4,0c8.7,0,17.3,0,26,0
		c0.7,0,0.7,0,0.7,0.7c0,1,0,2,0,2.9c0,0.4-0.1,0.5-0.5,0.5c-0.8,0-1.6,0-2.4,0c-8.4,0-16.7,0-25.1,0
		C131.8,16.8,131.6,16.8,131.2,16.8z"/>
	<path class="st0" d="M122.5,25.2c-0.1,0-0.3,0-0.5,0c-7.4,0-14.8,0-22.2,0c-0.5,0-0.6-0.1-0.6-0.6c0-1,0-2.1,0-3.1
		c0-0.4,0.1-0.5,0.5-0.5c7,0,14,0,21,0c0.2,0,0.5,0.1,0.5,0.3c0.5,1.2,0.9,2.5,1.3,3.7C122.5,25.1,122.5,25.1,122.5,25.2z"/>
	<path class="st0" d="M128.2,25.2c0.4-1.1,0.7-2.1,1.1-3.1c0.4-1.2,0.1-1,1.4-1c6.7,0,13.3,0,20,0c0.7,0,0.7,0,0.7,0.7
		c0,1,0,1.9,0,2.9c0,0.4-0.1,0.6-0.6,0.6c-2.8,0-5.6,0-8.4,0c-4.5,0-9.1,0-13.6,0C128.7,25.2,128.5,25.2,128.2,25.2z"/>
	<path class="st0" d="M101.5,54.4c3.4,0,6.8,0,10.2,0c0.5,0,0.6,0.1,0.6,0.6c0,1,0,2,0,2.9c0,0.5-0.2,0.6-0.6,0.6
		c-6.1,0-12.2,0-18.3,0c-0.7,0-1.5,0-2.2,0c-0.3,0-0.5-0.1-0.4-0.5c0-1.1,0-2.1,0-3.2c0-0.4,0.1-0.5,0.5-0.5
		C94.6,54.4,98.1,54.4,101.5,54.4z"/>
	<path class="st0" d="M114.8,37.7c7.1,0,14,0,21.1,0c-0.1,0.3-0.2,0.6-0.3,0.8c-0.3,1-0.7,1.9-1,2.9c-0.1,0.3-0.3,0.4-0.6,0.4
		c-5.8,0-11.5,0-17.3,0c-0.2,0-0.5-0.1-0.5-0.2C115.8,40.3,115.3,39.1,114.8,37.7z"/>
	<path class="st0" d="M133,46.1c-0.5,1.3-0.9,2.6-1.4,3.8c-0.1,0.1-0.4,0.3-0.5,0.3c-1.6,0-3.1,0-4.7,0c-2.1,0-4.2,0-6.3,0
		c-0.5,0-0.8-0.2-0.9-0.7c-0.3-1-0.7-1.9-1-2.9c-0.1-0.2-0.1-0.4-0.2-0.6C122.9,46.1,127.9,46.1,133,46.1z"/>
	<path class="st0" d="M80.3,50.2c-2.1,0-4.2,0-6.3,0c-0.5,0-0.7-0.1-0.6-0.6c0-1,0-2,0-2.9c0-0.5,0.2-0.6,0.6-0.6c4,0,8,0,11.9,0
		c0.4,0,0.6,0.1,0.7,0.5c0.2,1,0.4,2,0.6,3.1c0.1,0.4-0.1,0.6-0.5,0.6C84.5,50.2,82.4,50.2,80.3,50.2z"/>
	<path class="st0" d="M80.3,21c2.1,0,4.2,0,6.3,0c0.5,0,0.7,0.1,0.6,0.6c-0.2,1.1-0.4,2.2-0.7,3.2c0,0.1-0.3,0.3-0.5,0.3
		c-4.1,0-8.2,0-12.3,0c-0.3,0-0.4-0.1-0.4-0.4c0-1.1,0-2.2,0-3.3c0-0.4,0.2-0.4,0.5-0.4C76,21,78.1,21,80.3,21z"/>
	<path class="st0" d="M105.8,37.7c2,0,4,0,6,0c0.4,0,0.6,0.1,0.6,0.6c0,1,0,2.1,0,3.1c0,0.4-0.1,0.5-0.5,0.5c-4,0-8.1,0-12.1,0
		c-0.3,0-0.5-0.1-0.5-0.5c0-1.1,0-2.2,0-3.2c0-0.4,0.2-0.5,0.5-0.5C101.7,37.7,103.7,37.7,105.8,37.7z"/>
	<path class="st0" d="M145,37.7c2,0,4,0,6,0c0.4,0,0.5,0.1,0.5,0.5c0,1.1,0,2.1,0,3.2c0,0.4-0.1,0.5-0.5,0.5c-4,0-8.1,0-12.1,0
		c-0.4,0-0.5-0.1-0.5-0.5c0-1.1,0-2.1,0-3.2c0-0.4,0.1-0.5,0.5-0.5C140.9,37.7,143,37.7,145,37.7z"/>
	<path class="st0" d="M18.9,41.8c-2,0-4,0-6,0c-0.4,0-0.5-0.1-0.5-0.5c0-1.1,0-2.1,0-3.2c0-0.4,0.1-0.5,0.5-0.5c4,0,8.1,0,12.1,0
		c0.4,0,0.5,0.1,0.5,0.5c0,1.1,0,2.1,0,3.2c0,0.4-0.1,0.5-0.5,0.5C22.9,41.8,20.9,41.8,18.9,41.8z"/>
	<path class="st0" d="M105.8,46c2,0,4,0,6,0c0.4,0,0.5,0.1,0.5,0.5c0,1,0,2.1,0,3.1c0,0.4-0.1,0.5-0.5,0.5c-4,0-8.1,0-12.1,0
		c-0.4,0-0.5-0.1-0.5-0.5c0-1.1,0-2.1,0-3.2c0-0.4,0.1-0.5,0.5-0.5C101.7,46.1,103.8,46,105.8,46z"/>
	<path class="st0" d="M144.9,50.2c-2,0-4,0-5.9,0c-0.5,0-0.6-0.2-0.6-0.6c0-1,0-2.1,0-3.1c0-0.3,0.1-0.5,0.4-0.5c4,0,8.1,0,12.1,0
		c0.4,0,0.5,0.1,0.5,0.5c0,1,0,2.1,0,3.1c0,0.4-0.1,0.5-0.5,0.5C148.9,50.2,146.9,50.2,144.9,50.2z"/>
	<path class="st0" d="M18.9,29.4c2,0,4,0,6,0c0.4,0,0.6,0.1,0.6,0.5c0,1,0,2.1,0,3.1c0,0.4-0.1,0.5-0.5,0.5c-4,0-8.1,0-12.1,0
		c-0.4,0-0.5-0.1-0.5-0.5c0-1.1,0-2.1,0-3.2c0-0.4,0.1-0.5,0.5-0.5C14.9,29.4,16.9,29.4,18.9,29.4z"/>
	<path class="st0" d="M19,21c2,0,3.9,0,5.9,0c0.4,0,0.6,0.1,0.6,0.5c0,1,0,2.1,0,3.1c0,0.4-0.1,0.5-0.5,0.5c-4,0-8.1,0-12.1,0
		c-0.4,0-0.5-0.1-0.5-0.5c0-1,0-2.1,0-3.1c0-0.4,0.1-0.6,0.6-0.6C14.9,21.1,17,21,19,21z"/>
	<path class="st0" d="M19,46c2,0,4,0,6,0c0.4,0,0.5,0.1,0.5,0.5c0,1.1,0,2.1,0,3.2c0,0.4-0.1,0.5-0.5,0.5c-4,0-8.1,0-12.1,0
		c-0.4,0-0.5-0.1-0.5-0.5c0-1.1,0-2.1,0-3.2c0-0.4,0.1-0.5,0.5-0.5C14.9,46.1,16.9,46,19,46z"/>
	<path class="st0" d="M53.8,46c2,0,3.9,0,5.9,0c0.4,0,0.6,0.1,0.6,0.6c0,1,0,2,0,3c0,0.4-0.2,0.6-0.6,0.6c-4,0-8,0-11.9,0
		c-0.4,0-0.6-0.1-0.5-0.5c0-1,0-2.1,0-3.1c0-0.4,0.1-0.5,0.5-0.5C49.7,46.1,51.7,46,53.8,46z"/>
	<path class="st0" d="M53.7,25.2c-2,0-4,0-6,0c-0.4,0-0.6-0.1-0.5-0.5c0-1,0-2.1,0-3.1c0-0.4,0.1-0.5,0.5-0.5c4,0,8,0,12,0
		c0.4,0,0.6,0.1,0.5,0.5c0,1,0,2.1,0,3.1c0,0.4-0.1,0.5-0.5,0.5C57.7,25.2,55.7,25.2,53.7,25.2z"/>
	<path class="st0" d="M130,54.4c-0.2,0.7-0.4,1.3-0.7,1.9c-0.2,0.6-0.4,1.3-0.7,1.9c-0.1,0.2-0.3,0.3-0.5,0.3c-1.8,0-3.6,0-5.4,0
		c-0.2,0-0.4-0.1-0.4-0.3c-0.5-1.2-0.9-2.4-1.3-3.7c0,0,0-0.1,0-0.2C123.9,54.4,126.9,54.4,130,54.4z"/>
	<path class="st0" d="M125.4,66.8c-0.5-1.3-1-2.6-1.5-4c1,0,2,0,3.1,0c-0.5,1.4-1,2.7-1.4,4C125.5,66.8,125.4,66.8,125.4,66.8z"/>
</g>
</svg>
