<?xml version="1.0" encoding="utf-8"?>
<!-- Generator: Adobe Illustrator 24.0.3, SVG Export Plug-In . SVG Version: 6.00 Build 0)  -->
<svg version="1.1" id="Layer_1" xmlns="http://www.w3.org/2000/svg" xmlns:xlink="http://www.w3.org/1999/xlink" x="0px" y="0px"
	 viewBox="0 0 613 145" style="enable-background:new 0 0 613 145;" xml:space="preserve">
<style type="text/css">
	.st0{fill:#EE2435;}
</style>
<g>
	<path class="st0" d="M127.5,83.5c12.5,0,30.6-2.6,30.6-17.5c0-1.2,0-2.3-0.3-3.4l-7.4-32.4c-1.7-7.1-3.2-10.3-15.7-16.6
		c-9.7-5-30.8-13.1-37.1-13.1C91.7,0.5,90,8,83.1,8c-6.7,0-11.6-5.6-17.9-5.6c-6,0-9.9,4.1-12.9,12.5c0,0-8.4,23.7-9.5,27.2
		c-0.2,0.6-0.2,1.4-0.2,1.9C42.5,53.3,78.8,83.5,127.5,83.5 M160,72.1c1.7,8.2,1.7,9.1,1.7,10.1c0,14-15.7,21.8-36.4,21.8
		c-46.8,0-87.7-27.4-87.7-45.5c0-2.8,0.6-5.4,1.5-7.3C22.3,52,0.5,55,0.5,74.2c0,31.5,74.6,70.3,133.7,70.3
		c45.3,0,56.7-20.5,56.7-36.6C190.8,95.1,179.9,80.7,160,72.1"/>
	<path d="M160,72.1c1.7,8.2,1.7,9.1,1.7,10.1c0,14-15.7,21.8-36.4,21.8c-46.8,0-87.7-27.4-87.7-45.5c0-2.8,0.6-5.4,1.5-7.3l3.7-9.1
		c-0.2,0.6-0.2,1.4-0.2,1.9c0,9.2,36.3,39.4,84.9,39.4c12.5,0,30.6-2.6,30.6-17.5c0-1.2,0-2.3-0.3-3.4L160,72.1z"/>
	<path d="M579.7,92.8c0,11.9,7.2,17.7,20.2,17.7c3.2,0,8.6-0.7,11.9-1.7V95c-2.8,0.8-4.9,1.2-7.7,1.2c-5.4,0-7.4-1.7-7.4-6.7V68.3
		h15.6V54.1h-15.6v-18l-17,3.7v14.3h-11.3v14.2h11.3V92.8z M526.8,93.1c0-3.7,3.7-5.5,9.3-5.5c3.7,0,7,0.5,10.1,1.3v7.2
		c-3.2,1.8-6.8,2.6-10.6,2.6C530.1,98.7,526.8,96.6,526.8,93.1 M532,110.7c6,0,10.8-1.3,15.4-4.3v3.4h16.8V74.1
		c0-13.6-9.1-21-24.4-21c-8.5,0-16.9,2-26,6.1l6.1,12.5c6.5-2.7,12-4.4,16.8-4.4c7,0,10.6,2.7,10.6,8.3v2.7c-4-1.1-8.2-1.6-12.6-1.6
		c-14.3,0-22.9,6-22.9,16.7C511.8,103.2,519.6,110.7,532,110.7 M439.6,109.7h18.1V80.9h30.3v28.8H506V36.1h-18.1v28.3h-30.3V36.1
		h-18.1V109.7z M370.6,81.9c0-8,6.3-14.1,14.6-14.1c4.6,0,8.8,1.6,11.8,4.3v19.5c-3,2.9-7,4.4-11.8,4.4
		C377,96,370.6,89.9,370.6,81.9 M397.2,109.7h16.8V32.4l-17,3.7V57c-4.2-2.4-9-3.7-14.2-3.7c-16.2,0-28.9,12.5-28.9,28.5
		c0,16,12.5,28.6,28.4,28.6c5.5,0,10.6-1.7,14.9-4.8V109.7z M320,67c5.4,0,9.9,3.5,11.7,8.8h-23.2C310.2,70.3,314.4,67,320,67
		 M291.3,82c0,16.2,13.3,28.8,30.3,28.8c9.4,0,16.2-2.5,23.2-8.4l-11.3-10c-2.6,2.7-6.5,4.2-11.1,4.2c-6.3,0-11.5-3.5-13.7-8.8h39.6
		v-4.2c0-17.7-11.9-30.4-28.1-30.4C304.1,53.2,291.3,65.8,291.3,82 M262,51.6c6,0,9.4,3.8,9.4,8.3s-3.4,8.3-9.4,8.3h-17.9V51.6H262z
		 M226,109.7h18.1V82.9h13.8l13.9,26.8H292l-16.2-29.4c8.7-3.8,13.9-11.7,13.9-20.7c0-13.3-10.4-23.5-26-23.5H226V109.7z"/>
</g>
</svg>
