<?xml version="1.0" encoding="utf-8"?>
<!-- Generator: Adobe Illustrator 24.0.3, SVG Export Plug-In . SVG Version: 6.00 Build 0)  -->
<svg version="1.1" id="Layer_1" xmlns="http://www.w3.org/2000/svg" xmlns:xlink="http://www.w3.org/1999/xlink" x="0px" y="0px"
	 viewBox="0 0 422.3 216.2" style="enable-background:new 0 0 422.3 216.2;" xml:space="preserve">
<style type="text/css">
	.Arched_x0020_Green{fill:url(#SVGID_1_);stroke:#FFFFFF;stroke-width:0.25;stroke-miterlimit:1;}
	.st0{fill-rule:evenodd;clip-rule:evenodd;fill:url(#SVGID_2_);}
	.st1{fill-rule:evenodd;clip-rule:evenodd;fill:#FFFFFF;}
	.st2{fill:#0072BC;}
</style>
<linearGradient id="SVGID_1_" gradientUnits="userSpaceOnUse" x1="-194.3498" y1="408.4309" x2="-193.6427" y2="407.7238">
	<stop  offset="0" style="stop-color:#20AC4B"/>
	<stop  offset="0.9831" style="stop-color:#19361A"/>
</linearGradient>
<g>
	<g>
		<g>
			<linearGradient id="SVGID_2_" gradientUnits="userSpaceOnUse" x1="211.7943" y1="5.8909" x2="211.7943" y2="209.8909">
				<stop  offset="0" style="stop-color:#00B9F2"/>
				<stop  offset="0.2132" style="stop-color:#00A0DF"/>
				<stop  offset="0.4462" style="stop-color:#008BCF"/>
				<stop  offset="0.6625" style="stop-color:#007DC4"/>
				<stop  offset="0.8538" style="stop-color:#0074BE"/>
				<stop  offset="1" style="stop-color:#0072BC"/>
			</linearGradient>
			<polyline class="st0" points="5.6,209.9 214,209.9 418,5.9 5.6,5.9 5.6,209.9 			"/>
		</g>
		<path class="st1" d="M250.3,44.2l-40.6,0v96.5l-35.5-96.5h-35.2l-30.3,80.7c-3.2-20.4-24.3-27.4-40.8-32.6
			c-10.9-3.5-22.5-8.7-22.4-14.4c0.1-4.7,6.2-9,18.4-8.4c8.2,0.4,15.4,1.1,29.7,8L107.8,53c-13.1-6.7-31.2-10.9-46-10.9h-0.1
			c-17.3,0-31.7,5.6-40.6,14.8c-6.2,6.4-9.6,14.6-9.7,23.7c-0.2,12.5,4.3,21.3,13.9,28.3c8.1,5.9,18.5,9.8,27.6,12.6
			c11.3,3.5,20.5,6.5,20.4,13c-0.1,2.4-1,4.6-2.7,6.3c-2.8,2.9-7.1,4-13.1,4.1c-11.5,0.2-20-1.6-33.6-9.6l-12.5,24.9
			c13.5,7.7,29.6,12.2,46,12.2l2.1,0c14.2-0.3,25.7-4.3,34.9-11.7c0.5-0.4,1-0.8,1.5-1.3l-4.1,10.9h36.9l6.2-18.8
			c6.5,2.2,13.8,3.4,21.7,3.4c7.6,0,14.8-1.2,21.2-3.3l6,18.6h60.1v-39h13.1c31.7,0,50.5-16.1,50.5-43.2
			C307.3,58.1,289.1,44.2,250.3,44.2z M156.5,126.8c-4.7,0-9.2-0.8-13-2.3L156.4,84h0.2l12.6,40.7
			C165.5,126,161.1,126.8,156.5,126.8z M252.7,103.5h-8.9V70.8h8.9c11.9,0,21.4,4,21.4,16.1C274.2,99.5,264.6,103.5,252.7,103.5"/>
	</g>
	<path class="st2" d="M263.4,196.5c0-6.2,4.7-11,10.7-11c6,0,10.7,4.7,10.7,11c0,6.4-4.7,11-10.7,11
		C268.2,207.5,263.4,202.8,263.4,196.5z M274.2,209.7c7.2,0,13.3-5.6,13.3-13.2c0-7.6-6.1-13.2-13.3-13.2c-7.3,0-13.4,5.6-13.4,13.2
		C260.8,204.1,266.9,209.7,274.2,209.7z M271.4,197.5h2.7l4,6.6h2.6l-4.4-6.7c2.3-0.3,4-1.5,4-4.2c0-3-1.8-4.3-5.4-4.3h-5.8v15.2
		h2.3V197.5z M271.4,195.6v-4.7h3.1c1.6,0,3.3,0.3,3.3,2.2c0,2.4-1.7,2.5-3.7,2.5H271.4z"/>
</g>
</svg>
