<?xml version="1.0" encoding="utf-8"?>
<!-- Generator: Adobe Illustrator 24.0.3, SVG Export Plug-In . SVG Version: 6.00 Build 0)  -->
<svg version="1.1" id="Layer_1" xmlns="http://www.w3.org/2000/svg" xmlns:xlink="http://www.w3.org/1999/xlink" x="0px" y="0px"
	 viewBox="0 0 127.2 144" style="enable-background:new 0 0 127.2 144;" xml:space="preserve">
<style type="text/css">
	.st0{fill:#FFFFFF;}
	.st1{fill:#FFFFFF;stroke:#FFFFFF;stroke-width:0.3478;}
</style>
<g>
	<path class="st0" d="M36.8,92.7c-16.2,0-29.5-13.2-29.5-29.3s13.3-29.3,29.5-29.3c7.8,0,15.1,3,20.7,8.6c3.6,3.6,4.9,6.4,7,10.8
		c1.8,3.9,4.2,8.8,9.1,16.5c4.5,7.5,9.9,11.2,16.5,11.2h0.5c9.9-0.3,17.7-8.1,17.7-17.7c0-9.8-8.1-17.7-18-17.7
		C83.2,45.8,75.7,52,73,57c-0.7-1.2-1.3-2.4-2-3.5c-1.7-3-3.2-5.5-4.4-7.6c5.2-5.9,14.8-11.7,23.7-11.7c16.2,0,29.5,13.2,29.5,29.3
		S107,92.4,90.5,92.8h-0.4c-12.2,0-21.6-7.8-25.7-15.7l-0.1-0.3L64,75.9c-8.1-15-12.8-23.2-14.7-25c-3.4-3.4-7.8-5.2-12.5-5.2
		c-9.9,0-18,7.9-18,17.7s8.1,17.7,18,17.7c6.9,0,14-5.4,17.3-10.9c2.4,4.4,3.7,6.7,4.4,8.2c1,1.7,1.1,2.1,1.6,3
		C55,87,45.7,92.7,36.8,92.7z"/>
</g>
<path class="st0" d="M80.7,32.1c-2.2-7.6-9.1-13.1-17-13.1c-7.7,0-14.8,5.3-17,12.9c-3-0.9-6.4-1.3-9.6-1.3c-0.8,0-1.4,0-2.1,0.1
	c3.3-13.1,15.4-23,28.9-23c13.6,0,25.5,9.5,28.5,22.7C88.4,30.4,84.4,30.9,80.7,32.1z"/>
<g>
	<polygon class="st1" points="7.5,117.9 14.7,117.9 14.7,116 9.4,116 9.4,113.4 13.8,113.4 13.4,111.5 9.4,111.5 9.4,109 14.7,109 
		14.7,107.2 7.5,107.2 	"/>
	<path class="st1" d="M25.6,116.4l-1.3-1.3c-0.3,0.3-0.8,0.7-1.2,0.8c-0.4,0.2-1,0.3-1.4,0.3c-0.5,0-1-0.1-1.4-0.3
		c-0.4-0.2-0.9-0.4-1.2-0.8c-0.3-0.3-0.7-0.8-0.8-1.2c-0.2-0.4-0.3-1-0.3-1.4s0.1-1,0.3-1.4c0.2-0.4,0.4-0.9,0.8-1.2
		c0.3-0.3,0.8-0.7,1.2-0.8c0.4-0.2,0.9-0.3,1.4-0.3s1,0.1,1.4,0.3c0.4,0.2,0.9,0.4,1.2,0.8l1.3-1.3c-0.5-0.5-1.1-0.9-1.7-1.2
		c-0.7-0.3-1.4-0.4-2.2-0.4s-1.5,0.1-2.2,0.4s-1.3,0.7-1.7,1.2c-0.5,0.5-0.9,1.1-1.2,1.7c-0.3,0.7-0.4,1.4-0.4,2.2s0.1,1.5,0.4,2.2
		s0.7,1.3,1.2,1.7c0.5,0.5,1.1,0.9,1.7,1.2c0.7,0.3,1.4,0.4,2.2,0.4s1.5-0.1,2.2-0.4C24.5,117.3,25.1,116.9,25.6,116.4z"/>
	<polygon class="st1" points="28.8,107.2 27,107.2 27,116 27,117.9 28.8,117.9 33,117.9 33,116 28.8,116 	"/>
	<rect x="34.8" y="107.2" class="st1" width="1.8" height="10.7"/>
	<path class="st1" d="M42.4,113h-0.8l-0.8,1.8h1.5c0.5,0,1-0.1,1.5-0.3c0.4-0.2,0.9-0.4,1.2-0.9s0.7-0.8,0.9-1.2
		c0.2-0.4,0.3-1,0.3-1.5s-0.1-1-0.3-1.5c-0.2-0.4-0.4-0.9-0.9-1.2s-0.8-0.7-1.2-0.9c-0.4-0.2-1-0.3-1.5-0.3h-4v10.7h1.8v-8.8h2.2
		c0.5,0,1,0.2,1.4,0.5s0.5,0.9,0.5,1.4s-0.2,1-0.5,1.4C43.5,112.9,43,113,42.4,113z"/>
	<path class="st1" d="M54,112.5c-0.2-0.1-0.4-0.3-0.7-0.4c-0.2-0.1-0.4-0.2-0.7-0.3c-0.2-0.1-0.3-0.1-0.5-0.2
		c-0.1,0-0.2-0.1-0.3-0.1h-0.2c-0.2,0-0.4-0.1-0.5-0.2c-0.2-0.1-0.4-0.1-0.7-0.2c-0.2-0.1-0.4-0.2-0.5-0.4c-0.2-0.2-0.3-0.4-0.3-0.7
		c0-0.4,0.2-0.8,0.7-1.1c0.1-0.1,0.3-0.1,0.5-0.2c0.2,0,0.4-0.1,0.7-0.1c0.4,0,0.9,0.1,1.3,0.3c0.3,0.1,0.5,0.3,0.9,0.7l1.3-1.3
		c-0.1-0.1-0.2-0.1-0.3-0.2s-0.2-0.2-0.4-0.2c-0.3-0.2-0.7-0.3-1.2-0.5s-1.1-0.2-1.8-0.2c-0.4,0-0.8,0.1-1.2,0.2s-0.8,0.3-1.1,0.5
		s-0.7,0.5-0.8,1c-0.1,0.4-0.3,0.9-0.3,1.5c0,0.9,0.4,1.6,1.4,2.3c0.4,0.2,0.8,0.4,1.2,0.7c0.4,0.2,0.8,0.2,0.9,0.3h0.1h0.1h0.1
		c0.1,0,0.3,0.1,0.5,0.2s0.4,0.1,0.5,0.2c0.2,0.1,0.4,0.2,0.5,0.4c0.2,0.2,0.3,0.4,0.3,0.7c0,0.4-0.2,0.8-0.5,1
		c-0.1,0.1-0.3,0.2-0.5,0.2c-0.2,0.1-0.4,0.1-0.8,0.1c-0.1,0-0.3,0-0.5,0s-0.4-0.1-0.8-0.2c-0.4-0.1-0.8-0.4-1.1-0.7l-1.3,1.3
		c0.4,0.3,1,0.7,1.6,0.9c0.7,0.2,1.4,0.4,2.3,0.4c0.5,0,1-0.1,1.4-0.2s0.8-0.3,1.1-0.7c0.3-0.3,0.5-0.7,0.7-1
		c0.1-0.4,0.2-0.9,0.2-1.3C55.4,113.9,55,113.2,54,112.5z"/>
	<polygon class="st1" points="64.2,116 58.8,116 58.8,113.4 63.2,113.4 62.8,111.5 58.8,111.5 58.8,109 64.2,109 64.2,107.2 
		57,107.2 57,117.9 64.2,117.9 	"/>
	<path class="st1" d="M77.5,115.1c-0.3,0.3-0.8,0.7-1.2,0.8c-0.4,0.2-1,0.3-1.4,0.3c-0.5,0-1-0.1-1.4-0.3c-0.4-0.2-0.9-0.4-1.2-0.8
		c-0.3-0.3-0.7-0.8-0.8-1.2c-0.2-0.4-0.3-1-0.3-1.4s0.1-1,0.3-1.4c0.2-0.4,0.4-0.9,0.8-1.2c0.3-0.3,0.8-0.7,1.2-0.8
		c0.4-0.2,0.9-0.3,1.4-0.3s1,0.1,1.4,0.3c0.4,0.2,0.9,0.4,1.2,0.8l1.3-1.3c-0.5-0.5-1.1-0.9-1.7-1.2c-0.7-0.3-1.4-0.4-2.2-0.4
		s-1.5,0.1-2.2,0.4s-1.3,0.7-1.7,1.2c-0.5,0.5-0.9,1.1-1.2,1.7c-0.3,0.7-0.4,1.4-0.4,2.2s0.1,1.5,0.4,2.2s0.7,1.3,1.2,1.7
		c0.5,0.5,1.1,0.9,1.7,1.2c0.7,0.3,1.4,0.4,2.2,0.4s1.5-0.1,2.2-0.4s1.3-0.7,1.7-1.2L77.5,115.1z"/>
	<polygon class="st1" points="86.1,117.9 86.1,116 81.9,116 81.9,107.2 80.1,107.2 80.1,116 80.1,117.9 81.9,117.9 	"/>
	<path class="st1" d="M97.5,110.3c-0.3-0.7-0.7-1.3-1.2-1.7s-1.1-0.9-1.7-1.2c-0.7-0.3-1.4-0.4-2.2-0.4s-1.5,0.1-2.2,0.4
		s-1.3,0.7-1.7,1.2c-0.4,0.5-0.9,1.1-1.2,1.7c-0.3,0.7-0.4,1.4-0.4,2.2s0.1,1.5,0.4,2.2s0.7,1.3,1.2,1.7c0.5,0.5,1.1,0.9,1.7,1.2
		c0.7,0.3,1.4,0.4,2.2,0.4s1.5-0.1,2.2-0.4s1.3-0.7,1.7-1.2c0.5-0.5,0.9-1.1,1.2-1.7c0.3-0.7,0.4-1.4,0.4-2.2
		C97.9,111.8,97.8,111,97.5,110.3z M95.9,113.9c-0.2,0.4-0.4,0.9-0.8,1.2c-0.3,0.3-0.8,0.7-1.2,0.8c-0.4,0.2-1,0.3-1.4,0.3
		s-1-0.1-1.4-0.3c-0.4-0.2-0.9-0.4-1.2-0.8c-0.3-0.3-0.7-0.8-0.8-1.2c-0.2-0.4-0.3-1-0.3-1.4s0.1-1,0.3-1.4c0.2-0.4,0.4-0.9,0.8-1.2
		c0.3-0.3,0.8-0.7,1.2-0.8c0.4-0.1,0.9-0.3,1.4-0.3s1,0.1,1.4,0.3c0.4,0.2,0.9,0.4,1.2,0.8c0.3,0.3,0.7,0.8,0.8,1.2
		c0.2,0.4,0.3,0.9,0.3,1.4C96.2,113.1,96,113.5,95.9,113.9z"/>
	<path class="st1" d="M106.5,113.6c0,0.3-0.1,0.7-0.2,1s-0.3,0.7-0.5,0.9c-0.5,0.5-1.2,0.8-1.8,0.8c-0.3,0-0.7-0.1-1-0.2
		s-0.7-0.3-0.9-0.5c-0.2-0.2-0.4-0.5-0.5-0.9c-0.1-0.3-0.2-0.7-0.2-1v-6.4h-1.8v6.4c0,0.7,0.1,1.2,0.3,1.7c0.2,0.5,0.5,1,1,1.4
		c0.4,0.4,0.9,0.8,1.4,1s1.1,0.3,1.7,0.3c0.7,0,1.2-0.1,1.7-0.3c0.5-0.2,1-0.5,1.4-1c0.4-0.4,0.8-0.9,1-1.4s0.3-1.1,0.3-1.7v-6.4
		h-1.8L106.5,113.6L106.5,113.6z"/>
	<path class="st1" d="M119.4,110.5c-0.3-0.7-0.7-1.2-1.2-1.7c-0.4-0.4-1.1-0.9-1.7-1.2c-0.7-0.3-1.3-0.4-2.1-0.4h-4.5v10.7h1.8v-1.8
		v-2.6V109h2.6c0.4,0,0.9,0.1,1.3,0.2s0.8,0.4,1.2,0.8c0.3,0.3,0.5,0.8,0.8,1.2c0.2,0.4,0.2,0.9,0.2,1.3s-0.1,1-0.2,1.3
		c-0.2,0.4-0.4,0.8-0.8,1.1c-0.3,0.3-0.8,0.5-1.2,0.8c-0.4,0.2-0.9,0.2-1.3,0.2h-1.2l-0.8,1.8h1.8c0.8,0,1.4-0.1,2.1-0.4
		s1.2-0.7,1.7-1.2c0.4-0.4,0.9-1.1,1.2-1.7c0.3-0.7,0.4-1.3,0.4-2.1C119.8,111.8,119.7,111.1,119.4,110.5z"/>
	<path class="st1" d="M30.1,127c-0.4-0.4-1.1-0.9-1.7-1.2c-0.7-0.3-1.3-0.4-2.1-0.4h-4.5V136h1.8v-1.8v-2.6v-4.5h2.6
		c0.4,0,0.9,0.1,1.3,0.2s0.8,0.4,1.2,0.8c0.3,0.3,0.5,0.8,0.8,1.2s0.2,0.9,0.2,1.3c0,0.4-0.1,1-0.2,1.3c-0.2,0.4-0.4,0.8-0.8,1.1
		c-0.3,0.3-0.8,0.5-1.2,0.8c-0.4,0.2-0.9,0.2-1.3,0.2H25l-0.8,1.8H26c0.8,0,1.4-0.1,2.1-0.4c0.7-0.3,1.2-0.7,1.7-1.2
		c0.4-0.4,0.9-1.1,1.2-1.7c0.3-0.7,0.4-1.3,0.4-2.1s-0.1-1.4-0.4-2.1C30.9,127.6,30.6,127.5,30.1,127z"/>
	<polygon class="st1" points="33.3,136.1 40.5,136.1 40.5,134.3 35,134.3 35,131.7 39.5,131.7 39.1,129.8 35,129.8 35,127.3 
		40.5,127.3 40.5,125.5 33.3,125.5 	"/>
	<polygon class="st1" points="46.9,133.6 43.6,125.5 41.7,125.5 45.9,136.1 47.9,136.1 51.9,125.5 49.9,125.5 	"/>
	<polygon class="st1" points="59.7,125.5 56.6,125.5 56.6,127.3 59.7,127.3 59.7,136.1 61.6,136.1 61.6,127.3 64.7,127.3 
		64.7,125.5 61.6,125.5 	"/>
	<path class="st1" d="M74.6,126.9c-0.5-0.5-1.1-0.9-1.7-1.2c-0.7-0.3-1.4-0.4-2.2-0.4s-1.5,0.1-2.2,0.4s-1.3,0.7-1.7,1.2
		c-0.4,0.5-0.9,1.1-1.2,1.7c-0.3,0.7-0.4,1.4-0.4,2.2s0.1,1.5,0.4,2.2s0.7,1.3,1.2,1.7c0.5,0.5,1.1,0.9,1.7,1.2
		c0.7,0.3,1.4,0.4,2.2,0.4s1.5-0.1,2.2-0.4c0.7-0.3,1.3-0.7,1.7-1.2c0.5-0.5,0.9-1.1,1.2-1.7c0.3-0.7,0.4-1.4,0.4-2.2
		s-0.1-1.5-0.4-2.2C75.5,128,75.2,127.3,74.6,126.9z M74.2,132.2c-0.2,0.4-0.4,0.9-0.8,1.2c-0.3,0.3-0.8,0.7-1.2,0.8
		c-0.4,0.2-1,0.3-1.4,0.3s-1-0.1-1.4-0.3s-0.9-0.4-1.2-0.8c-0.3-0.3-0.7-0.8-0.8-1.2c-0.2-0.4-0.3-1-0.3-1.4s0.1-1,0.3-1.4
		c0.2-0.4,0.4-0.9,0.8-1.2s0.8-0.7,1.2-0.8s0.9-0.3,1.4-0.3s1,0.1,1.4,0.3c0.4,0.2,0.9,0.4,1.2,0.8c0.3,0.3,0.7,0.8,0.8,1.2
		c0.2,0.4,0.3,0.9,0.3,1.4S74.4,131.8,74.2,132.2z"/>
	<path class="st1" d="M87.2,126.9c-0.5-0.5-1.1-0.9-1.7-1.2c-0.7-0.3-1.4-0.4-2.2-0.4s-1.5,0.1-2.2,0.4s-1.3,0.7-1.7,1.2
		c-0.4,0.5-0.9,1.1-1.2,1.7c-0.3,0.7-0.4,1.4-0.4,2.2s0.1,1.5,0.4,2.2s0.7,1.3,1.2,1.7c0.5,0.5,1.1,0.9,1.7,1.2
		c0.7,0.3,1.4,0.4,2.2,0.4s1.5-0.1,2.2-0.4c0.7-0.3,1.3-0.7,1.7-1.2c0.5-0.5,0.9-1.1,1.2-1.7c0.3-0.7,0.4-1.4,0.4-2.2
		s-0.1-1.5-0.4-2.2C88,128,87.7,127.3,87.2,126.9z M86.7,132.2c-0.2,0.4-0.4,0.9-0.8,1.2c-0.3,0.3-0.8,0.7-1.2,0.8
		c-0.4,0.2-1,0.3-1.4,0.3s-1-0.1-1.4-0.3s-0.9-0.4-1.2-0.8c-0.3-0.3-0.7-0.8-0.8-1.2c-0.2-0.4-0.3-1-0.3-1.4s0.1-1,0.3-1.4
		c0.2-0.4,0.4-0.9,0.8-1.2c0.3-0.3,0.8-0.7,1.2-0.8s0.9-0.3,1.4-0.3s1,0.1,1.4,0.3c0.4,0.2,0.9,0.4,1.2,0.8c0.3,0.3,0.7,0.8,0.8,1.2
		c0.2,0.4,0.3,0.9,0.3,1.4S86.9,131.8,86.7,132.2z"/>
	<polygon class="st1" points="92.2,125.5 90.4,125.5 90.4,134.3 90.4,136.1 92.2,136.1 96.4,136.1 96.4,134.3 92.2,134.3 	"/>
	<path class="st1" d="M103.9,130.8c-0.2-0.1-0.4-0.3-0.7-0.4c-0.2-0.1-0.4-0.2-0.7-0.3c-0.2-0.1-0.3-0.1-0.5-0.2
		c-0.1,0-0.2-0.1-0.3-0.1h-0.2c-0.2,0-0.4-0.1-0.5-0.2c-0.2-0.1-0.4-0.1-0.7-0.2c-0.2-0.1-0.4-0.2-0.5-0.4c-0.2-0.2-0.3-0.4-0.3-0.7
		c0-0.4,0.2-0.8,0.7-1.1c0.1-0.1,0.3-0.1,0.5-0.2c0.2,0,0.4-0.1,0.7-0.1c0.4,0,0.9,0.1,1.3,0.3c0.3,0.1,0.5,0.3,0.9,0.7l1.3-1.3
		c-0.1-0.1-0.2-0.1-0.3-0.2c-0.1-0.1-0.2-0.2-0.4-0.2c-0.3-0.2-0.7-0.3-1.2-0.5s-1.1-0.2-1.8-0.2c-0.4,0-0.8,0.1-1.2,0.2
		s-0.8,0.3-1.1,0.5c-0.3,0.2-0.7,0.5-0.8,1s-0.3,0.9-0.3,1.5c0,0.9,0.4,1.6,1.4,2.3c0.4,0.2,0.8,0.4,1.2,0.7s0.8,0.2,0.9,0.3h0.1
		h0.1h0.1c0.1,0,0.3,0.1,0.5,0.2c0.2,0.1,0.4,0.1,0.5,0.2c0.2,0.1,0.4,0.2,0.5,0.4c0.2,0.2,0.3,0.4,0.3,0.7c0,0.4-0.2,0.8-0.5,1
		c-0.1,0.1-0.3,0.2-0.5,0.2c-0.2,0.1-0.4,0.1-0.8,0.1c-0.1,0-0.3,0-0.5,0s-0.4-0.1-0.8-0.2c-0.4-0.1-0.8-0.4-1.1-0.7l-1.3,1.3
		c0.4,0.3,1,0.7,1.6,0.9c0.7,0.2,1.4,0.4,2.3,0.4c0.5,0,1-0.1,1.4-0.2c0.4-0.1,0.8-0.3,1.1-0.7c0.3-0.3,0.5-0.7,0.7-1
		c0.1-0.4,0.2-0.9,0.2-1.3C105.4,132.2,104.9,131.5,103.9,130.8z"/>
</g>
</svg>
