<svg xmlns="http://www.w3.org/2000/svg" viewBox="0 0 612 143.36"><defs><style>.a{fill:#474c55;}.b{fill:#3a85b6;}.c{fill:#fff;}.d{fill:#fdb816;}</style></defs><path class="a" d="M178.87,96.93c0-11.11,8.52-19.05,20-19.05,6.37,0,11.68,2.31,15.15,6.52l-5.47,5a11.85,11.85,0,0,0-9.26-4.31c-6.89,0-11.78,4.84-11.78,11.79s4.89,11.78,11.78,11.78a11.72,11.72,0,0,0,9.26-4.37l5.47,5c-3.47,4.27-8.78,6.58-15.2,6.58C187.39,116,178.87,108,178.87,96.93Z"/><path class="a" d="M219.7,76.3h8.21v39H219.7Z"/><path class="a" d="M234,101.19c0-8.53,6.58-14.58,15.57-14.58s15.52,6,15.52,14.58-6.52,14.57-15.52,14.57S234,109.71,234,101.19Zm22.78,0c0-4.9-3.1-7.84-7.21-7.84s-7.26,2.94-7.26,7.84,3.16,7.84,7.26,7.84S256.74,106.08,256.74,101.19Z"/><path class="a" d="M299.57,87v28.31h-7.79V112a11.44,11.44,0,0,1-8.78,3.79c-7.1,0-12.1-4-12.1-12.73V87h8.2v14.79c0,4.73,2.11,6.84,5.74,6.84,3.79,0,6.52-2.42,6.52-7.63V87Z"/><path class="a" d="M336.56,76.3v39h-7.84v-3.26c-2.05,2.47-5.05,3.68-8.84,3.68-8,0-14.15-5.68-14.15-14.57s6.16-14.58,14.15-14.58A10.91,10.91,0,0,1,328.36,90V76.3Zm-8.05,24.89c0-4.9-3.15-7.84-7.21-7.84S314,96.29,314,101.19,317.2,109,321.3,109,328.51,106.08,328.51,101.19Z"/><path class="a" d="M360.67,78.51H377.4c12,0,20.3,7.26,20.3,18.42s-8.26,18.41-20.3,18.41H360.67ZM377,108.34c7.32,0,12.11-4.36,12.11-11.41S384.29,85.51,377,85.51h-7.78v22.83Z"/><path class="a" d="M431.64,103.5H410.23c.79,3.53,3.79,5.68,8.1,5.68a9.62,9.62,0,0,0,7.11-2.73l4.36,4.73c-2.63,3-6.57,4.58-11.68,4.58-9.78,0-16.15-6.15-16.15-14.57s6.47-14.58,15.1-14.58c8.31,0,14.73,5.58,14.73,14.68C431.8,101.92,431.7,102.82,431.64,103.5Zm-21.51-4.79h13.94a7.07,7.07,0,0,0-13.94,0Z"/><path class="a" d="M465.37,87l-11.94,28.31H445L433.07,87h8.47l7.84,19.26L457.48,87Z"/><path class="a" d="M476.58,85.46H464.8V78.51h32.09v6.95H485.11v29.88h-8.53Z"/><path class="a" d="M496.42,101.19c0-8.53,6.58-14.58,15.58-14.58s15.52,6,15.52,14.58S521,115.76,512,115.76,496.42,109.71,496.42,101.19Zm22.78,0c0-4.9-3.1-7.84-7.2-7.84s-7.26,2.94-7.26,7.84S507.89,109,512,109,519.2,106.08,519.2,101.19Z"/><path class="a" d="M531.42,101.19c0-8.53,6.57-14.58,15.57-14.58s15.52,6,15.52,14.58S556,115.76,547,115.76,531.42,109.71,531.42,101.19Zm22.78,0c0-4.9-3.11-7.84-7.21-7.84s-7.26,2.94-7.26,7.84S542.88,109,547,109,554.2,106.08,554.2,101.19Z"/><path class="a" d="M568.51,76.3h8.21v39h-8.21Z"/><path class="a" d="M582.14,112.71l2.74-5.89a19.33,19.33,0,0,0,9.83,2.73c3.79,0,5.21-1,5.21-2.58,0-4.63-17.1.11-17.1-11.2,0-5.37,4.84-9.16,13.1-9.16,3.9,0,8.21.9,10.9,2.48l-2.74,5.84a16.26,16.26,0,0,0-8.16-2.11c-3.68,0-5.26,1.16-5.26,2.63,0,4.84,17.1.16,17.1,11.31,0,5.26-4.89,9-13.36,9C589.61,115.76,584.77,114.44,582.14,112.71Z"/><path class="b" d="M201.94,46.85V50H187V30h14.59v3.11H190.67v5.2h9.65v3.05h-9.65v5.51Z"/><path class="b" d="M239.11,40c0-6,4.56-10.28,10.7-10.28A10.12,10.12,0,0,1,257.72,33l-2.4,2.26A7,7,0,0,0,250,33a6.81,6.81,0,0,0-7.13,7A6.81,6.81,0,0,0,250,47a6.93,6.93,0,0,0,5.34-2.37l2.4,2.29a10.15,10.15,0,0,1-7.94,3.34C243.67,50.25,239.11,45.94,239.11,40Z"/><path class="b" d="M295.82,30h3.71V46.82H310V50H295.82Z"/><path class="b" d="M347.46,30h3.71V50h-3.71Z"/><path class="b" d="M407.83,37.09c0,4.39-3.25,7.11-8.5,7.11h-4.52V50H391.1V30h8.23C404.58,30,407.83,32.66,407.83,37.09Zm-3.74,0c0-2.51-1.68-4-4.94-4h-4.34v7.94h4.34C402.41,41.06,404.09,39.6,404.09,37.09Z"/><path class="b" d="M444.68,47.85,446,45a11.08,11.08,0,0,0,6.59,2.2c3.11,0,4.43-1.12,4.43-2.6,0-4.31-11.88-1.49-11.88-8.91,0-3.23,2.57-6,8.05-6a12.64,12.64,0,0,1,6.65,1.77l-1.17,2.89a11.08,11.08,0,0,0-5.51-1.57c-3.08,0-4.34,1.2-4.34,2.71,0,4.25,11.85,1.48,11.85,8.82,0,3.2-2.6,5.94-8.08,5.94C449.45,50.25,446.34,49.28,444.68,47.85Z"/><path class="b" d="M513.85,46.85V50h-15V30h14.59v3.11H502.57v5.2h9.65v3.05h-9.65v5.51Z"/><path class="b" d="M158.19,89.42c0-.41,0-.81-.06-1.22a26,26,0,0,1-22.39,24.56A64.75,64.75,0,1,0,31.05,113H24.74A17.18,17.18,0,0,1,7.6,96.92c0,.44,0,.89,0,1.35a17.19,17.19,0,0,0,17.19,17.19h8.19a64.72,64.72,0,0,0,100.8-.08A26,26,0,0,0,158.19,89.42Z"/><path class="c" d="M132.15,60.94a25.89,25.89,0,0,0-10.78,2.34,23.84,23.84,0,0,1,.75,6A24.08,24.08,0,0,1,114.3,87,24.11,24.11,0,0,0,80.23,52.94a24.11,24.11,0,0,1,40.91,9.5,25.84,25.84,0,0,1,10.13-3.15A44.89,44.89,0,0,0,44,56.17a27.48,27.48,0,0,1,18.32,7.4,27.91,27.91,0,0,0-40.15,37.62,27.18,27.18,0,0,1-6-20.61c-5.55,2.84-8.58,8.58-8.58,15.26A17.19,17.19,0,0,0,24.74,113H132.15a26,26,0,0,0,0-52.09Z"/><path class="d" d="M25.9,42.41a67.3,67.3,0,0,1,86.18-28c-1-.63-1.94-1.22-3-1.79A67.08,67.08,0,0,0,42.75,129.2h0q2.09,1.19,4.21,2.2A67.08,67.08,0,0,1,25.9,42.41Z"/></svg>