<?xml version="1.0" encoding="utf-8"?>
<!-- Generator: Adobe Illustrator 24.0.3, SVG Export Plug-In . SVG Version: 6.00 Build 0)  -->
<svg version="1.1" id="Layer_1" xmlns="http://www.w3.org/2000/svg" xmlns:xlink="http://www.w3.org/1999/xlink" x="0px" y="0px"
	 viewBox="0 0 108.3 122" style="enable-background:new 0 0 108.3 122;" xml:space="preserve">
<style type="text/css">
	.st0{fill:#F89521;}
	.st1{fill:url(#SVGID_1_);}
	.st2{fill:url(#SVGID_2_);}
	.st3{fill:url(#SVGID_3_);}
	.st4{fill:#2C2255;stroke:#2C2255;stroke-width:0.3197;}
</style>
<g>
	<path class="st0" d="M29.2,80.3c-14.9,0-27.1-12.1-27.1-26.9s12.2-26.9,27.1-26.9c7.2,0,13.9,2.8,19,7.9c3.3,3.3,4.5,5.9,6.4,9.9
		c1.7,3.6,3.9,8.1,8.4,15.2c4.1,6.9,9.1,10.3,15.2,10.3h0.5C87.8,69.5,95,62.4,95,53.5c0-9-7.4-16.3-16.5-16.3
		c-6.6,0-13.5,5.7-16,10.3c-0.6-1.1-1.2-2.2-1.8-3.2c-1.6-2.8-2.9-5.1-4-7c4.8-5.4,13.6-10.8,21.8-10.8c14.9,0,27.1,12.1,27.1,26.9
		S93.8,80,78.7,80.3h-0.4c-11.2,0-19.9-7.2-23.6-14.4l-0.1-0.3l-0.4-0.8c-7.4-13.8-11.8-21.3-13.5-23c-3.1-3.1-7.2-4.8-11.5-4.8
		c-9.1,0-16.5,7.3-16.5,16.3s7.4,16.3,16.5,16.3c6.3,0,12.9-5,15.9-10c2.2,4,3.4,6.2,4,7.5c0.9,1.6,1,1.9,1.5,2.8
		C45.9,75,37.4,80.3,29.2,80.3z"/>
</g>
<linearGradient id="SVGID_1_" gradientUnits="userSpaceOnUse" x1="53.9603" y1="102.6599" x2="53.9603" y2="125.248" gradientTransform="matrix(1 0 0 -1 0 127.2523)">
	<stop  offset="0" style="stop-color:#B15B27"/>
	<stop  offset="4.657672e-02" style="stop-color:#B86127"/>
	<stop  offset="0.2794" style="stop-color:#D67B25"/>
	<stop  offset="0.4821" style="stop-color:#EC8D23"/>
	<stop  offset="0.6309" style="stop-color:#F89521"/>
</linearGradient>
<path class="st1" d="M69.6,24.6c-2-7-8.4-12-15.6-12c-7.1,0-13.6,4.9-15.6,11.9c-2.8-0.8-5.9-1.2-8.8-1.2c-0.7,0-1.3,0-1.9,0.1
	c2.9-12.2,14-21.3,26.4-21.3c12.5,0,23.4,8.7,26.2,20.9C76.6,23,73,23.5,69.6,24.6z"/>
<linearGradient id="SVGID_2_" gradientUnits="userSpaceOnUse" x1="56.8603" y1="90.2261" x2="86.4603" y2="90.2261" gradientTransform="matrix(1 0 0 -1 0 127.2523)">
	<stop  offset="0" style="stop-color:#B15B27"/>
	<stop  offset="1" style="stop-color:#F89521"/>
</linearGradient>
<path class="st2" d="M78.7,26.5c-8.2,0-17,5.3-21.8,10.8c1.1,1.9,2.4,4.1,4,7c0.6,1,1.2,2.1,1.8,3.2c2.5-4.6,9.4-10.3,16-10.3
	c2.8,0,5.5,0.7,7.8,1.9V27.6C84.1,26.9,81.5,26.5,78.7,26.5z"/>
<linearGradient id="SVGID_3_" gradientUnits="userSpaceOnUse" x1="21.0891" y1="57.2761" x2="50.7891" y2="57.2761" gradientTransform="matrix(1 0 0 -1 0 127.2523)">
	<stop  offset="0" style="stop-color:#F89521"/>
	<stop  offset="1" style="stop-color:#B15B27"/>
</linearGradient>
<path class="st3" d="M29.4,80.3c8.3,0,16.8-5.3,21.5-10.4c-0.5-0.9-0.7-1.1-1.5-2.8c-0.7-1.3-1.8-3.4-4-7.5c-2.9,5-9.6,10-15.9,10
	c-3,0-5.8-0.8-8.3-2.2v11.5C23.7,79.8,26.5,80.3,29.4,80.3z"/>
<g>
	<polygon class="st4" points="2.3,103.4 8.9,103.4 8.9,101.7 4,101.7 4,99.3 8.1,99.3 7.7,97.6 4,97.6 4,95.3 8.9,95.3 8.9,93.6 
		2.3,93.6 	"/>
	<path class="st4" d="M18.9,102.1l-1.2-1.2c-0.3,0.3-0.7,0.6-1.1,0.7c-0.4,0.2-0.9,0.3-1.3,0.3c-0.5,0-0.9-0.1-1.3-0.3
		c-0.4-0.2-0.8-0.4-1.1-0.7c-0.3-0.3-0.6-0.7-0.7-1.1c-0.2-0.4-0.3-0.9-0.3-1.3s0.1-0.9,0.3-1.3c0.2-0.4,0.4-0.8,0.7-1.1
		c0.3-0.3,0.7-0.6,1.1-0.7c0.4-0.2,0.8-0.3,1.3-0.3s0.9,0.1,1.3,0.3c0.4,0.2,0.8,0.4,1.1,0.7l1.2-1.2c-0.5-0.5-1-0.8-1.6-1.1
		s-1.3-0.4-2-0.4s-1.4,0.1-2,0.4s-1.2,0.6-1.6,1.1c-0.5,0.5-0.8,1-1.1,1.6c-0.3,0.6-0.4,1.3-0.4,2s0.1,1.4,0.4,2s0.6,1.2,1.1,1.6
		c0.5,0.5,1,0.8,1.6,1.1s1.3,0.4,2,0.4s1.4-0.1,2-0.4S18.5,102.5,18.9,102.1z"/>
	<polygon class="st4" points="21.9,93.6 20.2,93.6 20.2,101.7 20.2,103.4 21.9,103.4 25.7,103.4 25.7,101.7 21.9,101.7 	"/>
	<rect x="27.4" y="93.6" class="st4" width="1.7" height="9.8"/>
	<path class="st4" d="M34.4,98.9h-0.7l-0.7,1.7h1.4c0.5,0,0.9-0.1,1.4-0.3c0.4-0.2,0.8-0.4,1.1-0.8s0.6-0.7,0.8-1.1S38,97.5,38,97
		s-0.1-0.9-0.3-1.4c-0.2-0.4-0.4-0.8-0.8-1.1s-0.7-0.6-1.1-0.8c-0.4-0.2-0.9-0.3-1.4-0.3h-3.7v9.8h1.7v-8.1h2c0.5,0,0.9,0.2,1.3,0.5
		c0.4,0.3,0.5,0.8,0.5,1.3s-0.2,0.9-0.5,1.3C35.4,98.8,34.9,98.9,34.4,98.9z"/>
	<path class="st4" d="M45,98.5c-0.2-0.1-0.4-0.3-0.6-0.4c-0.2-0.1-0.4-0.2-0.6-0.3s-0.3-0.1-0.5-0.2c-0.1,0-0.2-0.1-0.3-0.1h-0.2
		c-0.2,0-0.4-0.1-0.5-0.2c-0.2-0.1-0.4-0.1-0.6-0.2c-0.2-0.1-0.4-0.2-0.5-0.4c-0.2-0.2-0.3-0.4-0.3-0.6c0-0.4,0.2-0.7,0.6-1
		c0.1-0.1,0.3-0.1,0.5-0.2c0.2,0,0.4-0.1,0.6-0.1c0.4,0,0.8,0.1,1.2,0.3c0.3,0.1,0.5,0.3,0.8,0.6l1.2-1.2c-0.1-0.1-0.2-0.1-0.3-0.2
		s-0.2-0.2-0.4-0.2c-0.3-0.2-0.6-0.3-1.1-0.5s-1-0.2-1.7-0.2c-0.4,0-0.7,0.1-1.1,0.2c-0.4,0.1-0.7,0.3-1,0.5s-0.6,0.5-0.7,0.9
		s-0.3,0.8-0.3,1.4c0,0.8,0.4,1.5,1.3,2.1c0.4,0.2,0.7,0.4,1.1,0.6s0.7,0.2,0.8,0.3h0.1h0.1h0.1c0.1,0,0.3,0.1,0.5,0.2
		s0.4,0.1,0.5,0.2c0.2,0.1,0.4,0.2,0.5,0.4c0.2,0.2,0.3,0.4,0.3,0.6c0,0.4-0.2,0.7-0.5,0.9c-0.1,0.1-0.3,0.2-0.5,0.2
		c-0.2,0.1-0.4,0.1-0.7,0.1c-0.1,0-0.3,0-0.5,0s-0.4-0.1-0.7-0.2c-0.4-0.1-0.7-0.4-1-0.6l-1.2,1.2c0.4,0.3,0.9,0.6,1.5,0.8
		c0.6,0.2,1.3,0.4,2.1,0.4c0.5,0,0.9-0.1,1.3-0.2c0.4-0.1,0.7-0.3,1-0.6c0.3-0.3,0.5-0.6,0.6-0.9c0.1-0.4,0.2-0.8,0.2-1.2
		C46.3,99.8,45.9,99.1,45,98.5z"/>
	<polygon class="st4" points="54.4,101.7 49.4,101.7 49.4,99.3 53.5,99.3 53.1,97.6 49.4,97.6 49.4,95.3 54.4,95.3 54.4,93.6 
		47.8,93.6 47.8,103.4 54.4,103.4 	"/>
	<path class="st4" d="M66.6,100.9c-0.3,0.3-0.7,0.6-1.1,0.7c-0.4,0.2-0.9,0.3-1.3,0.3c-0.5,0-0.9-0.1-1.3-0.3
		c-0.4-0.2-0.8-0.4-1.1-0.7c-0.3-0.3-0.6-0.7-0.7-1.1c-0.2-0.4-0.3-0.9-0.3-1.3s0.1-0.9,0.3-1.3c0.2-0.4,0.4-0.8,0.7-1.1
		c0.3-0.3,0.7-0.6,1.1-0.7c0.4-0.2,0.8-0.3,1.3-0.3s0.9,0.1,1.3,0.3c0.4,0.2,0.8,0.4,1.1,0.7l1.2-1.2c-0.5-0.5-1-0.8-1.6-1.1
		s-1.3-0.4-2-0.4s-1.4,0.1-2,0.4s-1.2,0.6-1.6,1.1c-0.5,0.5-0.8,1-1.1,1.6c-0.3,0.6-0.4,1.3-0.4,2s0.1,1.4,0.4,2s0.6,1.2,1.1,1.6
		c0.5,0.5,1,0.8,1.6,1.1s1.3,0.4,2,0.4s1.4-0.1,2-0.4s1.2-0.6,1.6-1.1L66.6,100.9z"/>
	<polygon class="st4" points="74.5,103.4 74.5,101.7 70.7,101.7 70.7,93.6 69,93.6 69,101.7 69,103.4 70.7,103.4 	"/>
	<path class="st4" d="M85,96.5c-0.3-0.6-0.6-1.2-1.1-1.6s-1-0.8-1.6-1.1s-1.3-0.4-2-0.4s-1.4,0.1-2,0.4s-1.2,0.6-1.6,1.1
		s-0.8,1-1.1,1.6s-0.4,1.3-0.4,2s0.1,1.4,0.4,2s0.6,1.2,1.1,1.6c0.5,0.5,1,0.8,1.6,1.1s1.3,0.4,2,0.4s1.4-0.1,2-0.4s1.2-0.6,1.6-1.1
		c0.5-0.5,0.8-1,1.1-1.6c0.3-0.6,0.4-1.3,0.4-2C85.4,97.8,85.3,97.1,85,96.5z M83.5,99.8c-0.2,0.4-0.4,0.8-0.7,1.1
		c-0.3,0.3-0.7,0.6-1.1,0.7c-0.4,0.2-0.9,0.3-1.3,0.3s-0.9-0.1-1.3-0.3c-0.4-0.2-0.8-0.4-1.1-0.7c-0.3-0.3-0.6-0.7-0.7-1.1
		c-0.2-0.4-0.3-0.9-0.3-1.3s0.1-0.9,0.3-1.3c0.2-0.4,0.4-0.8,0.7-1.1c0.3-0.3,0.7-0.6,1.1-0.7s0.8-0.3,1.3-0.3s0.9,0.1,1.3,0.3
		s0.8,0.4,1.1,0.7c0.3,0.3,0.6,0.7,0.7,1.1c0.2,0.4,0.3,0.8,0.3,1.3S83.6,99.4,83.5,99.8z"/>
	<path class="st4" d="M93.3,99.5c0,0.3-0.1,0.6-0.2,0.9s-0.3,0.6-0.5,0.8c-0.5,0.5-1.1,0.7-1.7,0.7c-0.3,0-0.6-0.1-0.9-0.2
		s-0.6-0.3-0.8-0.5c-0.2-0.2-0.4-0.5-0.5-0.8s-0.2-0.6-0.2-0.9v-5.9h-1.7v5.9c0,0.6,0.1,1.1,0.3,1.6c0.2,0.5,0.5,0.9,0.9,1.3
		s0.8,0.7,1.3,0.9c0.5,0.2,1,0.3,1.6,0.3s1.1-0.1,1.6-0.3c0.5-0.2,0.9-0.5,1.3-0.9s0.7-0.8,0.9-1.3c0.2-0.5,0.3-1,0.3-1.6v-5.9h-1.7
		V99.5z"/>
	<path class="st4" d="M105.1,96.6c-0.3-0.6-0.6-1.1-1.1-1.6c-0.4-0.4-1-0.8-1.6-1.1s-1.2-0.4-1.9-0.4h-4.1v9.8h1.7v-1.7v-2.4v-4.1
		h2.4c0.4,0,0.8,0.1,1.2,0.2s0.7,0.4,1.1,0.7c0.3,0.3,0.5,0.7,0.7,1.1s0.2,0.8,0.2,1.2c0,0.4-0.1,0.9-0.2,1.2
		c-0.2,0.4-0.4,0.7-0.7,1c-0.3,0.3-0.7,0.5-1.1,0.7s-0.8,0.2-1.2,0.2h-1.1l-0.7,1.7h1.7c0.7,0,1.3-0.1,1.9-0.4s1.1-0.6,1.6-1.1
		c0.4-0.4,0.8-1,1.1-1.6c0.3-0.6,0.4-1.2,0.4-1.9C105.5,97.8,105.4,97.2,105.1,96.6z"/>
	<path class="st4" d="M23.1,111.8c-0.4-0.4-1-0.8-1.6-1.1s-1.2-0.4-1.9-0.4h-4.1v9.8h1.7v-1.7V116v-4.1h2.4c0.4,0,0.8,0.1,1.2,0.2
		s0.7,0.4,1.1,0.7c0.3,0.3,0.5,0.7,0.7,1.1s0.2,0.8,0.2,1.2c0,0.4-0.1,0.9-0.2,1.2c-0.2,0.4-0.4,0.7-0.7,1s-0.7,0.5-1.1,0.7
		s-0.8,0.2-1.2,0.2h-1.1l-0.7,1.7h1.7c0.7,0,1.3-0.1,1.9-0.4s1.1-0.6,1.6-1.1c0.4-0.4,0.8-1,1.1-1.6s0.4-1.2,0.4-1.9
		c0-0.7-0.1-1.3-0.4-1.9S23.5,112.3,23.1,111.8z"/>
	<polygon class="st4" points="26,120.2 32.6,120.2 32.6,118.5 27.6,118.5 27.6,116.1 31.7,116.1 31.3,114.4 27.6,114.4 27.6,112.1 
		32.6,112.1 32.6,110.4 26,110.4 	"/>
	<polygon class="st4" points="38.5,117.9 35.5,110.4 33.7,110.4 37.6,120.2 39.4,120.2 43.1,110.4 41.3,110.4 	"/>
	<polygon class="st4" points="50.3,110.4 47.4,110.4 47.4,112.1 50.3,112.1 50.3,120.2 52,120.2 52,112.1 54.9,112.1 54.9,110.4 
		52,110.4 	"/>
	<path class="st4" d="M64,111.7c-0.5-0.5-1-0.8-1.6-1.1s-1.3-0.4-2-0.4s-1.4,0.1-2,0.4s-1.2,0.6-1.6,1.1s-0.8,1-1.1,1.6
		s-0.4,1.3-0.4,2s0.1,1.4,0.4,2s0.6,1.2,1.1,1.6c0.5,0.5,1,0.8,1.6,1.1s1.3,0.4,2,0.4s1.4-0.1,2-0.4s1.2-0.6,1.6-1.1
		c0.5-0.5,0.8-1,1.1-1.6c0.3-0.6,0.4-1.3,0.4-2s-0.1-1.4-0.4-2S64.5,112.1,64,111.7z M63.6,116.6c-0.2,0.4-0.4,0.8-0.7,1.1
		c-0.3,0.3-0.7,0.6-1.1,0.7c-0.4,0.2-0.9,0.3-1.3,0.3s-0.9-0.1-1.3-0.3c-0.4-0.2-0.8-0.4-1.1-0.7c-0.3-0.3-0.6-0.7-0.7-1.1
		c-0.2-0.4-0.3-0.9-0.3-1.3s0.1-0.9,0.3-1.3c0.2-0.4,0.4-0.8,0.7-1.1c0.3-0.3,0.7-0.6,1.1-0.7s0.8-0.3,1.3-0.3s0.9,0.1,1.3,0.3
		s0.8,0.4,1.1,0.7c0.3,0.3,0.6,0.7,0.7,1.1c0.2,0.4,0.3,0.8,0.3,1.3S63.8,116.2,63.6,116.6z"/>
	<path class="st4" d="M75.5,111.7c-0.5-0.5-1-0.8-1.6-1.1s-1.3-0.4-2-0.4s-1.4,0.1-2,0.4s-1.2,0.6-1.6,1.1s-0.8,1-1.1,1.6
		s-0.4,1.3-0.4,2s0.1,1.4,0.4,2s0.6,1.2,1.1,1.6c0.5,0.5,1,0.8,1.6,1.1s1.3,0.4,2,0.4s1.4-0.1,2-0.4s1.2-0.6,1.6-1.1
		c0.5-0.5,0.8-1,1.1-1.6c0.3-0.6,0.4-1.3,0.4-2s-0.1-1.4-0.4-2S76,112.1,75.5,111.7z M75.1,116.6c-0.2,0.4-0.4,0.8-0.7,1.1
		c-0.3,0.3-0.7,0.6-1.1,0.7c-0.4,0.2-0.9,0.3-1.3,0.3s-0.9-0.1-1.3-0.3c-0.4-0.2-0.8-0.4-1.1-0.7c-0.3-0.3-0.6-0.7-0.7-1.1
		c-0.2-0.4-0.3-0.9-0.3-1.3s0.1-0.9,0.3-1.3c0.2-0.4,0.4-0.8,0.7-1.1c0.3-0.3,0.7-0.6,1.1-0.7s0.8-0.3,1.3-0.3s0.9,0.1,1.3,0.3
		s0.8,0.4,1.1,0.7c0.3,0.3,0.6,0.7,0.7,1.1c0.2,0.4,0.3,0.8,0.3,1.3S75.3,116.2,75.1,116.6z"/>
	<polygon class="st4" points="80.1,110.4 78.5,110.4 78.5,118.5 78.5,120.2 80.1,120.2 84,120.2 84,118.5 80.1,118.5 	"/>
	<path class="st4" d="M90.9,115.3c-0.2-0.1-0.4-0.3-0.6-0.4s-0.4-0.2-0.6-0.3s-0.3-0.1-0.5-0.2c-0.1,0-0.2-0.1-0.3-0.1h-0.2
		c-0.2,0-0.4-0.1-0.5-0.2c-0.2-0.1-0.4-0.1-0.6-0.2s-0.4-0.2-0.5-0.4c-0.2-0.2-0.3-0.4-0.3-0.6c0-0.4,0.2-0.7,0.6-1
		c0.1-0.1,0.3-0.1,0.5-0.2c0.2,0,0.4-0.1,0.6-0.1c0.4,0,0.8,0.1,1.2,0.3c0.3,0.1,0.5,0.3,0.8,0.6l1.2-1.2c-0.1-0.1-0.2-0.1-0.3-0.2
		c-0.1-0.1-0.2-0.2-0.4-0.2c-0.3-0.2-0.6-0.3-1.1-0.5s-1-0.2-1.7-0.2c-0.4,0-0.7,0.1-1.1,0.2s-0.7,0.3-1,0.5s-0.6,0.5-0.7,0.9
		s-0.3,0.8-0.3,1.4c0,0.8,0.4,1.5,1.3,2.1c0.4,0.2,0.7,0.4,1.1,0.6s0.7,0.2,0.8,0.3h0.1h0.1h0.1c0.1,0,0.3,0.1,0.5,0.2
		s0.4,0.1,0.5,0.2c0.2,0.1,0.4,0.2,0.5,0.4c0.2,0.2,0.3,0.4,0.3,0.6c0,0.4-0.2,0.7-0.5,0.9c-0.1,0.1-0.3,0.2-0.5,0.2
		c-0.2,0.1-0.4,0.1-0.7,0.1c-0.1,0-0.3,0-0.5,0s-0.4-0.1-0.7-0.2c-0.4-0.1-0.7-0.4-1-0.6l-1.2,1.2c0.4,0.3,0.9,0.6,1.5,0.8
		s1.3,0.4,2.1,0.4c0.5,0,0.9-0.1,1.3-0.2c0.4-0.1,0.7-0.3,1-0.6s0.5-0.6,0.6-0.9c0.1-0.4,0.2-0.8,0.2-1.2
		C92.3,116.6,91.8,115.9,90.9,115.3z"/>
</g>
</svg>
