<?xml version="1.0" encoding="utf-8"?>
<!-- Generator: Adobe Illustrator 24.0.3, SVG Export Plug-In . SVG Version: 6.00 Build 0)  -->
<svg version="1.1" id="Layer_1" xmlns="http://www.w3.org/2000/svg" xmlns:xlink="http://www.w3.org/1999/xlink" x="0px" y="0px"
	 viewBox="0 0 233.6 58.5" style="enable-background:new 0 0 233.6 58.5;" xml:space="preserve">
<style type="text/css">
	.st0{fill:#FFFFFF;}
</style>
<g>
	<g>
		<path class="st0" d="M23,55.6c-10,0-18.2-8.1-18.2-18s8.1-18,18.2-18c4.8,0,9.3,1.9,12.7,5.3c2.2,2.2,3,4,4.3,6.6
			c1.2,2.4,2.6,5.4,5.6,10.1c2.8,4.6,6.1,6.9,10.2,6.9h0.4c6.1-0.2,10.9-5,10.9-10.9c0-6-5-10.9-11-10.9c-4.4,0-9.1,3.8-10.7,6.9
			c-0.4-0.8-0.8-1.5-1.2-2.1c-1.1-1.9-1.9-3.4-2.7-4.7c3.2-3.6,9.1-7.2,14.6-7.2c10,0,18.2,8.1,18.2,18s-7.9,17.8-18,18H56
			c-7.5,0-13.3-4.8-15.8-9.6L40,45.8l-0.3-0.5c-4.9-9.2-7.9-14.3-9-15.4c-2.1-2.1-4.8-3.2-7.7-3.2c-6.1,0-11,4.9-11,10.9
			s5,10.9,11,10.9c4.2,0,8.7-3.4,10.6-6.7c1.5,2.7,2.2,4.1,2.7,5c0.6,1.1,0.7,1.2,1,1.8C34.2,52.1,28.5,55.6,23,55.6z"/>
	</g>
	<path class="st0" d="M50.1,18.3c-1.3-4.7-5.6-8-10.5-8c-4.8,0-9.1,3.3-10.5,7.9c-1.9-0.5-4-0.8-5.9-0.8c-0.4,0-0.9,0-1.3,0
		c1.9-8.2,9.4-14.3,17.7-14.3c8.4,0,15.6,5.8,17.5,14C54.7,17.2,52.4,17.6,50.1,18.3z"/>
	<path class="st0" d="M56.2,19.6c-5.5,0-11.4,3.6-14.6,7.2c0.8,1.2,1.6,2.8,2.7,4.7c0.4,0.7,0.8,1.4,1.2,2.1
		c1.7-3.1,6.3-6.9,10.7-6.9c1.9,0,3.7,0.5,5.2,1.3v-7.6C59.8,19.9,58,19.6,56.2,19.6z"/>
	<path class="st0" d="M23.2,55.6c5.5,0,11.2-3.6,14.4-7c-0.4-0.6-0.4-0.8-1-1.8c-0.5-0.9-1.2-2.3-2.7-5c-2,3.3-6.4,6.7-10.6,6.7
		c-2,0-3.9-0.5-5.5-1.5v7.7C19.4,55.3,21.2,55.6,23.2,55.6z"/>
</g>
<g>
	<polygon class="st0" points="94.7,23.1 87.8,23.1 87.8,20.1 93.6,20.1 92.9,17.4 87.8,17.4 87.8,14.4 94.7,14.4 94.7,11.6 
		85.1,11.6 85.1,25.8 94.7,25.8 	"/>
	<path class="st0" d="M103.4,26.1c1,0,2-0.2,2.9-0.6s1.7-0.9,2.3-1.6l0.1-0.1l-1.9-1.9l-0.1,0.1c-0.4,0.4-1,0.8-1.5,1
		c-1.1,0.5-2.4,0.5-3.6,0c-0.6-0.2-1.1-0.6-1.5-1s-0.8-1-1-1.5c-0.2-0.6-0.4-1.2-0.4-1.8c0-0.6,0.1-1.2,0.4-1.8
		c0.2-0.6,0.6-1.1,1-1.5s1-0.8,1.5-1c1.1-0.5,2.5-0.5,3.6,0c0.6,0.2,1.1,0.6,1.5,1l0.1,0.1l1.9-1.9l-0.1-0.1
		c-0.7-0.7-1.5-1.2-2.3-1.6c-0.9-0.4-1.9-0.6-2.9-0.6s-2,0.2-2.9,0.6c-0.9,0.4-1.7,0.9-2.3,1.6c-0.7,0.7-1.2,1.5-1.6,2.3
		c-0.4,0.9-0.6,1.9-0.6,2.9s0.2,2,0.6,2.9s0.9,1.7,1.6,2.3c0.7,0.7,1.5,1.2,2.3,1.6C101.5,25.9,102.4,26.1,103.4,26.1z"/>
	<polygon class="st0" points="118.1,23.1 112.7,23.1 112.7,11.7 110,11.7 110,25.8 118.1,25.8 	"/>
	<rect x="120.1" y="11.7" class="st0" width="2.7" height="14.2"/>
	<path class="st0" d="M130,19.2h-1.1l-1.1,2.7h2.2c0.7,0,1.4-0.1,2-0.4s1.2-0.6,1.6-1.1c0.5-0.5,0.8-1,1.1-1.6s0.4-1.3,0.4-2
		s-0.1-1.4-0.4-2c-0.3-0.6-0.6-1.2-1.1-1.6c-0.5-0.5-1-0.8-1.6-1.1s-1.3-0.4-2-0.4h-5.3v14.2h2.7V14.4h2.6c0.7,0,1.2,0.2,1.7,0.7
		s0.7,1,0.7,1.7s-0.2,1.2-0.7,1.7S130.6,19.2,130,19.2z"/>
	<path class="st0" d="M138.3,18.8L138.3,18.8c0.5,0.3,1.1,0.6,1.6,0.8c0.5,0.2,0.9,0.3,1.2,0.4c0.1,0,0.1,0,0.1,0.1
		c0.1,0,0.1,0,0.2,0.1h0.1c0.2,0.1,0.5,0.1,0.7,0.2s0.5,0.2,0.7,0.3c0.3,0.1,0.5,0.3,0.7,0.5s0.3,0.5,0.3,0.8c0,0.5-0.2,0.9-0.6,1.2
		c-0.2,0.1-0.4,0.2-0.7,0.3c-0.3,0.1-0.6,0.1-0.9,0.1c-0.2,0-0.4,0-0.7-0.1c-0.3,0-0.6-0.1-0.9-0.2c-0.5-0.2-1-0.5-1.4-0.9l-0.1-0.1
		l-1.9,1.9l0.1,0.1c0.6,0.5,1.3,0.9,2.2,1.2c0.9,0.4,1.9,0.5,3,0.5c0.7,0,1.3-0.1,1.9-0.3c0.6-0.2,1.1-0.5,1.5-0.9s0.7-0.8,0.9-1.4
		c0.2-0.5,0.3-1.1,0.3-1.8c0-1.2-0.7-2.3-2-3.1c-0.3-0.2-0.6-0.4-0.9-0.5c-0.3-0.1-0.6-0.3-0.8-0.4c-0.3-0.1-0.5-0.2-0.7-0.2
		s-0.3-0.1-0.4-0.1l-0.2-0.1c-0.2-0.1-0.5-0.1-0.8-0.2s-0.5-0.2-0.8-0.3c-0.3-0.1-0.5-0.3-0.7-0.5c-0.2-0.2-0.3-0.5-0.3-0.8
		c0-0.5,0.3-0.9,0.8-1.3c0.2-0.1,0.4-0.2,0.7-0.2c0.8-0.2,1.7-0.1,2.4,0.3c0.4,0.2,0.7,0.4,1,0.8l0.1,0.1l1.9-1.9L146,13
		c-0.1-0.1-0.2-0.2-0.4-0.3c-0.1-0.1-0.3-0.2-0.5-0.4c-0.4-0.2-0.9-0.5-1.6-0.7c-0.7-0.2-1.5-0.3-2.4-0.3c-0.5,0-1.1,0.1-1.6,0.2
		c-0.6,0.2-1.1,0.4-1.5,0.8c-0.5,0.4-0.8,0.8-1.1,1.4c-0.3,0.6-0.4,1.2-0.4,2C136.5,17,137.1,18,138.3,18.8z"/>
	<polygon class="st0" points="157.9,23.1 151,23.1 151,20.1 156.8,20.1 156.1,17.4 151,17.4 151,14.4 157.9,14.4 157.9,11.6 
		148.3,11.6 148.3,25.8 157.9,25.8 	"/>
	<path class="st0" d="M176.5,23.9l0.1-0.1l-1.9-1.9l-0.1,0.1c-0.4,0.4-1,0.8-1.5,1c-1.1,0.5-2.4,0.5-3.6,0c-0.6-0.2-1.1-0.6-1.5-1
		s-0.8-1-1-1.5c-0.2-0.6-0.4-1.2-0.4-1.8c0-0.6,0.1-1.2,0.4-1.8c0.2-0.6,0.6-1.1,1-1.5s1-0.8,1.5-1c1.1-0.5,2.5-0.5,3.6,0
		c0.6,0.2,1.1,0.6,1.5,1l0.1,0.1l1.9-1.9l-0.1-0.1c-0.7-0.7-1.5-1.2-2.3-1.6c-0.9-0.4-1.9-0.6-2.9-0.6s-2,0.2-2.9,0.6
		c-0.9,0.4-1.7,0.9-2.3,1.6c-0.7,0.7-1.2,1.5-1.6,2.3c-0.4,0.9-0.6,1.9-0.6,2.9s0.2,2,0.6,2.9c0.4,0.9,0.9,1.7,1.6,2.3
		c0.7,0.7,1.5,1.2,2.3,1.6c0.9,0.4,1.9,0.6,2.9,0.6s2-0.2,2.9-0.6C175.1,25.1,175.9,24.6,176.5,23.9z"/>
	<polygon class="st0" points="186,23.1 180.5,23.1 180.5,11.7 177.8,11.7 177.8,25.8 186,25.8 	"/>
	<path class="st0" d="M199,13.5L199,13.5c-0.7-0.7-1.5-1.2-2.3-1.6c-0.9-0.4-1.9-0.6-2.9-0.6s-2,0.2-2.9,0.6
		c-0.9,0.4-1.7,0.9-2.3,1.6c-0.7,0.7-1.2,1.5-1.6,2.3c-0.4,0.9-0.6,1.9-0.6,2.9s0.2,2,0.6,2.9c0.4,0.9,0.9,1.7,1.6,2.3
		c0.7,0.7,1.5,1.2,2.3,1.6c0.9,0.4,1.9,0.6,2.9,0.6s2-0.2,2.9-0.6s1.7-0.9,2.3-1.6c0.7-0.7,1.2-1.5,1.6-2.3c0.4-0.9,0.6-1.9,0.6-2.9
		s-0.2-2-0.6-2.9C200.2,15,199.7,14.2,199,13.5z M198.4,18.7c0,0.6-0.1,1.2-0.3,1.8c-0.2,0.6-0.6,1.1-1,1.5s-1,0.8-1.5,1
		c-1.1,0.5-2.4,0.5-3.6,0c-0.6-0.2-1.1-0.6-1.5-1s-0.8-1-1-1.5c-0.2-0.6-0.4-1.2-0.4-1.8c0-0.6,0.1-1.2,0.4-1.8
		c0.2-0.6,0.6-1.1,1-1.5s1-0.8,1.5-1c0.6-0.2,1.2-0.4,1.8-0.4s1.2,0.1,1.8,0.4c0.6,0.2,1.1,0.6,1.5,1s0.8,1,1,1.5
		C198.3,17.5,198.4,18.1,198.4,18.7z"/>
	<path class="st0" d="M211.8,20.1c0,0.4-0.1,0.9-0.2,1.3c-0.2,0.4-0.4,0.8-0.7,1.1c-0.6,0.6-1.4,1-2.3,1c-0.4,0-0.9-0.1-1.3-0.2
		c-0.4-0.2-0.8-0.4-1.1-0.7c-0.3-0.3-0.6-0.7-0.7-1.1c-0.2-0.4-0.2-0.8-0.2-1.3v-8.5h-2.7v8.5c0,0.8,0.2,1.6,0.5,2.3
		c0.3,0.7,0.7,1.4,1.3,1.9c0.5,0.5,1.2,1,1.9,1.3s1.5,0.5,2.3,0.5s1.6-0.2,2.3-0.5s1.4-0.7,1.9-1.3c0.5-0.5,1-1.2,1.3-1.9
		c0.3-0.7,0.5-1.5,0.5-2.3v-8.5h-2.7v8.4C211.9,20.1,211.8,20.1,211.8,20.1z"/>
	<path class="st0" d="M228.6,16c-0.4-0.9-0.9-1.6-1.5-2.3c-0.6-0.6-1.4-1.1-2.3-1.5c-0.9-0.4-1.8-0.6-2.8-0.6h-5.9v14.2h2.7V14.4
		h3.2c0.6,0,1.1,0.1,1.7,0.3c0.5,0.2,1,0.5,1.4,0.9s0.7,0.9,0.9,1.4s0.3,1.1,0.3,1.7s-0.1,1.2-0.3,1.7s-0.5,1-0.9,1.4
		s-0.9,0.7-1.4,0.9c-0.5,0.2-1.1,0.3-1.7,0.3h-1.6l-1.1,2.7h2.7c1,0,1.9-0.2,2.8-0.6c0.9-0.4,1.6-0.9,2.3-1.5
		c0.6-0.6,1.1-1.4,1.5-2.3s0.6-1.8,0.6-2.8C229.2,17.8,229,16.8,228.6,16z"/>
	<path class="st0" d="M96,37.5L96,37.5c-0.6-0.6-1.4-1.1-2.3-1.5s-1.8-0.6-2.8-0.6H85v14.2h2.7V38.1H91c0.6,0,1.1,0.1,1.7,0.3
		c0.5,0.2,1,0.5,1.4,0.9s0.7,0.9,0.9,1.4c0.2,0.5,0.3,1.1,0.3,1.7c0,0.6-0.1,1.2-0.3,1.7c-0.2,0.5-0.5,1-0.9,1.4s-0.9,0.7-1.4,0.9
		s-1.1,0.3-1.7,0.3h-1.6l-1.1,2.7H91c1,0,1.9-0.2,2.8-0.6c0.9-0.4,1.6-0.9,2.3-1.5c0.6-0.6,1.1-1.4,1.5-2.3c0.4-0.9,0.6-1.8,0.6-2.8
		s-0.2-1.9-0.6-2.8C97.1,38.9,96.6,38.1,96,37.5z"/>
	<polygon class="st0" points="99.6,49.6 109.3,49.6 109.3,46.9 102.3,46.9 102.3,43.8 108.1,43.8 107.5,41.1 102.3,41.1 102.3,38.1 
		109.3,38.1 109.3,35.4 99.6,35.4 	"/>
	<polygon class="st0" points="117.4,45.6 113.3,35.5 113.3,35.4 110.3,35.4 116,49.5 116,49.6 118.8,49.6 124,35.6 124.1,35.4 
		121.2,35.4 	"/>
	<polygon class="st0" points="129.5,38.1 133.6,38.1 133.6,49.6 136.3,49.6 136.3,38.1 140.3,38.1 140.3,35.4 129.5,35.4 	"/>
	<path class="st0" d="M153,37.2c-0.7-0.7-1.5-1.2-2.3-1.6c-0.9-0.4-1.9-0.6-2.9-0.6s-2,0.2-2.9,0.6c-0.9,0.4-1.7,0.9-2.3,1.6
		c-0.7,0.7-1.2,1.5-1.6,2.3c-0.4,0.9-0.6,1.9-0.6,2.9s0.2,2,0.6,2.9c0.4,0.9,0.9,1.7,1.6,2.3c0.7,0.7,1.5,1.2,2.3,1.6
		c0.9,0.4,1.9,0.6,2.9,0.6s2-0.2,2.9-0.6c0.9-0.4,1.7-0.9,2.3-1.6c0.7-0.7,1.2-1.5,1.6-2.3c0.4-0.9,0.6-1.9,0.6-2.9s-0.2-2-0.6-2.9
		C154.2,38.7,153.7,37.9,153,37.2z M152.5,42.5c0,0.6-0.1,1.2-0.3,1.8s-0.6,1.1-1,1.5s-1,0.8-1.5,1c-1.1,0.5-2.4,0.5-3.6,0
		c-0.6-0.2-1.1-0.6-1.5-1s-0.8-1-1-1.5c-0.2-0.6-0.4-1.2-0.4-1.8s0.1-1.2,0.4-1.8c0.2-0.6,0.6-1.1,1-1.5s1-0.8,1.5-1
		c0.6-0.2,1.2-0.4,1.8-0.4s1.2,0.1,1.8,0.4c0.6,0.2,1.1,0.6,1.5,1s0.8,1,1,1.5S152.5,41.8,152.5,42.5z"/>
	<path class="st0" d="M169.1,37.2c-0.7-0.7-1.5-1.2-2.3-1.6c-0.9-0.4-1.9-0.6-2.9-0.6s-2,0.2-2.9,0.6c-0.9,0.4-1.7,0.9-2.3,1.6
		c-0.7,0.7-1.2,1.5-1.6,2.3c-0.4,0.9-0.6,1.9-0.6,2.9s0.2,2,0.6,2.9c0.4,0.9,0.9,1.7,1.6,2.3c0.7,0.7,1.5,1.2,2.3,1.6
		c0.9,0.4,1.9,0.6,2.9,0.6s2-0.2,2.9-0.6c0.9-0.4,1.7-0.9,2.3-1.6c0.7-0.7,1.2-1.5,1.6-2.3c0.4-0.9,0.6-1.9,0.6-2.9s-0.2-2-0.6-2.9
		C170.3,38.7,169.8,37.9,169.1,37.2z M168.6,42.5c0,0.6-0.1,1.2-0.3,1.8s-0.6,1.1-1,1.5s-1,0.8-1.5,1c-1.1,0.5-2.4,0.5-3.6,0
		c-0.6-0.2-1.1-0.6-1.5-1s-0.8-1-1-1.5c-0.2-0.6-0.4-1.2-0.4-1.8s0.1-1.2,0.4-1.8c0.2-0.6,0.6-1.1,1-1.5s1-0.8,1.5-1
		c0.6-0.2,1.2-0.4,1.8-0.4s1.2,0.1,1.8,0.4s1.1,0.6,1.5,1s0.8,1,1,1.5C168.4,41.2,168.6,41.8,168.6,42.5z"/>
	<polygon class="st0" points="175.5,35.4 172.8,35.4 172.8,49.6 181,49.6 181,46.9 175.5,46.9 	"/>
	<path class="st0" d="M190.5,42.3c-0.3-0.2-0.6-0.4-0.9-0.5c-0.3-0.1-0.6-0.3-0.8-0.4c-0.3-0.1-0.5-0.2-0.7-0.2s-0.3-0.1-0.4-0.1
		l-0.2-0.1c-0.2-0.1-0.5-0.1-0.8-0.2c-0.3-0.1-0.5-0.2-0.8-0.3s-0.5-0.3-0.7-0.5s-0.3-0.5-0.3-0.8c0-0.5,0.3-0.9,0.8-1.3
		c0.2-0.1,0.4-0.2,0.7-0.2c0.8-0.2,1.7-0.1,2.4,0.3c0.4,0.2,0.7,0.4,1,0.8l0.1,0.1l1.9-1.9l-0.1-0.1c-0.1-0.1-0.2-0.2-0.4-0.3
		c-0.1-0.1-0.3-0.2-0.5-0.4c-0.4-0.2-0.9-0.5-1.6-0.7c-0.7-0.2-1.5-0.3-2.4-0.3c-0.5,0-1.1,0.1-1.6,0.2c-0.6,0.2-1.1,0.4-1.5,0.8
		c-0.5,0.4-0.8,0.8-1.1,1.4c-0.3,0.6-0.4,1.2-0.4,2c0,1.2,0.6,2.3,1.9,3.1c0.5,0.3,1.1,0.6,1.6,0.8s0.9,0.3,1.2,0.4
		c0.1,0,0.1,0,0.1,0.1c0.1,0,0.1,0,0.2,0.1h0.1c0.2,0.1,0.5,0.1,0.7,0.2c0.2,0.1,0.5,0.2,0.7,0.3c0.3,0.1,0.5,0.3,0.7,0.5
		s0.3,0.5,0.3,0.8c0,0.5-0.2,0.9-0.6,1.2c-0.2,0.1-0.4,0.2-0.7,0.3s-0.6,0.1-0.9,0.1c-0.2,0-0.4,0-0.7-0.1c-0.3,0-0.6-0.1-0.9-0.2
		c-0.5-0.2-1-0.5-1.4-0.9l-0.1-0.1l-1.9,1.9l0.1,0.1c0.6,0.5,1.3,0.9,2.2,1.2c0.9,0.4,1.9,0.5,3,0.5c0.7,0,1.3-0.1,1.9-0.3
		c0.6-0.2,1.1-0.5,1.5-0.9s0.7-0.8,0.9-1.4c0.2-0.5,0.3-1.1,0.3-1.8C192.5,44.2,191.8,43.2,190.5,42.3z"/>
</g>
<g>
	<path class="st0" d="M194.8,35.4c0-0.1,0-0.1,0.1-0.1h3.8c0.1,0,0.1,0,0.1,0.1v0.5c0,0.1,0,0.1-0.1,0.1h-1.3c-0.1,0-0.1,0-0.1,0.1
		v4.1c0,0.1,0,0.1-0.1,0.1h-0.8c-0.1,0-0.1,0-0.1-0.1v-4.1c0-0.1,0-0.1-0.1-0.1h-1.4c-0.1,0-0.1,0-0.1-0.1L194.8,35.4L194.8,35.4z
		 M199.6,40.3c0,0,0-0.1,0-0.1v-4.8c0-0.1,0-0.1,0.1-0.1h1.2c0,0,0.1,0,0.1,0c0,0,0,0,0,0.1l1.2,3.2c0,0.1,0.1,0.1,0.1,0l1.2-3.2
		c0-0.1,0.1-0.1,0.1-0.1h1.2c0.1,0,0.1,0,0.1,0.1v4.8c0,0.1,0,0.1,0,0.1c0,0-0.1,0-0.1,0H204c-0.1,0-0.1,0-0.1,0c0,0,0-0.1,0-0.1
		v-3.6c0,0,0,0,0,0c0,0,0,0,0,0l-1.3,3.6c0,0.1-0.1,0.1-0.1,0.1h-0.5c-0.1,0-0.1,0-0.1-0.1l-1.3-3.6c0,0,0,0,0,0s0,0,0,0.1v3.5
		c0,0,0,0.1,0,0.1c0,0-0.1,0-0.1,0L199.6,40.3C199.7,40.3,199.6,40.3,199.6,40.3z"/>
</g>
</svg>
