<?xml version="1.0" encoding="utf-8"?>
<!-- Generator: Adobe Illustrator 24.0.3, SVG Export Plug-In . SVG Version: 6.00 Build 0)  -->
<svg version="1.1" id="Layer_1" xmlns="http://www.w3.org/2000/svg" xmlns:xlink="http://www.w3.org/1999/xlink" x="0px" y="0px"
	 viewBox="0 0 108.3 122" style="enable-background:new 0 0 108.3 122;" xml:space="preserve">
<style type="text/css">
	.st0{fill:#F89521;}
	.st1{fill:url(#SVGID_1_);}
	.st2{fill:url(#SVGID_2_);}
	.st3{fill:url(#SVGID_3_);}
	.st4{fill:#2C2255;stroke:#2C2255;stroke-width:0.3187;}
</style>
<g>
	<path class="st0" d="M29.3,80.2c-14.9,0-27-12.1-27-26.8s12.2-26.8,27-26.8c7.2,0,13.9,2.8,18.9,7.9c3.3,3.3,4.5,5.9,6.4,9.9
		c1.7,3.6,3.9,8.1,8.4,15.2c4.1,6.9,9.1,10.3,15.2,10.3h0.5c9.1-0.3,16.2-7.4,16.2-16.2c0-9-7.4-16.2-16.4-16.2
		c-6.6,0-13.5,5.7-15.9,10.3c-0.6-1.1-1.2-2.2-1.8-3.2c-1.6-2.8-2.9-5.1-4-7c4.8-5.4,13.6-10.8,21.7-10.8c14.9,0,27,12.1,27,26.8
		S93.7,79.9,78.6,80.2h-0.4C67,80.2,58.4,73,54.7,65.8l-0.1-0.3l-0.4-0.8C46.8,51,42.4,43.6,40.7,41.9c-3.1-3.1-7.2-4.8-11.5-4.8
		c-9.1,0-16.4,7.3-16.4,16.2s7.4,16.2,16.4,16.2c6.3,0,12.9-5,15.9-10c2.2,4,3.4,6.2,4,7.5c0.9,1.6,1,1.9,1.5,2.8
		C45.9,75,37.5,80.2,29.3,80.2z"/>
</g>
<linearGradient id="SVGID_1_" gradientUnits="userSpaceOnUse" x1="53.9" y1="152.5523" x2="53.9" y2="175.0695" gradientTransform="matrix(1 0 0 -1 0 177.2523)">
	<stop  offset="0" style="stop-color:#B15B27"/>
	<stop  offset="4.657672e-02" style="stop-color:#B86127"/>
	<stop  offset="0.2794" style="stop-color:#D67B25"/>
	<stop  offset="0.4821" style="stop-color:#EC8D23"/>
	<stop  offset="0.6309" style="stop-color:#F89521"/>
</linearGradient>
<path class="st1" d="M69.6,24.7c-2-7-8.4-12-15.6-12c-7.1,0-13.6,4.9-15.6,11.9c-2.8-0.8-5.9-1.2-8.8-1.2c-0.7,0-1.3,0-1.9,0.1
	C30.6,11.3,41.7,2.3,54,2.3c12.5,0,23.3,8.7,26.1,20.8C76.5,23.1,72.9,23.6,69.6,24.7z"/>
<linearGradient id="SVGID_2_" gradientUnits="userSpaceOnUse" x1="56.741" y1="139.9145" x2="86.2411" y2="139.9145" gradientTransform="matrix(1 0 0 -1 0 177.2523)">
	<stop  offset="0" style="stop-color:#B15B27"/>
	<stop  offset="1" style="stop-color:#F89521"/>
</linearGradient>
<path class="st2" d="M78.5,26.8c-8.2,0-16.9,5.3-21.7,10.8c1.1,1.9,2.4,4.1,4,7c0.6,1,1.2,2.1,1.8,3.2c2.5-4.6,9.3-10.3,15.9-10.3
	c2.8,0,5.5,0.7,7.8,1.9V27.9C83.9,27.2,81.3,26.8,78.5,26.8z"/>
<linearGradient id="SVGID_3_" gradientUnits="userSpaceOnUse" x1="20.8982" y1="107.4023" x2="50.5049" y2="107.4023" gradientTransform="matrix(1 0 0 -1 0 177.2523)">
	<stop  offset="0" style="stop-color:#F89521"/>
	<stop  offset="1" style="stop-color:#B15B27"/>
</linearGradient>
<path class="st3" d="M29.2,80.2c8.3,0,16.7-5.3,21.4-10.4c-0.5-0.9-0.7-1.1-1.5-2.8c-0.7-1.3-1.8-3.4-4-7.5c-2.9,5-9.6,10-15.9,10
	c-3,0-5.8-0.8-8.3-2.2v11.5C23.5,79.7,26.3,80.2,29.2,80.2z"/>
<g>
	<polygon class="st4" points="2.5,103.3 9,103.3 9,101.6 4.2,101.6 4.2,99.2 8.2,99.2 7.8,97.5 4.2,97.5 4.2,95.2 9,95.2 9,93.5 
		2.5,93.5 	"/>
	<path class="st4" d="M19,102l-1.2-1.2c-0.3,0.3-0.7,0.6-1.1,0.7c-0.4,0.2-0.9,0.3-1.3,0.3c-0.5,0-0.9-0.1-1.3-0.3
		c-0.4-0.2-0.8-0.4-1.1-0.7s-0.6-0.7-0.7-1.1c-0.2-0.4-0.3-0.9-0.3-1.3s0.1-0.9,0.3-1.3s0.4-0.8,0.7-1.1c0.3-0.3,0.7-0.6,1.1-0.7
		c0.4-0.2,0.8-0.3,1.3-0.3s0.9,0.1,1.3,0.3c0.4,0.2,0.8,0.4,1.1,0.7l1.2-1.2c-0.5-0.5-1-0.8-1.6-1.1c-0.6-0.3-1.3-0.4-2-0.4
		c-0.7,0-1.4,0.1-2,0.4s-1.2,0.6-1.6,1.1c-0.5,0.5-0.8,1-1.1,1.6s-0.4,1.3-0.4,2s0.1,1.4,0.4,2s0.6,1.2,1.1,1.6
		c0.5,0.5,1,0.8,1.6,1.1c0.6,0.3,1.3,0.4,2,0.4c0.7,0,1.4-0.1,2-0.4C18,102.8,18.6,102.4,19,102z"/>
	<polygon class="st4" points="22,93.5 20.3,93.5 20.3,101.6 20.3,103.3 22,103.3 25.8,103.3 25.8,101.6 22,101.6 	"/>
	<rect x="27.5" y="93.5" class="st4" width="1.7" height="9.8"/>
	<path class="st4" d="M34.5,98.8h-0.7l-0.7,1.7h1.4c0.5,0,0.9-0.1,1.4-0.3c0.4-0.2,0.8-0.4,1.1-0.8s0.6-0.7,0.8-1.1s0.3-0.9,0.3-1.4
		S38,96,37.8,95.5c-0.2-0.4-0.4-0.8-0.8-1.1c-0.4-0.3-0.7-0.6-1.1-0.8c-0.4-0.2-0.9-0.3-1.4-0.3h-3.7v9.8h1.7V95h2
		c0.5,0,0.9,0.2,1.3,0.5c0.4,0.3,0.5,0.8,0.5,1.3s-0.2,0.9-0.5,1.3C35.5,98.7,35,98.8,34.5,98.8z"/>
	<path class="st4" d="M45,98.4c-0.2-0.1-0.4-0.3-0.6-0.4c-0.2-0.1-0.4-0.2-0.6-0.3c-0.2-0.1-0.3-0.1-0.5-0.2c-0.1,0-0.2-0.1-0.3-0.1
		h-0.2c-0.2,0-0.4-0.1-0.5-0.2c-0.2-0.1-0.4-0.1-0.6-0.2s-0.4-0.2-0.5-0.4c-0.2-0.2-0.3-0.4-0.3-0.6c0-0.4,0.2-0.7,0.6-1
		c0.1-0.1,0.3-0.1,0.5-0.2c0.2,0,0.4-0.1,0.6-0.1c0.4,0,0.8,0.1,1.2,0.3c0.3,0.1,0.5,0.3,0.8,0.6l1.2-1.2c-0.1-0.1-0.2-0.1-0.3-0.2
		S45.3,94,45.1,94c-0.3-0.2-0.6-0.3-1.1-0.5s-1-0.2-1.7-0.2c-0.4,0-0.7,0.1-1.1,0.2c-0.4,0.1-0.7,0.3-1,0.5s-0.6,0.5-0.7,0.9
		c-0.1,0.4-0.3,0.8-0.3,1.4c0,0.8,0.4,1.5,1.3,2.1c0.4,0.2,0.7,0.4,1.1,0.6c0.4,0.2,0.7,0.2,0.8,0.3h0.1h0.1h0.1
		c0.1,0,0.3,0.1,0.5,0.2s0.4,0.1,0.5,0.2c0.2,0.1,0.4,0.2,0.5,0.4c0.2,0.2,0.3,0.4,0.3,0.6c0,0.4-0.2,0.7-0.5,0.9
		c-0.1,0.1-0.3,0.2-0.5,0.2c-0.2,0.1-0.4,0.1-0.7,0.1c-0.1,0-0.3,0-0.5,0s-0.4-0.1-0.7-0.2c-0.4-0.1-0.7-0.4-1-0.6l-1.2,1.2
		c0.4,0.3,0.9,0.6,1.5,0.8c0.6,0.2,1.3,0.4,2.1,0.4c0.5,0,0.9-0.1,1.3-0.2c0.4-0.1,0.7-0.3,1-0.6s0.5-0.6,0.6-0.9
		c0.1-0.4,0.2-0.8,0.2-1.2C46.3,99.7,45.9,99,45,98.4z"/>
	<polygon class="st4" points="54.4,101.6 49.4,101.6 49.4,99.2 53.5,99.2 53.1,97.5 49.4,97.5 49.4,95.2 54.4,95.2 54.4,93.5 
		47.8,93.5 47.8,103.3 54.4,103.3 	"/>
	<path class="st4" d="M66.6,100.8c-0.3,0.3-0.7,0.6-1.1,0.7c-0.4,0.2-0.9,0.3-1.3,0.3c-0.5,0-0.9-0.1-1.3-0.3
		c-0.4-0.2-0.8-0.4-1.1-0.7s-0.6-0.7-0.7-1.1c-0.2-0.4-0.3-0.9-0.3-1.3s0.1-0.9,0.3-1.3s0.4-0.8,0.7-1.1c0.3-0.3,0.7-0.6,1.1-0.7
		c0.4-0.2,0.8-0.3,1.3-0.3s0.9,0.1,1.3,0.3c0.4,0.2,0.8,0.4,1.1,0.7l1.2-1.2c-0.5-0.5-1-0.8-1.6-1.1c-0.6-0.3-1.3-0.4-2-0.4
		c-0.7,0-1.4,0.1-2,0.4s-1.2,0.6-1.6,1.1c-0.5,0.5-0.8,1-1.1,1.6s-0.4,1.3-0.4,2s0.1,1.4,0.4,2s0.6,1.2,1.1,1.6
		c0.5,0.5,1,0.8,1.6,1.1c0.6,0.3,1.3,0.4,2,0.4c0.7,0,1.4-0.1,2-0.4s1.2-0.6,1.6-1.1L66.6,100.8z"/>
	<polygon class="st4" points="74.4,103.3 74.4,101.6 70.6,101.6 70.6,93.5 69,93.5 69,101.6 69,103.3 70.6,103.3 	"/>
	<path class="st4" d="M84.9,96.4c-0.3-0.6-0.6-1.2-1.1-1.6s-1-0.8-1.6-1.1c-0.6-0.3-1.3-0.4-2-0.4s-1.4,0.1-2,0.4s-1.2,0.6-1.6,1.1
		s-0.8,1-1.1,1.6c-0.3,0.6-0.4,1.3-0.4,2s0.1,1.4,0.4,2s0.6,1.2,1.1,1.6c0.5,0.5,1,0.8,1.6,1.1c0.6,0.3,1.3,0.4,2,0.4s1.4-0.1,2-0.4
		s1.2-0.6,1.6-1.1c0.5-0.5,0.8-1,1.1-1.6s0.4-1.3,0.4-2S85.2,97,84.9,96.4z M83.4,99.7c-0.2,0.4-0.4,0.8-0.7,1.1
		c-0.3,0.3-0.7,0.6-1.1,0.7c-0.4,0.2-0.9,0.3-1.3,0.3s-0.9-0.1-1.3-0.3c-0.4-0.2-0.8-0.4-1.1-0.7c-0.3-0.3-0.6-0.7-0.7-1.1
		c-0.2-0.4-0.3-0.9-0.3-1.3s0.1-0.9,0.3-1.3c0.2-0.4,0.4-0.8,0.7-1.1c0.3-0.3,0.7-0.6,1.1-0.7s0.8-0.3,1.3-0.3s0.9,0.1,1.3,0.3
		c0.4,0.2,0.8,0.4,1.1,0.7s0.6,0.7,0.7,1.1c0.2,0.4,0.3,0.8,0.3,1.3S83.5,99.3,83.4,99.7z"/>
	<path class="st4" d="M93.2,99.4c0,0.3-0.1,0.6-0.2,0.9s-0.3,0.6-0.5,0.8c-0.5,0.5-1.1,0.7-1.7,0.7c-0.3,0-0.6-0.1-0.9-0.2
		s-0.6-0.3-0.8-0.5c-0.2-0.2-0.4-0.5-0.5-0.8s-0.2-0.6-0.2-0.9v-5.9h-1.7v5.9c0,0.6,0.1,1.1,0.3,1.6s0.5,0.9,0.9,1.3
		s0.8,0.7,1.3,0.9s1,0.3,1.6,0.3s1.1-0.1,1.6-0.3c0.5-0.2,0.9-0.5,1.3-0.9s0.7-0.8,0.9-1.3s0.3-1,0.3-1.6v-5.9h-1.7L93.2,99.4
		L93.2,99.4z"/>
	<path class="st4" d="M104.9,96.5c-0.3-0.6-0.6-1.1-1.1-1.6c-0.4-0.4-1-0.8-1.6-1.1c-0.6-0.3-1.2-0.4-1.9-0.4h-4.1v9.8H98v-1.7v-2.4
		V95h2.4c0.4,0,0.8,0.1,1.2,0.2c0.4,0.1,0.7,0.4,1.1,0.7c0.3,0.3,0.5,0.7,0.7,1.1s0.2,0.8,0.2,1.2c0,0.4-0.1,0.9-0.2,1.2
		c-0.2,0.4-0.4,0.7-0.7,1c-0.3,0.3-0.7,0.5-1.1,0.7s-0.8,0.2-1.2,0.2h-1.1l-0.7,1.7h1.7c0.7,0,1.3-0.1,1.9-0.4s1.1-0.6,1.6-1.1
		c0.4-0.4,0.8-1,1.1-1.6c0.3-0.6,0.4-1.2,0.4-1.9C105.3,97.7,105.2,97.1,104.9,96.5z"/>
	<path class="st4" d="M23.2,111.6c-0.4-0.4-1-0.8-1.6-1.1c-0.6-0.3-1.2-0.4-1.9-0.4h-4.1v9.8h1.7v-1.7v-2.4v-4.1h2.4
		c0.4,0,0.8,0.1,1.2,0.2c0.4,0.1,0.7,0.4,1.1,0.7c0.3,0.3,0.5,0.7,0.7,1.1s0.2,0.8,0.2,1.2s-0.1,0.9-0.2,1.2c-0.2,0.4-0.4,0.7-0.7,1
		c-0.3,0.3-0.7,0.5-1.1,0.7s-0.8,0.2-1.2,0.2h-1.1l-0.7,1.7h1.7c0.7,0,1.3-0.1,1.9-0.4s1.1-0.6,1.6-1.1c0.4-0.4,0.8-1,1.1-1.6
		s0.4-1.2,0.4-1.9c0-0.7-0.1-1.3-0.4-1.9S23.6,112.1,23.2,111.6z"/>
	<polygon class="st4" points="26.1,120 32.7,120 32.7,118.3 27.7,118.3 27.7,115.9 31.8,115.9 31.4,114.2 27.7,114.2 27.7,111.9 
		32.7,111.9 32.7,110.2 26.1,110.2 	"/>
	<polygon class="st4" points="38.5,117.7 35.6,110.2 33.8,110.2 37.7,120 39.4,120 43.1,110.2 41.3,110.2 	"/>
	<polygon class="st4" points="50.3,110.2 47.4,110.2 47.4,111.9 50.3,111.9 50.3,120 52,120 52,111.9 54.9,111.9 54.9,110.2 
		52,110.2 	"/>
	<path class="st4" d="M64,111.5c-0.5-0.5-1-0.8-1.6-1.1c-0.6-0.3-1.3-0.4-2-0.4s-1.4,0.1-2,0.4s-1.2,0.6-1.6,1.1
		c-0.4,0.5-0.8,1-1.1,1.6s-0.4,1.3-0.4,2s0.1,1.4,0.4,2s0.6,1.2,1.1,1.6c0.5,0.5,1,0.8,1.6,1.1c0.6,0.3,1.3,0.4,2,0.4s1.4-0.1,2-0.4
		s1.2-0.6,1.6-1.1c0.5-0.5,0.8-1,1.1-1.6s0.4-1.3,0.4-2s-0.1-1.4-0.4-2C64.8,112.5,64.5,111.9,64,111.5z M63.6,116.4
		c-0.2,0.4-0.4,0.8-0.7,1.1c-0.3,0.3-0.7,0.6-1.1,0.7c-0.4,0.2-0.9,0.3-1.3,0.3s-0.9-0.1-1.3-0.3c-0.4-0.2-0.8-0.4-1.1-0.7
		c-0.3-0.3-0.6-0.7-0.7-1.1c-0.2-0.4-0.3-0.9-0.3-1.3s0.1-0.9,0.3-1.3s0.4-0.8,0.7-1.1s0.7-0.6,1.1-0.7c0.4-0.1,0.8-0.3,1.3-0.3
		s0.9,0.1,1.3,0.3c0.4,0.2,0.8,0.4,1.1,0.7c0.3,0.3,0.6,0.7,0.7,1.1c0.2,0.4,0.3,0.8,0.3,1.3C63.9,115.6,63.8,116,63.6,116.4z"/>
	<path class="st4" d="M75.4,111.5c-0.5-0.5-1-0.8-1.6-1.1c-0.6-0.3-1.3-0.4-2-0.4s-1.4,0.1-2,0.4s-1.2,0.6-1.6,1.1s-0.8,1-1.1,1.6
		c-0.3,0.6-0.4,1.3-0.4,2s0.1,1.4,0.4,2s0.6,1.2,1.1,1.6c0.5,0.5,1,0.8,1.6,1.1c0.6,0.3,1.3,0.4,2,0.4s1.4-0.1,2-0.4
		s1.2-0.6,1.6-1.1c0.5-0.5,0.8-1,1.1-1.6s0.4-1.3,0.4-2s-0.1-1.4-0.4-2S75.9,111.9,75.4,111.5z M75,116.4c-0.2,0.4-0.4,0.8-0.7,1.1
		s-0.7,0.6-1.1,0.7c-0.4,0.2-0.9,0.3-1.3,0.3s-0.9-0.1-1.3-0.3s-0.8-0.4-1.1-0.7c-0.3-0.3-0.6-0.7-0.7-1.1c-0.2-0.4-0.3-0.9-0.3-1.3
		s0.1-0.9,0.3-1.3c0.2-0.4,0.4-0.8,0.7-1.1s0.7-0.6,1.1-0.7s0.8-0.3,1.3-0.3s0.9,0.1,1.3,0.3c0.4,0.2,0.8,0.4,1.1,0.7
		c0.3,0.3,0.6,0.7,0.7,1.1c0.2,0.4,0.3,0.8,0.3,1.3S75.2,116,75,116.4z"/>
	<polygon class="st4" points="80,110.2 78.4,110.2 78.4,118.3 78.4,120 80,120 83.9,120 83.9,118.3 80,118.3 	"/>
	<path class="st4" d="M90.8,115.1c-0.2-0.1-0.4-0.3-0.6-0.4s-0.4-0.2-0.6-0.3c-0.2-0.1-0.3-0.1-0.5-0.2c-0.1,0-0.2-0.1-0.3-0.1h-0.2
		c-0.2,0-0.4-0.1-0.5-0.2c-0.2-0.1-0.4-0.1-0.6-0.2s-0.4-0.2-0.5-0.4c-0.2-0.2-0.3-0.4-0.3-0.6c0-0.4,0.2-0.7,0.6-1
		c0.1-0.1,0.3-0.1,0.5-0.2c0.2,0,0.4-0.1,0.6-0.1c0.4,0,0.8,0.1,1.2,0.3c0.3,0.1,0.5,0.3,0.8,0.6l1.2-1.2c-0.1-0.1-0.2-0.1-0.3-0.2
		c-0.1-0.1-0.2-0.2-0.4-0.2c-0.3-0.2-0.6-0.3-1.1-0.5s-1-0.2-1.7-0.2c-0.4,0-0.7,0.1-1.1,0.2s-0.7,0.3-1,0.5s-0.6,0.5-0.7,0.9
		S85,112.4,85,113c0,0.8,0.4,1.5,1.3,2.1c0.4,0.2,0.7,0.4,1.1,0.6s0.7,0.2,0.8,0.3h0.1h0.1h0.1c0.1,0,0.3,0.1,0.5,0.2
		s0.4,0.1,0.5,0.2c0.2,0.1,0.4,0.2,0.5,0.4c0.2,0.2,0.3,0.4,0.3,0.6c0,0.4-0.2,0.7-0.5,0.9c-0.1,0.1-0.3,0.2-0.5,0.2
		c-0.2,0.1-0.4,0.1-0.7,0.1c-0.1,0-0.3,0-0.5,0s-0.4-0.1-0.7-0.2c-0.4-0.1-0.7-0.4-1-0.6l-1.2,1.2c0.4,0.3,0.9,0.6,1.5,0.8
		s1.3,0.4,2.1,0.4c0.5,0,0.9-0.1,1.3-0.2s0.7-0.3,1-0.6c0.3-0.3,0.5-0.6,0.6-0.9c0.1-0.4,0.2-0.8,0.2-1.2
		C92.2,116.4,91.7,115.7,90.8,115.1z"/>
</g>
</svg>
